<svg viewBox="0 0 1215.5 400" xmlns="http://www.w3.org/2000/svg"><g><g><g><g><g><line x1="51.8120002746582" y1="352.210422312054" x2="46.8120002746582" y2="352.210422312054" style="visibility: inherit;" fill="rgb(0, 0, 0)" stroke="rgb(204, 204, 204)" stroke-width="1px"></line><line x1="51.8120002746582" y1="321.1768728679575" x2="46.8120002746582" y2="321.1768728679575" style="visibility: inherit;" fill="rgb(0, 0, 0)" stroke="rgb(204, 204, 204)" stroke-width="1px"></line><line x1="51.8120002746582" y1="290.14332342386103" x2="46.8120002746582" y2="290.14332342386103" style="visibility: inherit;" fill="rgb(0, 0, 0)" stroke="rgb(204, 204, 204)" stroke-width="1px"></line><line x1="51.8120002746582" y1="259.1097739797645" x2="46.8120002746582" y2="259.1097739797645" style="visibility: inherit;" fill="rgb(0, 0, 0)" stroke="rgb(204, 204, 204)" stroke-width="1px"></line><line x1="51.8120002746582" y1="228.07622453566802" x2="46.8120002746582" y2="228.07622453566802" style="visibility: inherit;" fill="rgb(0, 0, 0)" stroke="rgb(204, 204, 204)" stroke-width="1px"></line><line x1="51.8120002746582" y1="197.0426750915715" x2="46.8120002746582" y2="197.0426750915715" style="visibility: inherit;" fill="rgb(0, 0, 0)" stroke="rgb(204, 204, 204)" stroke-width="1px"></line><line x1="51.8120002746582" y1="166.00912564747503" x2="46.8120002746582" y2="166.00912564747503" style="visibility: inherit;" fill="rgb(0, 0, 0)" stroke="rgb(204, 204, 204)" stroke-width="1px"></line><line x1="51.8120002746582" y1="134.97557620337855" x2="46.8120002746582" y2="134.97557620337855" style="visibility: inherit;" fill="rgb(0, 0, 0)" stroke="rgb(204, 204, 204)" stroke-width="1px"></line><line x1="51.8120002746582" y1="103.94202675928203" x2="46.8120002746582" y2="103.94202675928203" style="visibility: inherit;" fill="rgb(0, 0, 0)" stroke="rgb(204, 204, 204)" stroke-width="1px"></line><line x1="51.8120002746582" y1="72.90847731518555" x2="46.8120002746582" y2="72.90847731518555" style="visibility: inherit;" fill="rgb(0, 0, 0)" stroke="rgb(204, 204, 204)" stroke-width="1px"></line><line x1="51.8120002746582" y1="41.87492787108941" x2="46.8120002746582" y2="41.87492787108941" style="visibility: inherit;" fill="rgb(0, 0, 0)" stroke="rgb(204, 204, 204)" stroke-width="1px"></line><line x1="51.8120002746582" y1="10.841378426992934" x2="46.8120002746582" y2="10.841378426992934" style="visibility: inherit;" fill="rgb(0, 0, 0)" stroke="rgb(204, 204, 204)" stroke-width="1px"></line></g><g transform="translate(41.8120002746582, 0)"><text style="text-anchor: end; visibility: inherit; font-family: Roboto, sans-serif; font-size: 12px; font-weight: 200;" x="0" y="352.210422312054" dx="0em" dy="0.3em" fill="rgb(33, 33, 33)" stroke="none" stroke-width="1px">0.59</text><text style="text-anchor: end; visibility: inherit; font-family: Roboto, sans-serif; font-size: 12px; font-weight: 200;" x="0" y="321.1768728679575" dx="0em" dy="0.3em" fill="rgb(33, 33, 33)" stroke="none" stroke-width="1px">0.6</text><text style="text-anchor: end; visibility: inherit; font-family: Roboto, sans-serif; font-size: 12px; font-weight: 200;" x="0" y="290.14332342386103" dx="0em" dy="0.3em" fill="rgb(33, 33, 33)" stroke="none" stroke-width="1px">0.61</text><text style="text-anchor: end; visibility: inherit; font-family: Roboto, sans-serif; font-size: 12px; font-weight: 200;" x="0" y="259.1097739797645" dx="0em" dy="0.3em" fill="rgb(33, 33, 33)" stroke="none" stroke-width="1px">0.62</text><text style="text-anchor: end; visibility: inherit; font-family: Roboto, sans-serif; font-size: 12px; font-weight: 200;" x="0" y="228.07622453566802" dx="0em" dy="0.3em" fill="rgb(33, 33, 33)" stroke="none" stroke-width="1px">0.63</text><text style="text-anchor: end; visibility: inherit; font-family: Roboto, sans-serif; font-size: 12px; font-weight: 200;" x="0" y="197.0426750915715" dx="0em" dy="0.3em" fill="rgb(33, 33, 33)" stroke="none" stroke-width="1px">0.64</text><text style="text-anchor: end; visibility: inherit; font-family: Roboto, sans-serif; font-size: 12px; font-weight: 200;" x="0" y="166.00912564747503" dx="0em" dy="0.3em" fill="rgb(33, 33, 33)" stroke="none" stroke-width="1px">0.65</text><text style="text-anchor: end; visibility: inherit; font-family: Roboto, sans-serif; font-size: 12px; font-weight: 200;" x="0" y="134.97557620337855" dx="0em" dy="0.3em" fill="rgb(33, 33, 33)" stroke="none" stroke-width="1px">0.66</text><text style="text-anchor: end; visibility: inherit; font-family: Roboto, sans-serif; font-size: 12px; font-weight: 200;" x="0" y="103.94202675928203" dx="0em" dy="0.3em" fill="rgb(33, 33, 33)" stroke="none" stroke-width="1px">0.67</text><text style="text-anchor: end; visibility: inherit; font-family: Roboto, sans-serif; font-size: 12px; font-weight: 200;" x="0" y="72.90847731518555" dx="0em" dy="0.3em" fill="rgb(33, 33, 33)" stroke="none" stroke-width="1px">0.68</text><text style="text-anchor: end; visibility: inherit; font-family: Roboto, sans-serif; font-size: 12px; font-weight: 200;" x="0" y="41.87492787108941" dx="0em" dy="0.3em" fill="rgb(33, 33, 33)" stroke="none" stroke-width="1px">0.69</text><text style="text-anchor: end; visibility: inherit; font-family: Roboto, sans-serif; font-size: 12px; font-weight: 200;" x="0" y="10.841378426992934" dx="0em" dy="0.3em" fill="rgb(33, 33, 33)" stroke="none" stroke-width="1px">0.7</text></g><line x1="51.8120002746582" y1="0" x2="51.8120002746582" y2="376.89499950408936" fill="rgb(0, 0, 0)" stroke="rgb(204, 204, 204)" stroke-width="1px"></line></g></g><g transform="translate(51, 0)" clip-path="url(#clip_0)"><clipPath id="clip_0"><rect width="1163" height="376"></rect></clipPath><g><g><g><line x1="8.003245874182863" y1="0" x2="8.003245874182863" y2="376.89499950408936" fill="rgb(0, 0, 0)" stroke="rgb(66, 66, 66)" stroke-width="1px" opacity="0.25"></line><line x1="121.78072261066723" y1="0" x2="121.78072261066723" y2="376.89499950408936" fill="rgb(0, 0, 0)" stroke="rgb(66, 66, 66)" stroke-width="1px" opacity="0.25"></line><line x1="235.5581993471516" y1="0" x2="235.5581993471516" y2="376.89499950408936" fill="rgb(0, 0, 0)" stroke="rgb(66, 66, 66)" stroke-width="1px" opacity="0.25"></line><line x1="349.335676083636" y1="0" x2="349.335676083636" y2="376.89499950408936" fill="rgb(0, 0, 0)" stroke="rgb(66, 66, 66)" stroke-width="1px" opacity="0.25"></line><line x1="463.1131528201203" y1="0" x2="463.1131528201203" y2="376.89499950408936" fill="rgb(0, 0, 0)" stroke="rgb(66, 66, 66)" stroke-width="1px" opacity="0.25"></line><line x1="576.8906295566046" y1="0" x2="576.8906295566046" y2="376.89499950408936" fill="rgb(0, 0, 0)" stroke="rgb(66, 66, 66)" stroke-width="1px" opacity="0.25"></line><line x1="690.668106293089" y1="0" x2="690.668106293089" y2="376.89499950408936" fill="rgb(0, 0, 0)" stroke="rgb(66, 66, 66)" stroke-width="1px" opacity="0.25"></line><line x1="804.4455830295733" y1="0" x2="804.4455830295733" y2="376.89499950408936" fill="rgb(0, 0, 0)" stroke="rgb(66, 66, 66)" stroke-width="1px" opacity="0.25"></line><line x1="918.2230597660576" y1="0" x2="918.2230597660576" y2="376.89499950408936" fill="rgb(0, 0, 0)" stroke="rgb(66, 66, 66)" stroke-width="1px" opacity="0.25"></line><line x1="1032.000536502542" y1="0" x2="1032.000536502542" y2="376.89499950408936" fill="rgb(0, 0, 0)" stroke="rgb(66, 66, 66)" stroke-width="1px" opacity="0.25"></line><line x1="1145.7780132390264" y1="0" x2="1145.7780132390264" y2="376.89499950408936" fill="rgb(0, 0, 0)" stroke="rgb(66, 66, 66)" stroke-width="1px" opacity="0.25"></line></g><g><line x1="0" y1="352.210422312054" x2="1163.6879997253418" y2="352.210422312054" fill="rgb(0, 0, 0)" stroke="rgb(66, 66, 66)" stroke-width="1px" opacity="0.25"></line><line x1="0" y1="321.1768728679575" x2="1163.6879997253418" y2="321.1768728679575" fill="rgb(0, 0, 0)" stroke="rgb(66, 66, 66)" stroke-width="1px" opacity="0.25"></line><line x1="0" y1="290.14332342386103" x2="1163.6879997253418" y2="290.14332342386103" fill="rgb(0, 0, 0)" stroke="rgb(66, 66, 66)" stroke-width="1px" opacity="0.25"></line><line x1="0" y1="259.1097739797645" x2="1163.6879997253418" y2="259.1097739797645" fill="rgb(0, 0, 0)" stroke="rgb(66, 66, 66)" stroke-width="1px" opacity="0.25"></line><line x1="0" y1="228.07622453566802" x2="1163.6879997253418" y2="228.07622453566802" fill="rgb(0, 0, 0)" stroke="rgb(66, 66, 66)" stroke-width="1px" opacity="0.25"></line><line x1="0" y1="197.0426750915715" x2="1163.6879997253418" y2="197.0426750915715" fill="rgb(0, 0, 0)" stroke="rgb(66, 66, 66)" stroke-width="1px" opacity="0.25"></line><line x1="0" y1="166.00912564747503" x2="1163.6879997253418" y2="166.00912564747503" fill="rgb(0, 0, 0)" stroke="rgb(66, 66, 66)" stroke-width="1px" opacity="0.25"></line><line x1="0" y1="134.97557620337855" x2="1163.6879997253418" y2="134.97557620337855" fill="rgb(0, 0, 0)" stroke="rgb(66, 66, 66)" stroke-width="1px" opacity="0.25"></line><line x1="0" y1="103.94202675928203" x2="1163.6879997253418" y2="103.94202675928203" fill="rgb(0, 0, 0)" stroke="rgb(66, 66, 66)" stroke-width="1px" opacity="0.25"></line><line x1="0" y1="72.90847731518555" x2="1163.6879997253418" y2="72.90847731518555" fill="rgb(0, 0, 0)" stroke="rgb(66, 66, 66)" stroke-width="1px" opacity="0.25"></line><line x1="0" y1="41.87492787108941" x2="1163.6879997253418" y2="41.87492787108941" fill="rgb(0, 0, 0)" stroke="rgb(66, 66, 66)" stroke-width="1px" opacity="0.25"></line><line x1="0" y1="10.841378426992934" x2="1163.6879997253418" y2="10.841378426992934" fill="rgb(0, 0, 0)" stroke="rgb(66, 66, 66)" stroke-width="1px" opacity="0.25"></line></g></g></g><g><g><line x1="0" y1="2183.1898395137455" x2="1163.6879997253418" y2="2183.1898395137455" fill="rgb(0, 0, 0)" stroke="rgb(153, 153, 153)" stroke-width="1.5px"></line></g></g><g><g><line x1="8.003245874182863" y1="0" x2="8.003245874182863" y2="376.89499950408936" fill="rgb(0, 0, 0)" stroke="rgb(153, 153, 153)" stroke-width="1.5px"></line></g></g><g><g><g><g><g><path style="fill: none;" stroke="rgb(255, 112, 67)" stroke-width="2px" d="M11.189015222804427,182.87756727614143L11.644125129750362,189.58555428661768L11.757902606486848,230.40239957213203L12.326789990169269,251.52051034105332L13.350787280797629,295.37331476214814L16.081446722473252,316.6760367338649L16.422779152682708,327.3942097720715L16.991666536365127,310.646547640805L19.60854850130427,317.85914476469986L20.291213361723173,341.58701941867827L20.518768315196144,366.5072571155774L25.98008719854739,263.94868242553093L26.43519710549333,242.38884812275234L28.369414210013566,251.17586297809757L31.327628605162158,230.8973032499407L32.35162589579052,261.7116031348477L33.03429075620942,319.8410952302734L33.37562318641888,338.47958949040924L33.94451057010129,260.0908657174392L37.016502441986376,275.41081037157306L38.60938711629716,346.2573386363654L40.08849431387145,371.80312546209126L42.136488895128174,400.72228293388287L42.47782132533763,341.78923177000996L42.70537627881059,301.81583323497665L45.32225824374973,324.8643257774205L46.11870058090513,332.68356002705525L46.23247805764161,329.2391809904951L46.80136544132403,320.2399981232206L47.48403030174294,344.3916300980944L48.84936002258075,365.98911307908605L50.78357712710098,342.08998558933195L53.5142365687766,246.87349867281327L53.62801404551309,198.03647987917174L53.74179152224958,175.28397336911715L53.969346475722546,176.5334301542047L54.08312395245903,187.48065410213266L54.53823385940496,237.894814623224L57.72400320802653,313.0835375503679L58.065335638235986,331.4380592651132L58.6342230219184,344.6640772924939L59.65822031254677,328.2163328348021L59.999552742756215,318.57564176528734L62.16132480074942,267.01677903393613L63.0715446146413,252.0228547194698L64.89198424242505,201.73002401340676L65.23331667263449,196.64158085687532L65.80220405631692,202.35863549784847L66.25731396326286,230.4224291384122L66.48486891673582,200.64404207020033L66.82620134694528,222.5445681982L68.41908602125606,239.48368141561775L68.874195928202,286.13448845248206L69.10175088167496,298.57344840895075L69.44308331188442,282.2494091962212L70.69463555598574,254.69484016320524L75.70084453239106,248.41281117939224L78.09017154385722,291.27230422876704L78.20394902059371,312.55438614634085L79.00039135774911,231.23155003919098L81.73105079942474,278.8965979050125L82.18616070637067,265.27880255496075L82.41371565984365,249.34993133608714L83.09638052026253,196.11856286712512L83.21015799699902,195.03024997877128L83.43771295047199,155.39023657388148L84.23415528762739,90.18353464232385L85.71326248520167,130.105004317642L88.10258949666785,118.80539017007852L91.62969127549887,131.2861231337356L91.97102370570832,141.09379170943393L92.1985786591813,144.85089181236998L93.5639083800191,120.5032259191362L96.97723268211364,120.58090816783267L98.68389483316089,126.06643291596093L99.13900474010683,128.52070562815803L100.04922455399871,113.75194435684331L101.86966418178245,121.1043631560029L102.89366147241083,94.75437184673137L103.12121642588379,76.58149690956797L103.57632633282974,77.70169775822524L104.82787857693106,166.58387282631497L107.10342811166073,228.4992596125552L107.21720558839722,265.1606436449141L107.4447605418702,294.3702208222016L108.9238677394445,198.0428319662168L109.94786503007285,180.6820580464354L111.99585961132956,208.097645266443L112.56474699501199,227.79578869962864L113.13363437869441,158.6142805945723L113.81629923911332,125.79088482548366L114.0438541925863,145.54307263088432L114.95407400647815,99.663770168794L115.52296139016059,86.37105921447329L116.77451363426192,94.58513685946959L117.34340101794433,110.534780121928L119.27761812246457,96.25388874526915L119.50517307593755,86.95158280271453L119.96028298288347,101.46070734821689L120.18783793635643,110.2793927436329L122.6909424245591,96.48518813744249L124.05627214539692,76.58214073086003L124.62515952907934,77.88575920924292L125.08026943602526,121.34518635374782L125.42160186623472,116.94652528440312L125.87671177318066,85.12265915586934L125.99048924991715,72.24850251573292L128.26603878464684,97.15398921119748L129.1762585985387,59.61099073566936L129.9727009356941,51.532622596404195L133.04469280757917,166.28120869689536L134.75135495862645,228.1312259604341L134.97890991209943,273.17875644100656L135.20646486557237,285.0909180227826L136.23046215620073,279.95516871498023L138.27845673745745,278.6398328548845L139.07489907461283,283.5804274899317L139.75756393503175,283.60565693571L139.87134141176824,286.2065742675804L140.7815612256601,306.47190999468364L140.8953387023966,316.3597372386078L141.464226086079,321.48246467441254L142.94333328365332,324.77400737063743L143.0571107603898,321.79902247675795L143.51222066733573,295.9318143948314L144.30866300449114,195.28852475291026L144.99132786491003,206.92700380082482L146.0153251555384,188.12649436462627L147.26687739963972,215.13648936879778L147.3806548763762,218.3806920390511L148.29087469026808,194.6370448575056L148.973539550687,213.3406904896727L149.54242693436942,240.56177155220496L149.88375936457888,273.17076821872L153.9797485270923,242.48977694553645L154.09352600382877,210.4290275334736L156.14152058508552,225.74809442290785L157.6206277826598,212.83944195923428L158.07573768960575,241.35218369416756L160.12373227086246,211.1488439285177L160.23750974759892,182.702910476234L162.6268367590651,151.76145936713579L163.42327909622048,182.00282454680314L163.76461152642995,184.27910621789198L164.33349891011235,233.88313644352303L164.56105386358533,265.9148415535382L164.7886088170583,288.84965152214346L164.90238629379482,306.114043564728L167.29171330526097,302.19810625343945L168.65704302609876,309.72744275246487L169.2259304097812,286.3073378313696L174.345916862923,224.22510285841167L175.8250240604973,206.51671530915314L181.17256546711207,252.56060237411594L181.627675374058,290.0202850890518L185.2685546296255,273.429656798191L187.31654921088221,273.33778288064343L187.5441041643552,289.96365310730556L189.81965369908485,308.81884838090815L190.16098612929432,311.2318172644131L191.18498341992267,294.85763531086667L191.2987608966592,292.5411607510779L193.80186538486183,317.1273953500974L197.10141221021988,337.6975553457459L199.94584912863198,347.45199532922084L201.1974013727333,349.6154970610853L202.10762118662518,279.3285754576596L203.13161847725354,289.46008446820804L203.58672838419946,295.521068875628L203.70050586093598,300.83598187736567L204.61072567482785,263.12484371246177L206.3173878258751,230.6934155930799L207.45516259323995,233.45670038548096L208.13782745365884,252.2154705285611L208.82049231407774,257.6731337725172L209.50315717449666,270.2924196315665L211.89248418596281,242.60300944628315L212.00626166269933,229.96652695893025L213.25781390680064,239.03767118283687L216.89869316236815,232.10127333087922L217.80891297626002,224.42533014898615L218.37780035994246,215.49379741487357L218.83291026688838,215.1066781131547L218.94668774362486,216.86749319337113L219.85690755751676,230.46462708012407L220.31201746446268,179.57192406641403L222.01867961550994,195.66400467272044L223.61156428982073,245.8826738748644L224.18045167350314,244.17218494763128L224.40800662697612,231.34205044814763L225.2044489641315,239.50367245242384L225.318226440868,243.32570965774354L225.54578139434096,248.14511110231774L225.65955887107745,252.89127077695628L229.41421560338142,240.55060331686167L231.68976513811108,229.5008451360506L233.3964272891584,212.50927555611355L233.62398224263137,212.17163503384268L235.44442187041508,196.16597778423971L237.49241645167183,180.20555504082267L239.88174346313798,177.187100290909L239.99552093987447,182.04415074226873L240.22307589334744,192.23947349982532L242.38484795134062,184.56017394918115L242.95373533502308,184.48638696036048L243.06751281175954,179.8577562939283L243.9777326256514,190.05344106743846L244.2052875791244,192.93869829831834L244.8879524395433,169.11888258117872L245.11550739301626,161.65442203859521L245.5706172999622,163.88580163753196L246.59461459059057,171.01803299555144L247.0497244975365,178.6883014303805L247.6186118812189,175.0033470483362L248.4150542183743,155.33695646346933L249.09771907879323,166.22291248121272L249.55282898573918,167.85686543652136L251.71460104373236,156.16077600325085L252.85237581109718,159.9905845814393L253.30748571804313,157.6265281819274L255.6968127295093,181.42127586079042L257.63102983402956,172.98114302480153L258.31369469444843,203.83747710820495L261.04435413612407,220.8030580556905L261.727018996543,236.11471285559145L262.18212890348894,253.40564510778222L262.5234613336984,276.93322096161194L262.6372388104349,287.6791123916142L263.88879105453617,281.00899299976146L265.3678982521105,276.4045109483044L265.481675728847,266.9996592683855L265.59545320558345,260.2866096262561L265.70923068231997,261.70904893073254L265.8230081590564,267.5860619087693L268.3261126472591,258.2282468953797L268.43989012399555,245.28710549793763L269.1225549844145,253.68367412157852L271.6256594726171,223.15474133025256L271.85321442609006,200.7397127731942L275.3803162049211,202.24050627081485L276.6318684490224,168.09935790081272L277.99719816986027,154.30636493143618L278.2247531233332,166.30276456466422L279.7038603209075,133.6808009716225L279.93141527438047,103.90342922238379L280.3865251813264,115.40594136251974L282.43451976258314,87.08587999988693L283.2309620997385,79.09610970828263L283.68607200668447,69.84026875895773L284.8238467740493,57.601320653064434L286.75806387856954,45.912723978246675L287.66828369246144,47.253361895248865L288.0096161226709,51.49316977656239L288.80605845982626,51.50818627873582L289.2611683667722,68.99732815894147L289.7162782737181,78.95829073737404L291.3091629480289,86.1760075199718L296.9980367848532,90.17842086056258L297.90825659874497,103.534392747103L298.7046989359004,95.63515427275603L300.52513856368415,87.2968350924037L304.0522403425151,99.87276028260727L304.50735024946107,103.65413363754152L305.3037925866165,94.17437281906078L305.5313475400894,100.4249680979331L305.8726799702989,112.39331729969265L306.21401240050835,120.91034717446145L306.32778987724487,125.70153472751399L308.03445202829215,148.60362920895838L308.4895619352381,164.44970673456402L310.0824466095488,85.00078816456265L311.10644390017717,117.08053495646479L312.81310605122445,181.4191262700488L314.29221324879876,225.66041013722523L314.7473231557447,238.07023470010338L315.8850979231095,279.9565260974433L316.1126528765825,302.0607183292416L316.9090952137379,303.99119263619406L317.8193150276297,317.40303322544736L318.5019798880487,302.5359088095177L318.61575736478517,288.59353551303263L319.6397546554135,279.3277557625397L319.98108708562296,285.1404256430082L321.5739717599337,257.24197739801156L322.2566366203527,273.3163203066889L324.30463120160937,260.930970809674L326.3526257828661,136.32745331351518L326.6939582130756,134.29258651048875L328.96950774780527,198.24572673905314L331.5863897127444,226.6818032578449L333.40682934052813,248.3152971973146L334.08949420094706,284.9012478680897L335.45482392178485,299.5293085831853L336.0237113054673,279.29241015202655L336.25126625894023,276.6301756149862L336.82015364262264,291.7907911528343L337.73037345651454,299.40491513240624L338.071705886724,306.0605783677416L338.6405932704064,302.3587132228381L339.09570317735233,286.96263150770403L340.6885878516631,266.0167185025555L344.89835449091305,290.24922070856957L345.353464397859,313.1787256455921L345.9223517815414,321.65925221203094L347.51523645585223,289.74959429992333L349.10812113016294,268.8936180849036L351.9525580485751,224.09663775801647L352.635222908994,232.41091586914877L353.20411029267643,234.79964251092483L354.11433010656833,254.83054837479156L354.68321749025074,246.479252403597L356.162324687825,250.1062882276L358.09654179234525,220.35433216212294L362.07875347812217,215.35763004228502L362.5338633850681,214.93038011538368L362.7614183385411,215.78016410378342L363.1027507687506,215.39675557558624L363.3303057222235,211.4802429937113L363.5578606756965,201.7355898854209L363.78541562916945,197.71748072149663L365.1507453500073,232.49557564910805L367.19873993126396,169.5934590431979L370.1569543264126,156.25500124875398L370.95339666356796,257.27275049342296L371.0671741403044,310.2248662743574L371.29472909377745,326.5786081736678L371.6360615239868,326.3536396786361L372.77383629135176,334.5074217510159L376.0733831167098,252.90907583676466L376.6422705003922,211.06181714425787L377.55249031428406,192.45272145500996L378.00760022123,178.68315670603553L379.6004848955408,138.56132224071024L380.96581461637857,194.8122271793392L382.3311443372164,244.77103897873755L383.3551416278448,280.3902583493484L383.6964740580542,301.9305502330701L385.516913685838,310.0171230430401L386.42713349972985,338.23645855483073L387.6786857438312,275.2713529885841L388.3613506042501,261.3130311420568L388.588905557723,238.77996918234265L389.15779294140543,227.70580897344922L389.4991253716149,240.8992727736656L390.75067761571626,276.92877022762656L390.8644550924527,289.07914505893666L391.54711995287164,243.28483692908344L392.22978481329056,195.14187027631286L392.343562290027,149.0023835440833L393.0262271504459,175.41058777336906L395.1879992084391,236.21607161591066L395.5293316386486,257.72761585778255L395.98444154559456,281.7537848643932L398.2599910803242,291.15180691684327L398.3737685570607,297.7254191230147L399.3977658476891,277.537392683008L400.1942081848444,255.28893151690133L402.35598024283763,233.74167537157345L402.6973126730471,230.4124687580208L403.7213099636755,219.91739220221112L404.51775230083086,216.90599223213817L404.9728622077768,208.80118885999238L406.11063697514163,265.43413245174145L407.4759666959795,198.25501357819462L407.8172991261889,201.47604424356467L408.95507389355373,218.876961611079L409.2964063237632,227.62004642004908L411.00306847481045,239.2201804032071L412.1408432421753,210.2629186324007L412.3683981956483,206.24889140380944L412.70973062585773,202.32881551162154L413.961282869959,205.51146441874022L414.53017025364153,222.71610505129615L414.8715026838509,239.8130354103918L416.0092774512158,253.58662416153604L416.3506098814252,259.741561217297L416.46438735816173,261.1925746937263L419.9914891369927,230.07581417344483L422.49459362519536,181.148779112632L423.29103596235075,136.1322944172983L424.3150332529791,89.96418758121207L424.9976981133981,63.27094179302101L428.18346746201956,10.576765096953988L428.52479989222905,-7.615079059682973L429.5487971828574,-5.330290537422117L431.5967917641142,9.10917829896462L435.12389354294515,5.163011689139911L436.26166831031,18.00987205180964L436.48922326378295,31.712360331667576L436.9443331707289,40.469407587126845L443.65720429818145,75.38494980668553L443.99853672839095,99.22017441378472L445.81897635617463,133.4660178626123L446.61541869333007,142.94746617428936L448.54963579785027,149.28335519546857L448.7771907513233,150.01324931646027L450.7114078558435,155.0832814303668L451.96296009994484,174.29650914192894L453.32828982078263,203.07336663765312L453.89717720446504,219.9556542741743L455.0349519718299,214.46772224863216L455.14872944856637,207.57745651969415L455.6038393555123,201.11767454502223L457.4242789832961,151.98902953323574L458.6758312273974,141.24248581274134L459.92738347149873,145.6626019638561L460.9513807621271,161.0283785332294L462.3167104829649,171.7604172146838L463.4544852503297,177.6629686828458L463.7958176805392,182.69761164985854L464.5922600176946,186.08091626395148L464.81981497116755,175.16580581466758L465.16114740137704,157.32183263979655L467.7780293663161,116.02235987903218L468.11936179652554,96.03003703060537L468.460694226735,88.63247484943088L468.688249180208,102.28512931157711L469.9398014243093,105.84274898143255L470.7362437614647,115.70453039012996L471.4189086218836,117.84201860272181L474.71845544724164,103.94657215282234L475.2873428309241,91.51245191726203L475.40112030766056,83.77700879534117L475.97000769134297,73.44822242035245L477.56289236565374,71.11907564443239L480.8624391910118,71.37116794592893L481.31754909795774,65.7616860237624L481.4313265746942,63.653746557769196L482.00021395837666,60.898592594965265L483.7068761094239,59.88057968908835L484.38954096984287,55.24779242109282L486.8926454580455,57.37923733059478L488.7130850858292,61.440847448205844L489.16819499277517,62.0258943593443L490.533524713613,64.73955948183526L491.2161895740319,62.32679945598822L491.32996705076835,61.636373300905476L492.3539643413967,72.14930534082681L493.2641841552886,73.93451808297202L493.7192940622345,60.331858332903685L493.9468490157075,51.10212339780809L494.288181445917,71.13549526857234L494.74329135286285,70.71034597931136L497.58772827127495,60.09078226268107L499.40816789905875,79.49293129000962L500.887275096633,94.42806942930665L502.4801597709438,53.13408188527983L503.2766021080992,34.62731776297329L504.641931828937,43.92959831957177L504.9832642591465,48.88969871261371L505.2108192126194,56.87899289133325L505.66592911956536,56.71040358440739L507.71392370082214,63.92480653975494L508.85169846818695,80.65320476568625L509.42058585186936,102.91556680896228L510.33080566576126,127.81052857721016L510.55836061923424,145.78318684852206L511.2410254796531,150.96541832583824L513.4027975376464,131.9837156075784L513.5165750143829,120.1007851150688L514.7681272584841,79.89406313198907L515.678347072376,48.312087197859746L515.905902025849,38.91494281573787L516.3610119327949,33.19423653297274L518.4090065140516,55.69687019502111L519.0916713744706,108.8579077768286L520.5707785720449,144.63964230805547L521.2534434324638,169.9454125230869L521.9361082928826,208.90388964324507L523.7565479206664,215.7182666401777L523.9841028741394,219.95078268840555L524.4392127810853,188.76086430213365L525.6907650251867,152.75177366105683L528.5352019435987,143.24372866802213L528.9903118505447,140.13357419709297L529.3316442807542,136.9328675339945L530.469419048119,130.45043044062888L530.9245289550649,122.64853037064834L531.0383064318014,116.38400642843244L531.8347487689567,103.31234098538465L532.5174136293757,87.69805132250765L534.7929631641055,41.295349880299895L535.2480730710514,15.28547476567942L535.3618505477879,1.40678606197771L539.0027298033554,12.010944522905454L539.2302847568283,21.72661291091861L539.7991721405107,30.06955467361362L540.4818370009297,33.98197636524934L541.8471667217674,50.01735989341495L542.0747216752404,62.17637378045177L542.3022766287133,64.21563569777638L543.4400513960782,74.16311730146411L544.0089387797606,70.74448008080454L546.2844883144903,85.13191165006185L546.6258207446998,94.51196955618953L546.8533756981727,76.59834395277446L548.5600378492201,85.98955345180893L548.6738153259565,89.68571356122543L549.8115900933213,83.66859689532362L550.3804774770038,95.14673483314488L553.7938017790983,62.455063538455576L554.4764666395172,41.92017439537531L554.5902441162536,41.23168874682974L556.069351313828,92.61406054789208L559.596453092659,109.52260168264402L561.3031152437062,115.1815892792577L561.4168927204428,119.49110466934302L562.0995575808616,124.14348325001468L562.5546674878076,124.64877621151491L562.7822224412806,127.76351597883095L566.650656650321,105.40758493520772L567.2195440340034,88.11342459829079L570.0639809524156,105.41750941796025L571.6568656267264,121.89333428536644L574.2737475916655,90.30140923591617L574.9564124520844,131.27467075487863L577.914626847233,136.73121119072854L578.3697367541789,139.64228086777243L578.7110691843884,173.70692008145954L579.0524016145978,172.63584540988333L580.759063765645,170.22045322794222L581.1003961958545,152.26198383679187L583.9448331142667,120.15458631401278L584.968830404895,77.47541865567892L585.0826078816315,42.08567350017308L585.6514952653139,52.61396377668259L587.4719348930977,116.11001713248925L587.5857123698341,145.39295166029387L589.4061519976179,114.91491267612182L590.2025943347734,141.11832423460066L590.8852591951921,156.0271793235022L592.478143869503,136.84587967910755L595.3225807879151,118.42794856943482L595.8914681715976,135.42405482680215L596.005245648334,139.08438119573347L596.4603555552799,150.00202800238696L598.1670177063272,172.44653928965099L599.0772375202191,199.8887816166916L599.304792473692,208.5189771517192L599.9874573341109,210.5158513656747L602.831894252523,197.2913964572681L603.742114066415,173.9969558685299L604.7661113570433,185.22232996852995L605.3349987407256,200.26813937119456L605.4487762174622,200.17303759265477L606.0176636011446,181.8838569155805L606.131441077881,180.36141454183016L606.3589960313541,189.78466791084708L606.586550984827,182.2498720946795L609.3172104265027,178.61338046874084L609.7723203334485,202.87757432449808L611.1376500542865,208.20111873188733L611.3652050077594,221.7609934913339L614.2096419261715,214.06462883429566L616.0300815539553,166.90299444335344L617.6229662282659,164.7888309224858L620.1260707164687,189.46042229176416L621.4914004373064,160.40424904891245L624.3358373557186,179.2835252351L625.8149445532929,210.1675918210958L626.4976094137119,214.9903450462015L629.3420463321239,177.0516756260414L632.8691481109548,162.32052235598536L634.6895877387386,163.90524261994182L636.8513597967319,161.39548474271646L638.7855769012522,164.16533727243888L640.0371291453534,148.1205771643721L640.4922390522993,157.20006269455834L642.5402336335561,191.06742839766258L643.1091210172385,209.2153223840909L643.6780084009209,218.71471391349385L643.7917858776574,218.68373001715082L645.7260029821776,187.51914040208655L647.5464426099614,198.24716936986042L654.1455362606775,152.3953420783155L655.8521984117248,185.93720583265224L657.103750655826,182.7903110066907L657.3313056092991,180.77284734583714L658.013970469718,179.85794238042257L660.6308524346572,189.63620678755123L661.541072248549,207.10714727501204L661.6548497252855,212.06343086287745L666.4335037482178,199.57359726370868L667.3437235621097,190.09288910248478L667.4575010388462,171.22488256477223L668.3677208527381,185.02954571219698L668.9366082364204,162.44383406301893L671.3259352478866,134.40740104186224L674.739259549981,161.2958495836799L674.8530370267177,171.10086479966375L676.9010316079743,163.24424197793454L677.9250288986027,170.00813127673808L679.2903586194406,179.42860983203997L679.63169104965,193.8646144366005L680.0868009565959,196.8514300465236L680.541910863542,216.36409375815867L680.7694658170149,219.72794416385645L681.2245757239607,203.1997334382203L681.9072405843797,199.0844092220189L682.5899054447987,185.0775320387772L682.7036829215351,177.33634258603385L684.5241225493188,181.17356385911557L684.7516775027918,182.34936043528867L687.5961144212039,209.5654385868903L687.7098918979403,222.31474837636185L687.9374468514133,229.051002383758L689.5303315257241,183.58087649930607L690.7818837698254,189.5626952266911L691.9196585371903,178.60053561721415L692.0334360139268,189.48562874067227L692.8298783510821,200.89072613578057L693.3987657347645,200.16360931796112L693.512543211501,198.2332685867111L695.2192053625483,168.89106271393428L695.5605377927577,148.779819659168L696.1294251764402,148.03223206354872L697.6085323740144,154.70534203264248L699.0876395715889,189.76192237156766L701.4769665830551,179.56911465442988L702.387186396947,183.977090273202L703.7525161177847,185.68171882885542L705.4591782688319,211.0884106634008L707.0520629431427,177.84439364111674L710.0102773382914,146.85643166343164L713.3098241636494,156.72890275624246L715.2440412681696,166.0083849384034L715.4715962216425,178.99947829339789L715.8129286518521,180.49519158270277L716.2680385587979,175.73623242777114L719.6813628608925,139.05716035742486L720.5915826747844,139.22053951503366L721.9569123956221,166.34171416061693L725.8253466046626,174.30369526201738L726.7355664185545,163.47100390095434L727.9871186626558,181.20579502251468L728.6697835230747,182.9341327718745L731.059110534541,184.51128201273534L733.1071051157977,174.690098956549L733.5622150227435,179.57232308910588L735.8377645574733,146.4274692164546L736.6342068946287,173.72876516962197L743.8021879290271,157.0816373953668L744.0297428825,108.51287771326825L745.395072603338,95.42491302239527L746.3052924172299,110.79629363625928L747.8981770915406,89.69447699169473L748.3532869984865,77.62010679700806L748.694619428696,74.13607571303636L748.8083969054325,70.10821907841056L749.8323941960608,55.649609217455655L750.9701689634257,85.88457159545464L751.0839464401622,116.21808764534624L751.1977239168987,137.9055212573864L751.766611300581,141.97525775680046L751.8803887773176,141.82469242435042L752.5630536377364,121.43344176931475L753.0181635446825,130.01574492243037L755.976377939831,179.98280229991218L756.7728202769864,175.78086206519896L758.0243725210877,189.57259858170136L761.3239193464457,186.01505070299157L761.7790292533917,174.52631308982407L767.9230129971618,186.79852570428315L770.1985625318915,150.8815022407623L772.2465571131482,160.4710476117889L774.294551694405,198.47696830530182L775.3185489850333,213.32491004892506L775.6598814152428,206.775248285901L779.0732057173373,184.55422262522333L779.3007606708103,162.11643071903217L779.5283156242833,131.87264908545484L779.8696480544927,104.92032202886206L780.6660903916481,119.05355269657454L782.1451975892223,125.03052838738866L783.5105273100602,135.73495125121798L785.4447444145804,139.63261892669448L785.8998543215264,149.67193506859866L788.0616263795197,171.9709064660195L790.7922858211952,174.44228359588027L791.0198407746682,179.85306949068888L791.9300605885601,196.84039431157808L794.4331650767626,168.12042128796026L794.8882749837087,167.4918765690094L795.2296074139181,170.02095564994556L797.1638245184383,165.9549112821194L797.2776019951748,165.50266026904606L798.4153767625396,147.06920028907794L798.5291542392762,141.53298926604833L801.4873686344248,174.69581080142507L801.9424785413706,179.0115865093226L802.0562560181071,178.23197497562913L804.3318055528368,152.55418849536946L805.6971352736747,152.75489402089974L807.6313523781948,186.6482592934879L807.8589073316678,201.86428860260466L808.5415721920867,214.02457923662632L808.8829046222961,220.1740236618182L809.3380145292422,238.48678320333113L809.6793469594515,245.09465815541023L814.5717784591204,184.748776082679L815.7095532264854,180.22036648836087L816.1646631334312,178.92026520679246L816.8473279938502,186.4045577199454L817.6437703310055,202.46001214225083L819.8055423889987,190.98916648048618L819.9193198657352,188.4991284876281L820.9433171563635,189.69743689993723L821.3984270633096,188.01610799075667L822.8775342608837,184.60765677394855L824.6979738886675,165.7175815618619L826.4046360397148,152.47372367899135L826.9735234233972,174.43402720563523L828.1112981907621,135.73705567499474L829.1352954813905,116.83989770945239L829.4766279115998,114.38304585677666L830.2730702487553,127.56691471389784L831.7521774463295,113.01016392574783L832.5486197834849,142.5086459351938L832.6623972602214,155.47977811324697L833.0037296904309,171.9693758018509L833.4588395973768,176.2451468315746L834.2552819345323,192.7194146457689L835.3930567018971,208.40421447402983L835.6206116553701,186.38268544959254L839.4890458644105,200.7363316953458L840.3992656783024,207.68231758052127L841.0819305387213,170.67115616986942L842.3334827828227,175.081832615511L842.674815213032,158.67757383090805L843.357480073451,150.49827978290384L844.7228097942888,168.7652493533078L847.2259142824914,187.02494786357698L847.7948016661738,201.98908696476607L848.8187989568022,213.11666504982563L851.2081259682684,179.4949124817607L852.1183457821603,166.2862593443732L852.4596782123697,173.92289614468427L853.1423430727887,186.0672458001524L853.5974529797345,162.18913418863448L854.9627827005723,149.19070856170202L860.1965466304506,184.43392533331848L861.5618763512884,201.91715743535232L861.7894313047615,207.97456167045334L864.1787583162277,175.46756386544627L864.9752006533829,146.39264062619208L865.202755606856,130.50200091135662L866.5680853276938,170.55199756571045L867.3645276648492,188.58142158968218L871.9156267343086,206.26818625629113L873.1671789784099,171.53757680756763L873.6222888853558,162.42870065129537L874.7600636527206,189.98365200383225L875.6702834666125,191.76299106433288L877.8320555246057,194.3598788398476L877.9458330013422,195.39233450270925L878.9698302919705,196.05454217000465L882.2693771173286,159.84775395222573L885.0000365590042,147.53493430203588L885.2275915124773,141.07126021597895L885.6827014194231,142.94968128882073L885.910256372896,126.77605434842636L886.2515888031056,131.28824282840694L886.8204761867879,144.0708487133742L888.1858059076259,157.93626294645526L889.2098031982542,161.6040846104363L890.0062455354096,159.67762602111404L891.3715752562474,180.83257010261457L893.0782374072946,172.5872181268969L893.6471247909772,175.79626617514015L895.0124545118149,160.99544642094193L896.1502292791797,87.4603626275172L900.4737733951662,137.53749381224446L901.9528805927404,101.08359584820349L903.4319877903148,124.44446874249574L904.2284301274701,116.01699807067861L904.3422076042066,106.15600525976996L905.0248724646256,92.28048456656386L908.0968643365106,120.03143862189188L909.5759715340848,148.24668208769114L911.2826336851322,138.82393938250246L912.0790760222875,148.78622417318235L913.4444057431253,147.90062067458737L913.6719606965984,129.9930537101421L913.7857381733348,112.78346354677994L913.8995156500713,95.40700551009749L914.1270706035442,70.03170975371363L914.4684030337536,54.31998862856353L914.8097354639632,65.38462190361916L917.1990624754293,98.76458453713447L917.5403949056388,134.67611010176725L917.9955048125847,159.34924711255283L918.79194714974,179.25431737296051L919.1332795799495,183.91966943095778L919.247057056686,192.03421944765634L920.9537192077332,201.45302382171516L921.4088291146793,205.43160995947966L921.7501615448887,210.30898825343138L922.6603813587806,174.9390617037865L923.3430462191996,90.06068173952524L924.5945984633008,105.30798645285716L925.0497083702468,115.47965474141228L926.301260614348,146.51136001714903L926.8701479980305,174.8380840314614L927.3252579049764,186.42536105007673L930.283472300125,210.98438506196482L930.8523596838074,217.65004221852286L931.4212470674898,223.44393390225218L934.265683985902,150.78309163546766L935.4034587532668,80.55517592532834L936.0861236136857,72.00811880298897L937.337675857787,113.36731679165658L937.5652308112601,136.53976114074516L938.4754506251519,154.82697566608164L942.7989947411382,154.44804905263692L943.4816596015572,139.2669338682791L943.7092145550301,125.37254095667602L944.846989322395,130.0469936813433L946.6674289501788,136.98330480161582L947.3500938105976,128.3984494393878L948.829201008172,145.72087453239934L949.056755961645,154.84451455609306L950.1945307290098,147.40416169412555L950.7634181126923,128.23070590338193L950.9909730661652,118.14500114561017L951.6736379265841,140.92274042297333L953.3803000776313,144.73158475016L953.4940775543678,142.33369783100798L954.9731847519421,151.31107745917012L957.9313991470907,157.84014812058507L958.0451766238272,164.00246296445354L958.2727315773001,174.78850831905788L959.2967288679286,154.64388788767943L959.410506344665,135.71301171604318L962.2549432630772,161.44607807947514L965.2131576582258,152.38317625632095L965.7820450419081,150.21155657173202L965.8958225186445,148.5039587169849L966.1233774721177,149.6207143400119L966.4647099023271,135.52749881913104L967.1473747627459,142.78963926053385L968.5127044835838,171.9947247497619L971.2433639252594,158.78563320698353L971.4709188787323,162.39834139767706L973.0638035530432,169.0418064540332L976.7046828086106,124.39371232952593L978.2975674829215,128.08416764236551L979.8904521572322,126.30328346516961L980.9144494478605,145.62886874436492L981.3695593548065,161.64206082059235L982.7348890756443,159.49078902954525L983.3037764593267,161.65804202001303L983.4175539360632,165.70481909169703L984.7828836569009,170.1823213142098L985.3517710405835,167.84450329042542L985.6931034707928,165.87148305233455L986.8308782381578,184.26933584629887L987.3997656218402,190.66186102534328L989.4477602030969,182.3356167567235L990.6993124471983,192.08393789987323L991.381977307617,177.16008390556368L992.4059745982454,125.53340779343316L994.6815241329753,171.93152630746843L996.6157412374954,188.57872895475262L998.0948484350697,173.4000909094931L998.6637358187521,163.09035725400227L999.118845725698,166.20662986292956L999.8015105861169,157.0471585647011L1000.0290655395899,144.35020106706978L1000.3703979697995,135.33252433835995L1000.7117304000088,130.29404579711445L1001.5081727371643,94.87744865526642L1002.0770601208467,73.79122929837628L1002.5321700277926,57.696097429005235L1002.6459475045291,61.56171326352601L1002.873502458002,59.5862565667343L1003.7837222718939,88.489297017716L1004.1250547021034,114.19245494142501L1004.5801646090492,145.90821656287412L1004.6939420857858,159.3331335183891L1005.6041618996776,160.53188443121766L1006.1730492833601,153.24513046531092L1007.1970465739885,143.95231978682605L1007.8797114344075,146.6017820325333L1008.4485988180897,153.5499235032687L1010.1552609691371,159.34718824899176L1011.2930357365019,120.26274839298331L1011.8619231201843,139.90776203566995L1012.4308105038667,155.24080195813335L1012.7721429340762,168.78375193920212L1013.4548077944951,178.68478858182863L1016.4130221896437,165.3637567730444L1018.4610167709004,165.16833997512788L1019.7125690150017,115.06659212832406L1023.0121158403598,158.16469831214258L1023.8085581775151,191.9972818373317L1024.1498906077247,212.957498153304L1024.3774455611976,226.72619893425505L1025.7427752820354,214.68383028348873L1026.4254401424544,168.54317619656558L1027.790769863292,182.35880330723265L1028.2458797702382,156.3213354353524L1029.2698770608663,125.02693644058029L1029.383654537603,109.04186827722339L1029.611209491076,107.40017949410543L1031.317871642123,130.3692965762018L1031.6592040723326,135.69892109724867L1033.5934211768529,137.10776256321827L1033.7071986535893,141.11345170191993L1034.8449734209541,155.90281552314906L1034.9587508976906,166.15808965947886L1036.7791905254744,147.0662259780212L1036.8929680022109,134.87092269950728L1039.50984996715,147.97217716063983L1039.737404920623,164.85478614127481L1040.1925148275689,158.94351275773917L1040.9889571647243,142.60221651919068L1041.2165121181972,147.8569076410964L1043.264506699454,157.43295910951022L1043.8333940831365,179.92390236378728L1043.947171559873,195.58386363064426L1045.1987238039742,137.119821989115L1045.7676111876565,132.421254777307L1046.2227210946025,137.85203704414172L1046.4502760480755,149.683470218543L1046.6778310015484,159.4277539246578L1047.92938324565,185.5067121858639L1049.0671580130147,198.38800417259736L1049.1809354897512,206.92269399722912L1050.091155303643,220.4225679733839L1050.2049327803795,228.311305700071L1050.4324877338524,230.34946922372262L1052.5942597918458,222.97237933241428L1054.07336698942,217.3692952505262L1054.300921942893,206.98723900736303L1054.528476896366,193.74827278780998L1055.4386967102578,195.02444465754306L1056.4626940008861,194.96187758153604L1056.690248954359,194.83475822628753L1057.2591363380416,200.01477648589142L1060.7862381168725,178.38011436036615L1061.127570547082,170.40426467911433L1065.109782232859,176.41104122655122L1065.337337186332,180.17272749677434L1073.5293155113588,180.93434442474685L1076.9426398134533,144.4544644328263L1080.9248514992303,113.49003570906241L1081.4937388829128,94.17680436235909L1083.883065894379,79.51897659337537L1084.1106208478518,69.17907169664444L1084.4519532780614,68.92473465848957L1084.5657307547979,70.38412443784144L1090.8234919753045,78.98599906892319L1091.7337117891964,82.68445665584372L1092.8714865565612,79.23969198073024L1093.8954838471896,66.9578999221191L1095.4883685215004,80.69884273592172L1097.081253195811,81.47755064290327L1097.991473009703,76.88095069110753L1098.4465829166488,80.27871492961043L1099.2430252538043,79.64116314167347L1099.9256901142232,81.24589902561227L1101.1772423583245,92.1772386833799L1102.2012396489529,99.01852619435337L1103.2252369395812,137.95872066155945L1106.1834513347299,157.6197046618343L1106.6385612416757,155.69208111214527L1107.8901134857772,125.59098384701745L1109.255443206615,131.79543679160915L1110.0518855437704,78.19930265182265L1111.644770218081,30.03071392176964L1111.8723251715542,23.142713742818312L1112.2136576017635,28.00755119486026L1116.7647566712228,73.44584381680123L1116.9923116246957,104.42871134124594L1117.4474215316418,156.33159893552622L1118.926528729216,191.75130582573624L1119.609193589635,226.82639574457227L1120.7469683569998,155.83122649287645L1123.591405275412,146.85549190349462L1124.5016250893038,143.38742902507593L1126.2082872403512,135.76831706968773L1127.2322845309795,159.7036455198622L1127.6873944379254,181.84077358615906L1128.4838367750808,225.98056426760562L1129.6216115424456,232.15217834174115L1131.4420511702294,215.4235835495508L1132.352270984121,156.77166763948267L1133.3762682747497,142.86798417891555L1134.7415979955874,178.84337713706225L1135.9931502396887,227.82503683640127L1136.5620376233712,268.2506423693974L1137.3584799605267,277.7646513004193L1139.9753619254657,269.8427363223206L1140.5442493091482,274.98763254387643L1141.226914169567,179.17877292269995L1142.9335763206143,161.66015108717679L1143.8437961345062,166.28397727972734L1144.8677934251346,191.93209197817603L1145.4366808088168,208.92613215239533L1145.6642357622898,212.98965745512626" fill="none"></path></g></g></g></g><g opacity="0.2"><g><g><g><path style="fill: none;" stroke="rgb(255, 112, 67)" stroke-width="2px" d="M11.189015222804427,182.87756727614143L11.644125129750362,192.99991967494995L11.757902606486848,261.75304291587514L12.326789990169269,270.5258223179235L13.350787280797629,337.782317938675L16.081446722473252,338.0052120534086L16.422779152682708,338.31208453170154L16.991666536365127,293.43859741505656L19.60854850130427,325.3024672060249L20.291213361723173,366.12834517860375L20.518768315196144,392.31091219784895L25.98008719854739,157.69349190115497L26.43519710549333,220.04539212592297L28.369414210013566,260.2836065279553L31.327628605162158,209.87698110921514L32.35162589579052,293.6542775293963L33.03429075620942,380.10038414656975L33.37562318641888,357.8011690316534L33.94451057010129,178.82884828586091L37.016502441986376,291.2923398106969L38.60938711629716,419.7009918984058L42.136488895128174,430.70160260157525L42.47782132533763,280.6957131295839L42.70537627881059,260.3770185843374L45.32225824374973,348.7577721276505L46.11870058090513,340.7894462567028L46.23247805764161,325.6685314824213L46.80136544132403,310.9109063690002L47.48403030174294,369.4286578716129L48.84936002258075,388.37835711134653L50.78357712710098,317.31471902632444L53.5142365687766,148.16638702202488L53.62801404551309,147.409101955038L53.74179152224958,151.69736275326875L53.969346475722546,177.82869187228053L54.08312395245903,198.8292019419319L54.53823385940496,290.1571521076929L57.72400320802653,391.0286698714315L58.065335638235986,350.465455502937L58.6342230219184,358.37495952451934L59.65822031254677,311.1656160752144L59.999552742756215,308.58152413925774L62.16132480074942,213.56777469533847L63.0715446146413,236.479254971888L64.89198424242505,149.59346427942688L65.23331667263449,191.36659599603107L65.80220405631692,208.28527666333775L66.25731396326286,259.515038024455L66.48486891673582,169.77398297097545L66.82620134694528,245.2479649378168L68.41908602125606,257.0437804536332L68.874195928202,334.4955083746082L69.10175088167496,311.4684191173877L69.44308331188442,265.32693270074407L70.69463555598574,226.13012399659536L75.70084453239106,241.90048378069383L78.09017154385722,335.70302105592L78.20394902059371,334.61666658635136L79.00039135774911,146.92742869797067L81.73105079942474,328.30904060094537L82.18616070637067,251.1617804914653L82.41371565984365,232.83710964483103L83.09638052026253,140.9357389349422L83.21015799699902,193.90203967292138L83.43771295047199,114.29702512156183L84.23415528762739,22.586362986187773L85.71326248520167,171.4899901928702L88.10258949666785,107.09153354867314L91.62969127549887,144.22439824269975L91.97102370570832,151.2610082166244L92.1985786591813,148.74572674596305L93.5639083800191,95.26297756953073L96.97723268211364,120.66143823827336L98.68389483316089,131.75305633102698L99.13900474010683,131.06495167807358L100.04922455399871,98.44176210205863L101.86966418178245,128.7263207298775L102.89366147241083,67.4383930760202L103.12121642588379,57.742406597926056L103.57632633282974,78.86296503310611L104.82787857693106,258.72445757103486L107.10342811166073,292.684456912344L107.21720558839722,303.16602953589324L107.4447605418702,324.65061752940994L108.9238677394445,98.18409280593929L109.94786503007285,162.68484027623398L111.99585961132956,236.51828456376253L112.56474699501199,248.21606366396998L113.13363437869441,86.89658685633681L113.81629923911332,91.76418737850567L114.0438541925863,166.01937322752178L114.95407400647815,52.102538084875356L115.52296139016059,72.59103910093131L116.77451363426192,103.10034158717447L117.34340101794433,127.06913535734809L119.27761812246457,81.44946163586069L119.50517307593755,77.30825546104342L119.96028298288347,116.50173462654874L120.18783793635643,119.42137006800469L122.6909424245591,82.18528967603505L124.05627214539692,55.949450038496735L124.62515952907934,79.23716818174177L125.08026943602526,166.39783078664613L125.42160186623472,112.38660983777082L125.87671177318066,52.13213398392712L125.99048924991715,58.90238086638588L128.26603878464684,122.97250800547752L129.1762585985387,20.691670523768035L129.9727009356941,43.15810246832682L133.04469280757917,285.23646394159994L134.75135495862645,292.24865729880685L134.97890991209943,319.87772388420666L135.20646486557237,297.43977799248523L136.23046215620073,274.6311434651405L138.27845673745745,277.27627694289146L139.07489907461283,288.70214372056085L139.75756393503175,283.63181128988737L139.87134141176824,288.90284091100557L140.7815612256601,327.48017045312713L140.8953387023966,326.6100510210054L141.464226086079,326.7929906720191L142.94333328365332,328.18621761988055L143.0571107603898,318.7149750002107L143.51222066733573,269.1163176255835L144.30866300449114,90.95566441128544L144.99132786491003,218.99214806841852L146.0153251555384,168.63676054991163L147.26687739963972,243.13666748921193L147.3806548763762,221.7438267827557L148.29087469026808,170.02295847174835L148.973539550687,232.7300094851375L149.54242693436942,268.78077412008423L149.88375936457888,306.9752067182236L153.9797485270923,210.68402428148275L154.09352600382877,177.19293496577495L156.14152058508552,241.62875643252485L157.6206277826598,199.45755987367457L158.07573768960575,270.9101990568582L160.12373227086246,179.83825341789492L160.23750974759892,153.21415257967135L162.6268367590651,119.6856984414107L163.42327909622048,213.35283447847505L163.76461152642995,186.63883609688176L164.33349891011235,285.3056443556334L164.56105386358533,299.1208250586251L164.7886088170583,312.6252488215733L164.90238629379482,324.011346109892L167.29171330526097,298.13861115884487L168.65704302609876,317.5328038074621L169.2259304097812,262.02865472579464L174.345916862923,159.86694073776846L175.8250240604973,188.15914043629675L181.17256546711207,300.29245271233657L181.627675374058,328.8532351947596L185.2685546296255,256.2308181015552L187.31654921088221,273.2425408765058L187.5441041643552,307.1990257048025L189.81965369908485,328.36527280914373L190.16098612929432,313.7332452923235L191.18498341992267,277.8831778478215L191.2987608966592,290.139764517L193.80186538486183,342.61495830508903L197.10141221021988,359.02181489316933L199.94584912863198,357.5640318905012L201.1974013727333,351.85831250206036L202.10762118662518,206.46494389728554L203.13161847725354,299.9630133610167L203.58672838419946,301.8042482307742L203.70050586093598,306.34573894026653L204.61072567482785,224.0312198307185L206.3173878258751,197.0730552819482L207.45516259323995,236.32128686069927L208.13782745365884,271.6619348927729L208.82049231407774,263.33087428407197L209.50315717449666,283.37432696813715L211.89248418596281,213.89850886724184L212.00626166269933,216.86679256776412L213.25781390680064,248.44136244550148L216.89869316236815,224.9105879812939L217.80891297626002,216.46798782804166L218.37780035994246,206.2348357821581L218.83291026688838,214.7053670651404L218.94668774362486,218.69285953925763L219.85690755751676,244.56023023360154L220.31201746446268,126.81350077928855L222.01867961550994,212.34601898760806L223.61156428982073,297.94235335325794L224.18045167350314,242.39898970534688L224.40800662697612,218.04156478574984L225.2044489641315,247.96449852203003L225.318226440868,247.28786227995923L225.54578139434096,253.1411912149207L225.65955887107745,257.8114240852882L229.41421560338142,227.75752849570392L231.68976513811108,218.0460041706076L233.3964272891584,194.8947971117388L233.62398224263137,211.82161665128467L235.44442187041508,179.57355509575078L237.49241645167183,163.6600251499894L239.88174346313798,174.05798935871746L239.99552093987447,187.07926006964576L240.22307589334744,202.80855554380986L242.38484795134062,176.59935221541812L242.95373533502308,184.40989494954619L243.06751281175954,175.05944059288132L243.9777326256514,200.62289839883752L244.2052875791244,195.92972870670494L244.8879524395433,144.4258353306208L245.11550739301626,153.9163152846743L245.5706172999622,166.19898333989212L246.59461459059057,178.4117310836002L247.0497244975365,186.6397609687271L247.6186118812189,171.18330268894638L248.4150542183743,134.94959840298597L249.09771907879323,177.5079463163071L249.55282898573918,169.55071890750375L251.71460104373236,144.03590936061386L252.85237581109718,163.96079347410293L253.30748571804313,155.17580576369568L255.6968127295093,206.08833608185188L257.63102983402956,164.2315959504265L258.31369469444843,235.8250006284751L261.04435413612407,238.39059512752442L261.727018996543,251.98769104937844L262.18212890348894,271.3304608233932L262.5234613336984,301.32331487118313L262.6372388104349,298.81894688829715L263.88879105453617,274.09434784608925L265.3678982521105,271.6312291475067L265.481675728847,257.2500268751501L265.59545320558345,253.3274604045777L265.70923068231997,263.1836346862895L265.8230081590564,273.678525464412L268.3261126472591,248.52737552712065L268.43989012399555,231.8715434382674L269.1225549844145,262.3880599249044L271.6256594726171,191.5066215934197L271.85321442609006,177.5029520083421L275.3803162049211,203.7963186746623L276.6318684490224,132.70659920360083L277.99719816986027,140.00772252530052L278.2247531233332,178.73895074249117L279.7038603209075,99.86292017965025L279.93141527438047,73.03442266360047L280.3865251813264,127.33013419211082L282.43451976258314,57.72760864840018L283.2309620997385,70.81343541413507L283.68607200668447,60.24510981149037L284.8238467740493,44.913694205203306L286.75806387856954,33.795624777672145L287.66828369246144,48.64314743446299L288.0096161226709,55.88840849670249L288.80605845982626,51.52375328404443L289.2611683667722,87.12761984330957L289.7162782737181,89.2844209867065L291.3091629480289,93.65832491781819L296.9980367848532,94.32756218512607L297.90825659874497,117.3799929309097L298.7046989359004,87.44633068122323L300.52513856368415,78.65283414983864L304.0522403425151,112.90971735351064L304.50735024946107,107.57413167758585L305.3037925866165,84.34708512739692L305.5313475400894,106.90470943590893L305.8726799702989,124.80042472066175L306.21401240050835,129.73961032366205L306.32778987724487,130.66836663078004L308.03445202829215,172.345311675466L308.4895619352381,180.8766995258735L310.0824466095488,2.6392819484099506L311.10644390017717,150.33632134562603L312.81310605122445,248.11636247903937L314.29221324879876,271.52357406470594L314.7473231557447,250.93500191498117L315.8850979231095,323.3783638189225L316.1126528765825,324.9752475471339L316.9090952137379,305.9924378953362L317.8193150276297,331.30655025178123L318.5019798880487,287.1237574292567L318.61575736478517,274.1400365152504L319.6397546554135,269.7222936586682L319.98108708562296,291.1661872909888L321.5739717599337,228.32077544953268L322.2566366203527,289.9799466621205L324.30463120160937,248.0915759135835L326.3526257828661,7.155986092446415L326.6939582130756,132.18312173912284L328.96950774780527,264.54338127334876L331.5863897127444,256.16034286693815L333.40682934052813,270.7418723810013L334.08949420094706,322.828435019667L335.45482392178485,314.6936322165531L336.0237113054673,258.31362949732267L336.25126625894023,273.87034388514127L336.82015364262264,307.50719300367894L337.73037345651454,307.2981719666259L338.071705886724,312.9602374039654L338.6405932704064,298.5211381540889L339.09570317735233,271.0021313182877L340.6885878516631,244.3029308862203L344.89835449091305,315.37008348425485L345.353464397859,336.94882343162993L345.9223517815414,330.45067384607825L347.51523645585223,256.6701322281047L349.10812113016294,247.2730643304333L351.9525580485751,177.6574056065185L352.635222908994,241.029994399834L353.20411029267643,237.27593957948756L354.11433010656833,275.5957847998588L354.68321749025074,237.8217989426234L356.162324687825,253.86629074168877L358.09654179234525,189.51167302296213L362.07875347812217,210.17774943332861L362.5338633850681,214.4874672583718L362.7614183385411,216.66110106935437L363.1027507687506,214.99929133759818L363.3303057222235,207.42015153918103L363.5578606756965,191.6336989849732L363.78541562916945,193.55206816663434L365.1507453500073,268.548631286897L367.19873993126396,104.385358529128L370.1569543264126,142.4275572215199L370.95339666356796,361.9937980810731L371.0671741403044,365.1182001490934L371.29472909377745,343.5318762525863L371.6360615239868,326.1204238660679L372.77383629135176,342.96012047778015L376.0733831167098,168.31934453258154L376.6422705003922,167.68044306180172L377.55249031428406,173.16141859181826L378.00760022123,164.4088013959989L379.6004848955408,96.96862622675738L380.96581461637857,253.1252834191804L382.3311443372164,296.56133471375523L383.3551416278448,317.3152739494316L383.6964740580542,324.2605065850339L385.516913685838,318.40014862404763L386.42713349972985,367.4903114580918L387.6786857438312,209.99795434658918L388.3613506042501,246.84299892233744L388.588905557723,215.42084792471664L389.15779294140543,216.22567140455538L389.4991253716149,254.57640734456191L390.75067761571626,314.2791046554594L390.8644550924527,301.67495114679184L391.54711995287164,195.8117150592361L392.22978481329056,145.23398834910287L392.343562290027,101.17142886647613L393.0262271504459,202.78691354262827L395.1879992084391,299.2506770657147L395.5293316386486,280.02777068285957L395.98444154559456,306.66075029079866L398.2599910803242,300.8943593093017L398.3737685570607,304.5400191493711L399.3977658476891,256.60927566067954L400.1942081848444,232.22484448319776L402.35598024283763,211.404499449024L402.6973126730471,226.96121383684257L403.7213099636755,209.03756742235964L404.51775230083086,213.7841947071544L404.9728622077768,200.3992643866277L406.11063697514163,324.1432328350413L407.4759666959795,128.61311641600452L407.8172991261889,204.81515749951905L408.95507389355373,236.91579448290148L409.2964063237632,236.68365164971425L411.00306847481045,251.2455738806556L412.1408432421753,180.24408718364216L412.3683981956483,202.08771042753048L412.70973062585773,198.26503011625775L413.961282869959,208.81078884587552L414.53017025364153,240.55146570704088L414.8715026838509,257.536737147214L416.0092774512158,267.8651509931704L416.3506098814252,266.12213751339095L416.46438735816173,262.6967821468881L419.9914891369927,197.8183170149453L422.49459362519536,130.4280849253536L423.29103596235075,89.46551089402942L424.3150332529791,42.10356359023884L424.9976981133981,35.59912487613867L428.18346746201956,-44.0491736775841L429.5487971828574,-2.9617419471353466L431.5967917641142,24.0779962983964L435.12389354294515,1.0721790936193463L436.26166831031,31.327696745493643L436.48922326378295,45.91718015742698L436.9443331707289,49.54748712486327L443.65720429818145,111.58049153734856L443.99853672839095,123.92919544232562L445.81897635617463,168.96730974744597L446.61541869333007,152.77650322244347L448.54963579785027,155.85151713392116L448.7771907513233,150.76990126673425L450.7114078558435,160.33918030201306L451.96296009994484,194.21409143354836L453.32828982078263,232.90518021265004L453.89717720446504,237.45684451244142L455.0349519718299,208.77860330565673L455.14872944856637,200.4345944911207L455.6038393555123,194.42107775254155L457.4242789832961,101.05933439881758L458.6758312273974,130.10197511267702L459.92738347149873,150.2447590329346L460.9513807621271,176.9574625939444L462.3167104829649,182.8858911227497L463.4544852503297,183.78190696654173L463.7958176805392,187.91682401281048L464.5922600176946,189.58825241175853L464.81981497116755,163.8505487501351L465.16114740137704,138.82370158886113L467.7780293663161,73.20885349363678L468.11936179652554,75.30479806960847L468.460694226735,80.96371894267374L468.688249180208,116.43828841795653L469.9398014243093,109.53079055364525L470.7362437614647,125.92784350016468L471.4189086218836,120.05786687198658L474.71845544724164,89.5417203340877L475.2873428309241,78.62249835331056L475.40112030766056,75.75798527383851L475.97000769134297,62.74078399902988L477.56289236565374,68.70454263232823L480.8624391910118,71.6325019203925L481.31754909795774,59.946561179805755L481.4313265746942,61.46853028854241L482.00021395837666,58.04243502456324L483.7068761094239,58.82524655448224L484.38954096984287,50.445167737976895L486.8926454580455,59.58882075001761L488.7130850858292,65.65135569640124L489.16819499277517,62.63238901875281L490.533524713613,67.55270723610764L491.2161895740319,59.82558794243168L491.32996705076835,60.92063620734672L492.3539643413967,83.04764018465566L493.2641841552886,75.78517650609231L493.7192940622345,46.23052673863747L493.9468490157075,41.53402750786156L494.288181445917,91.90328810404895L494.74329135286285,70.26961076905901L497.58772827127495,49.081906637905306L499.40816789905875,99.6063607297453L500.887275096633,109.91072790772219L502.4801597709438,10.326261803996948L503.2766021080992,15.44209792946242L504.641931828937,53.57289934464055L504.9832642591465,54.031635779942796L505.2108192126194,65.16117361835646L505.66592911956536,56.53563381409062L507.71392370082214,71.4036886258486L508.85169846818695,97.9948640263771L509.42058585186936,125.99406432429298L510.33080566576126,153.61813660172785L510.55836061923424,164.41472057580924L511.2410254796531,156.33762977584627L513.4027975376464,112.30614598722384L513.5165750143829,107.78222784279352L514.7681272584841,38.21336763425428L515.678347072376,15.572319885290138L515.905902025849,29.173300268894735L516.3610119327949,27.26380985694912L518.4090065140516,79.02444765730726L519.0916713744706,163.9678225001277L520.5707785720449,181.73313085468376L521.2534434324638,196.17888918184693L521.9361082928826,249.29057977391787L523.7565479206664,222.78245786510337L523.9841028741394,224.33846225774954L524.4392127810853,156.427527319216L525.6907650251867,115.422594157374L528.5352019435987,133.3871199074222L528.9903118505447,136.90940184331959L529.3316442807542,133.61482335575167L530.469419048119,123.73034799557165L530.9245289550649,114.56061359749154L531.0383064318014,109.88982580401685L531.8347487689567,89.76146988454701L532.5174136293757,71.51134370864936L534.7929631641055,-6.808468926387625L535.3618505477879,-12.980693673631789L539.0027298033554,23.00385013718665L539.2302847568283,31.7984565147857L539.7991721405107,38.71834766182489L540.4818370009297,38.037826958003556L541.8471667217674,66.64059862220624L542.0747216752404,74.78113563076144L542.3022766287133,66.3296567077937L543.4400513960782,84.47527236516483L544.0089387797606,67.2005160373917L546.2844883144903,100.04678470250929L546.6258207446998,104.23589923891662L546.8533756981727,58.028007023775515L548.5600378492201,95.7250435434763L548.6738153259565,93.51737444858422L549.8115900933213,77.43089346773917L550.3804774770038,107.04565990514288L553.7938017790983,28.564919569012048L554.4764666395172,20.63247872566451L554.5902441162536,40.51796329854088L556.069351313828,145.8801038202766L559.596453092659,127.05100786917892L561.3031152437062,121.04803466963698L561.4168927204428,123.95860636700829L562.0995575808616,128.96641746093488L562.5546674878076,125.17259315123763L562.7822224412806,130.9924417253968L566.650656650321,82.23208819141063L567.2195440340034,70.1852624567615L570.0639809524156,123.3559598725669L571.6568656267264,138.97316087907248L574.2737475916655,57.55132807467315L574.9564124520844,173.7500070342101L577.914626847233,142.3877877321691L578.3697367541789,142.66007000344527L578.7110691843884,209.0203648060358L579.0524016145978,171.52550527173233L580.759063765645,167.71651306377106L581.1003961958545,133.64515915227972L583.9448331142667,86.87013552155932L584.968830404895,33.231637926367064L585.0826078816315,5.3985446118791645L585.6514952653139,63.52821988817572L587.4719348930977,181.93382804512845L587.5857123698341,175.74939498952543L589.4061519976179,83.31955250719369L590.2025943347734,168.28234965876686L590.8852591951921,171.48259121810727L592.478143869503,116.96139593369635L595.3225807879151,99.33481835594543L595.8914681715976,153.0432362626474L596.005245648334,142.8788946820592L596.4603555552799,161.3199144068407L598.1670177063272,195.71386361799617L599.0772375202191,228.33705319401116L599.304792473692,217.465554600455L599.9874573341109,212.58593074429635L602.831894252523,183.58213464794235L603.742114066415,149.84854393437922L604.7661113570433,196.85922491129924L605.3349987407256,215.8655263079693L605.4487762174622,200.07444939453464L606.0176636011446,162.92419710981508L606.131441077881,178.78315961669975L606.3589960313541,199.55337659685463L606.586550984827,174.43885158463976L609.3172104265027,174.84357550417258L609.7723203334485,228.03129056193274L611.1376500542865,213.71982362671685L611.3652050077594,235.8179716024503L614.2096419261715,206.08611638942304L616.0300815539553,118.01242029877194L617.6229662282659,162.59716242529313L620.1260707164687,215.03647118578195L621.4914004373064,130.28288004563092L624.3358373557186,198.8549133792331L625.8149445532929,242.18386451411442L626.4976094137119,219.9898998152009L629.3420463321239,137.72217922102848L632.8691481109548,147.04932680719008L634.6895877387386,165.54805853512252L636.8513597967319,158.79371944840406L638.7855769012522,167.03673225742597L640.0371291453534,131.48761811140653L640.4922390522993,166.61240105477137L642.5402336335561,226.17636758886377L643.1091210172385,228.02851594639657L643.6780084009209,228.56235197554267L643.7917858776574,218.65161025495422L645.7260029821776,155.2120607400341L647.5464426099614,209.3684865686321L654.1455362606775,104.86259240133758L655.8521984117248,220.7087102134205L657.103750655826,179.52805140095867L657.3313056092991,178.68142371370934L658.013970469718,178.90949711077693L660.6308524346572,199.77294117294483L661.541072248549,225.2185703058012L661.6548497252855,217.20141120141804L666.4335037482178,186.6258878910466L667.3437235621097,180.2646193386093L667.4575010388462,151.66517721304996L668.3677208527381,199.34028612368192L668.9366082364204,139.03013298474713L671.3259352478866,105.34315581219052L674.739259549981,189.17002536328337L674.8530370267177,181.2653306752969L676.9010316079743,155.0995963236374L677.9250288986027,177.01998393069124L679.2903586194406,189.19444198000105L679.63169104965,208.8298412058901L680.0868009565959,199.9477419517193L680.541910863542,236.59208933702286L680.7694658170149,223.21511291436624L681.2245757239607,186.065600527123L681.9072405843797,194.81821772294236L682.5899054447987,170.55716444963258L682.7036829215351,169.31136207392265L684.5241225493188,185.1514571951618L684.7516775027918,183.56826157026182L687.5961144212039,237.7792548377365L687.7098918979403,235.53144630475546L687.9374468514133,236.0342066398972L689.5303315257241,136.4438213563616L690.7818837698254,195.763806697646L691.9196585371903,167.2365045760253L692.0334360139268,200.76976804788188L692.8298783510821,212.71393300769523L693.3987657347645,199.4098364864536L693.512543211501,196.2321618001401L695.2192053625483,138.47317515946685L695.5605377927577,127.93130089159963L696.1294251764402,147.2572379980287L697.6085323740144,161.62308739775216L699.0876395715889,226.10367266181785L701.4769665830551,169.002639851939L702.387186396947,188.5466617395057L703.7525161177847,187.44883885905455L705.4591782688319,237.42650871591334L707.0520629431427,143.38165501720096L710.0102773382914,114.73245478636083L713.3098241636494,166.96329743290377L715.2440412681696,175.62805180341326L715.4715962216425,192.46682354328016L715.8129286518521,182.04573753841797L716.2680385587979,170.80281041176218L719.6813628608925,101.0334379871473L720.5915826747844,139.38990813259505L721.9569123956221,194.45714775451094L725.8253466046626,182.5575616176443L726.7355664185545,152.2411873983448L727.9871186626558,199.59074141940746L728.6697835230747,184.72583117192372L731.059110534541,186.14624935203906L733.1071051157977,164.50887252966768L733.5622150227435,184.63352896175604L735.8377645574733,112.06752905111907L736.6342068946287,202.03092329622493L743.8021879290271,139.82422795117964L744.0297428825,58.163593236306376L745.395072603338,81.85714514529867L746.3052924172299,126.73118718505081L747.8981770915406,67.81907032757346L748.3532869984865,65.10309166646739L748.694619428696,70.52432047527324L748.8083969054325,65.93270171176201L749.8323941960608,40.6609484858347L750.9701689634257,117.22794399953128L751.0839464401622,147.66362668688313L751.1977239168987,160.38801353544847L751.766611300581,146.19419029896335L751.8803887773176,141.66860738521137L752.5630536377364,100.29465035706775L753.0181635446825,138.91267426038547L755.976377939831,231.7816458948977L756.7728202769864,171.42487921495635L758.0243725210877,203.86993847355356L761.3239193464457,182.32708355377872L761.7790292533917,162.61639975967677L767.9230129971618,199.5206361335286L770.1985625318915,113.64776508611388L772.2465571131482,170.412144544279L774.294551694405,237.876181407131L775.3185489850333,228.71717552245718L775.6598814152428,199.9854767230103L779.0732057173373,161.51857687922566L779.3007606708103,138.85607210344898L779.5283156242833,100.52013411296836L779.8696480544927,76.97992595593799L780.6660903916481,133.70490587349045L782.1451975892223,131.22661927664385L783.5105273100602,146.83179694915967L785.4447444145804,143.67317462286078L785.8998543215264,160.0792913134648L788.0616263795197,195.0873554299443L790.7922858211952,177.00426110932L791.0198407746682,185.4622141352053L791.9300605885601,214.45047238455714L794.4331650767626,138.34757756286592L794.8882749837087,166.84028947746992L795.2296074139181,172.64275046093618L797.1638245184383,161.73980622463753L797.2776019951748,165.03382978909823L798.4153767625396,127.95997191880605L798.5291542392762,135.79382142343735L801.4873686344248,209.07437732180523L801.9424785413706,183.48557802728598L802.0562560181071,177.42378297837865L804.3318055528368,125.93505750055854L805.6971352736747,152.96295738646955L807.6313523781948,221.78415119521375L807.8589073316678,217.63813568680058L808.5415721920867,226.6306646393082L808.8829046222961,226.5489059681778L809.3380145292422,257.4708862718239L809.6793469594515,251.94477699575336L814.5717784591204,122.19062134740389L815.7095532264854,175.5259459516847L816.1646631334312,177.57250237111373L816.8473279938502,194.16322348205316L817.6437703310055,219.10405756170795L819.8055423889987,179.09780101849375L819.9193198657352,185.91780600623326L820.9433171563635,190.93967515220945L821.3984270633096,186.27314176922346L822.8775342608837,181.07425215204398L824.6979738886675,146.13499850085984L826.4046360397148,138.74434758452858L826.9735234233972,197.19939277602538L828.1112981907621,95.62145789679514L829.1352954813905,97.24997224211813L829.4766279115998,111.83612611540815L830.2730702487553,141.23410259225773L831.7521774463295,97.91976443253323L832.5486197834849,173.0885386904033L832.6623972602214,168.92643041188072L833.0037296904309,189.06348012669707L833.4588395973768,180.67766710475044L834.2552819345323,209.7976271048826L835.3930567018971,224.6640171473189L835.6206116553701,163.55384986214125L839.4890458644105,215.61618085845828L840.3992656783024,214.88294245945093L841.0819305387213,132.30317010465157L842.3334827828227,179.6542039206668L842.674815213032,141.6719369238547L843.357480073451,142.01913381460565L844.7228097942888,187.7018837959471L847.2259142824914,205.95404468990458L847.7948016661738,217.50180957679342L848.8187989568022,224.65217878769823L851.2081259682684,144.64059057311513L852.1183457821603,152.5933785970607L852.4596782123697,181.839491116901L853.1423430727887,198.6568058299554L853.5974529797345,137.43565392333363L854.9627827005723,135.71576223968836L860.1965466304506,220.96915412507596L861.5618763512884,220.04132268980334L861.7894313047615,214.2540296046011L864.1787583162277,141.7688634932492L864.9752006533829,116.25183425393045L865.202755606856,114.02881228640524L866.5680853276938,212.07022220331947L867.3645276648492,207.27180209518406L871.9156267343086,224.6033455542628L873.1671789784099,135.53374746052003L873.6222888853558,152.98589420823464L874.7600636527206,218.54876450574938L875.6702834666125,193.60756047735637L877.8320555246057,197.05196820387383L877.9458330013422,196.46263986400567L878.9698302919705,196.7410262894613L882.2693771173286,122.31362930283778L885.0000365590042,134.7707281880919L885.2275915124773,134.37062862778595L885.6827014194231,144.89696504865097L885.910256372896,110.00950422080741L886.2515888031056,135.9658475866757L886.8204761867879,157.3220633680554L888.1858059076259,172.309981570973L889.2098031982542,165.40636816841226L890.0062455354096,157.6805436953198L891.3715752562474,202.7630518490178L893.0782374072946,164.03959255532823L893.6471247909772,179.12295753268774L895.0124545118149,145.65203042320897L896.1502292791797,11.229491648182774L900.4737733951662,189.45044650679878L901.9528805927404,63.29330243945237L903.4319877903148,148.66174838240372L904.2284301274701,107.28057735386624L904.3422076042066,95.93350965742212L905.0248724646256,77.89628898032807L908.0968643365106,148.79973926173253L909.5759715340848,177.49629293105545L911.2826336851322,129.05576008119738L912.0790760222875,159.11372510690123L913.4444057431253,146.98255105995455L913.6719606965984,111.42899752907736L913.7857381733348,94.94297191103358L913.8995156500713,77.39352864518632L914.1270706035442,43.72615875575149L914.4684030337536,38.032277726931355L914.8097354639632,76.85488328244432L917.1990624754293,133.36825252177667L917.5403949056388,171.90414780522576L917.9955048125847,184.9268983111066L918.79194714974,199.88910507672298L919.1332795799495,188.75605272529694L919.247057056686,200.44624787637235L920.9537192077332,211.21712041315257L921.4088291146793,209.55605057887263L921.7501615448887,215.36517063962555L922.6603813587806,138.2724779690221L923.3430462191996,2.0706707378780234L924.5945984633008,121.11425549376527L925.0497083702468,126.02421514645195L926.301260614348,178.68068381623303L926.8701479980305,204.20326228662398L927.3252579049764,198.43742622823424L930.283472300125,236.4437398930259L930.8523596838074,224.56006155189962L931.4212470674898,229.45022894709547L934.265683985902,75.45851177030853L935.4034587532668,7.752713407077455L936.0861236136857,63.147727610991566L937.337675857787,156.24273792451157L937.5652308112601,160.56170446800846L938.4754506251519,173.78459724122683L942.7989947411382,154.0552310358485L943.4816596015572,123.52928085638875L943.7092145550301,110.96878129882255L944.846989322395,134.89281127168042L946.6674289501788,144.1739002399427L947.3500938105976,119.49887432864648L948.829201008172,163.6783376125277L949.056755961645,164.30262610815075L950.1945307290098,139.69104640544668L950.7634181126923,108.35435356633783L950.9909730661652,107.68955568388773L951.6736379265841,164.53550883881422L953.3803000776313,148.68006084494198L953.4940775543678,139.84790467042103L954.9731847519421,160.61756672746867L957.9313991470907,164.60857371459826L958.0451766238272,170.39068751746646L958.2727315773001,185.96996877831202L959.2967288679286,133.76076813295063L959.410506344665,116.0881319373004L962.2549432630772,188.12251551122023L965.2131576582258,142.98802955981256L965.7820450419081,147.96032557487703L965.8958225186445,146.73376053355074L966.1233774721177,150.77841008771162L966.4647099023271,120.91762773944015L967.1473747627459,150.3180088830877L968.5127044835838,202.27046510417506L971.2433639252594,145.0922979823926L971.4709188787323,166.1434910291701L973.0638035530432,175.92882012752673L976.7046828086106,78.10882453039348L978.2975674829215,131.9099145960013L979.8904521572322,124.45711229166135L980.9144494478605,165.66292761831716L981.3695593548065,178.24229456152887L982.7348890756443,157.260651877523L983.3037764593267,163.90474624027362L983.4175539360632,169.8999505163145L984.7828836569009,174.82396822105076L985.3517710405835,165.42098114356904L985.6931034707928,163.82613213341742L986.8308782381578,203.34165167547968L987.3997656218402,197.28873539628788L989.4477602030969,173.70413339067986L990.6993124471983,202.18963130488999L991.381977307617,161.6891232475114L992.4059745982454,72.01410404379111L994.6815241329753,220.03059417639707L996.6157412374954,205.83621601680477L998.0948484350697,157.66500584831763L998.6637358187521,152.40267002254595L999.118845725698,169.43714464489264L999.8015105861169,147.5519021679628L1000.0290655395899,131.1877746591384L1000.3703979697995,125.98426068273209L1000.7117304000088,125.07085724824718L1001.5081727371643,58.162483390091964L1002.0770601208467,51.93199171658963L1002.5321700277926,41.010919992121735L1002.6459475045291,65.56904210216351L1002.873502458002,57.538379868837985L1003.7837222718939,118.45191939969052L1004.1250547021034,140.83788749370234L1004.5801646090492,178.78667412971214L1004.6939420857858,173.25020628897354L1005.6041618996776,161.77458140602334L1006.1730492833601,145.69124498945257L1007.1970465739885,134.31883580444537L1007.8797114344075,149.3483732404045L1008.4485988180897,160.7527829912614L1010.1552609691371,165.3569800118696L1011.2930357365019,79.7454777479557L1011.8619231201843,160.27295947788477L1012.4308105038667,171.13594925046357L1012.7721429340762,182.8231848116338L1013.4548077944951,188.94879601787144L1016.4130221896437,151.5543775659749L1018.4610167709004,164.96575922127917L1019.7125690150017,63.128120327869745L1023.0121158403598,202.84277580208848L1023.8085581775151,227.07016374022683L1024.1498906077247,234.68611343808962L1024.3774455611976,240.99965860330593L1025.7427752820354,202.1999898695581L1026.4254401424544,120.71101136918506L1027.790769863292,196.6809096195124L1028.2458797702382,129.32933717305707L1029.2698770608663,92.5852886028229L1029.383654537603,92.47078946836642L1029.611209491076,105.69830660081159L1031.317871642123,154.18045868371124L1031.6592040723326,141.22392900195868L1033.5934211768529,138.5682519851706L1033.7071986535893,145.2659889149526L1034.8449734209541,171.23435561481065L1034.9587508976906,176.78932089245657L1036.7791905254744,127.27445690701967L1036.8929680022109,122.22854109306397L1039.50984996715,161.55372200934963L1039.737404920623,182.35630950409234L1040.1925148275689,152.81553281431798L1040.9889571647243,125.661850357437L1041.2165121181972,153.30423509741016L1043.264506699454,167.3600674545664L1043.8333940831365,203.23936084938202L1043.947171559873,211.81791716390325L1045.1987238039742,76.51249572528926L1045.7676111876565,127.55043866567733L1046.2227210946025,143.48191112523878L1046.4502760480755,161.9486422873215L1046.6778310015484,169.52926188069125L1047.92938324565,212.5417218700878L1049.0671580130147,211.7415227494759L1049.1809354897512,215.7702645078965L1050.091155303643,234.41734567982581L1050.2049327803795,236.48924358781798L1050.4324877338524,232.46235157308814L1052.5942597918458,215.3248462271675L1054.07336698942,211.56080279089107L1054.300921942893,196.2245778510081L1054.528476896366,180.0239676844447L1055.4386967102578,196.34740083207288L1056.4626940008861,194.89701680416766L1056.690248954359,194.70297869100958L1057.2591363380416,205.38469358189639L1060.7862381168725,155.9523281650662L1061.127570547082,162.13602132319292L1065.109782232859,182.63802546819124L1065.337337186332,184.07231672598706L1073.5293155113588,181.7238821362301L1076.9426398134533,106.63723649822863L1080.9248514992303,81.39045481212625L1081.4937388829128,74.1555523145549L1083.883065894379,64.32379464956078L1084.1106208478518,58.460107149931176L1084.4519532780614,68.66107365559594L1084.5657307547979,71.89701526816756L1090.8234919753045,87.90321737283476L1091.7337117891964,86.51849924595058L1092.8714865565612,75.66864265357601L1093.8954838471896,54.22585886746994L1095.4883685215004,94.94352683414083L1097.081253195811,82.28480588659659L1097.991473009703,72.11583994678152L1098.4465829166488,83.801040789892L1099.2430252538043,78.98023878309871L1099.9256901142232,82.90946433095777L1101.1772423583245,103.50931991719594L1102.2012396489529,106.11061446947643L1103.2252369395812,178.32645789945727L1106.1834513347299,178.00145793299518L1106.6385612416757,153.6937911186789L1107.8901134857772,94.38638403449146L1109.255443206615,138.2273442229682L1110.0518855437704,22.638340783897434L1111.644770218081,-19.90372938494522L1111.8723251715542,16.00220031901693L1112.2136576017635,33.05073299341319L1116.7647566712228,120.54989869372207L1116.9923116246957,136.54740700304274L1117.4474215316418,210.13724004650152L1118.926528729216,228.4694948422678L1119.609193589635,263.187334173671L1120.7469683569998,82.23338301199414L1123.591405275412,137.55070798089736L1124.5016250893038,139.79222738532988L1126.2082872403512,127.86988940106724L1127.2322845309795,184.51644018613254L1127.6873944379254,204.78944606221788L1128.4838367750808,271.7385142815693L1129.6216115424456,238.55004303366573L1131.4420511702294,198.08172051650592L1132.352270984121,95.96957965939144L1133.3762682747497,128.45459338170852L1134.7415979955874,216.13762360487638L1135.9931502396887,278.60235819477924L1136.5620376233712,310.1582456612402L1137.3584799605267,287.62744263624387L1139.9753619254657,261.6304049091794L1140.5442493091482,280.3211400322101L1141.226914169567,79.85757221561425L1142.9335763206143,143.49929871593173L1143.8437961345062,171.07731237546724L1144.8677934251346,218.5204634272811L1145.4366808088168,226.54317176273648L1145.6642357622898,217.20215109889435" fill="none"></path></g></g></g></g></g></g><g transform="translate(51, 376)" clip-path="url(#clip_1)"><clipPath id="clip_1"><rect width="1163" height="23"></rect></clipPath><g><g><line x1="8.003245874182863" y1="0" x2="8.003245874182863" y2="5" style="visibility: inherit;" fill="rgb(0, 0, 0)" stroke="rgb(204, 204, 204)" stroke-width="1px"></line><line x1="121.78072261066723" y1="0" x2="121.78072261066723" y2="5" style="visibility: inherit;" fill="rgb(0, 0, 0)" stroke="rgb(204, 204, 204)" stroke-width="1px"></line><line x1="235.5581993471516" y1="0" x2="235.5581993471516" y2="5" style="visibility: inherit;" fill="rgb(0, 0, 0)" stroke="rgb(204, 204, 204)" stroke-width="1px"></line><line x1="349.335676083636" y1="0" x2="349.335676083636" y2="5" style="visibility: inherit;" fill="rgb(0, 0, 0)" stroke="rgb(204, 204, 204)" stroke-width="1px"></line><line x1="463.1131528201203" y1="0" x2="463.1131528201203" y2="5" style="visibility: inherit;" fill="rgb(0, 0, 0)" stroke="rgb(204, 204, 204)" stroke-width="1px"></line><line x1="576.8906295566046" y1="0" x2="576.8906295566046" y2="5" style="visibility: inherit;" fill="rgb(0, 0, 0)" stroke="rgb(204, 204, 204)" stroke-width="1px"></line><line x1="690.668106293089" y1="0" x2="690.668106293089" y2="5" style="visibility: inherit;" fill="rgb(0, 0, 0)" stroke="rgb(204, 204, 204)" stroke-width="1px"></line><line x1="804.4455830295733" y1="0" x2="804.4455830295733" y2="5" style="visibility: inherit;" fill="rgb(0, 0, 0)" stroke="rgb(204, 204, 204)" stroke-width="1px"></line><line x1="918.2230597660576" y1="0" x2="918.2230597660576" y2="5" style="visibility: inherit;" fill="rgb(0, 0, 0)" stroke="rgb(204, 204, 204)" stroke-width="1px"></line><line x1="1032.000536502542" y1="0" x2="1032.000536502542" y2="5" style="visibility: inherit;" fill="rgb(0, 0, 0)" stroke="rgb(204, 204, 204)" stroke-width="1px"></line><line x1="1145.7780132390264" y1="0" x2="1145.7780132390264" y2="5" style="visibility: inherit;" fill="rgb(0, 0, 0)" stroke="rgb(204, 204, 204)" stroke-width="1px"></line></g><g transform="translate(0, 8)"><text style="text-anchor: middle; visibility: inherit; font-family: Roboto, sans-serif; font-size: 12px; font-weight: 200;" x="8.003245874182863" y="0" dx="0em" dy="0.95em" fill="rgb(33, 33, 33)" stroke="none" stroke-width="1px">0</text><text style="text-anchor: middle; visibility: inherit; font-family: Roboto, sans-serif; font-size: 12px; font-weight: 200;" x="121.78072261066723" y="0" dx="0em" dy="0.95em" fill="rgb(33, 33, 33)" stroke="none" stroke-width="1px">1k</text><text style="text-anchor: middle; visibility: inherit; font-family: Roboto, sans-serif; font-size: 12px; font-weight: 200;" x="235.5581993471516" y="0" dx="0em" dy="0.95em" fill="rgb(33, 33, 33)" stroke="none" stroke-width="1px">2k</text><text style="text-anchor: middle; visibility: inherit; font-family: Roboto, sans-serif; font-size: 12px; font-weight: 200;" x="349.335676083636" y="0" dx="0em" dy="0.95em" fill="rgb(33, 33, 33)" stroke="none" stroke-width="1px">3k</text><text style="text-anchor: middle; visibility: inherit; font-family: Roboto, sans-serif; font-size: 12px; font-weight: 200;" x="463.1131528201203" y="0" dx="0em" dy="0.95em" fill="rgb(33, 33, 33)" stroke="none" stroke-width="1px">4k</text><text style="text-anchor: middle; visibility: inherit; font-family: Roboto, sans-serif; font-size: 12px; font-weight: 200;" x="576.8906295566046" y="0" dx="0em" dy="0.95em" fill="rgb(33, 33, 33)" stroke="none" stroke-width="1px">5k</text><text style="text-anchor: middle; visibility: inherit; font-family: Roboto, sans-serif; font-size: 12px; font-weight: 200;" x="690.668106293089" y="0" dx="0em" dy="0.95em" fill="rgb(33, 33, 33)" stroke="none" stroke-width="1px">6k</text><text style="text-anchor: middle; visibility: inherit; font-family: Roboto, sans-serif; font-size: 12px; font-weight: 200;" x="804.4455830295733" y="0" dx="0em" dy="0.95em" fill="rgb(33, 33, 33)" stroke="none" stroke-width="1px">7k</text><text style="text-anchor: middle; visibility: inherit; font-family: Roboto, sans-serif; font-size: 12px; font-weight: 200;" x="918.2230597660576" y="0" dx="0em" dy="0.95em" fill="rgb(33, 33, 33)" stroke="none" stroke-width="1px">8k</text><text style="text-anchor: middle; visibility: inherit; font-family: Roboto, sans-serif; font-size: 12px; font-weight: 200;" x="1032.000536502542" y="0" dx="0em" dy="0.95em" fill="rgb(33, 33, 33)" stroke="none" stroke-width="1px">9k</text><text style="text-anchor: middle; visibility: inherit; font-family: Roboto, sans-serif; font-size: 12px; font-weight: 200;" x="1145.7780132390264" y="0" dx="0em" dy="0.95em" fill="rgb(33, 33, 33)" stroke="none" stroke-width="1px">10k</text></g><line x1="0" y1="0" x2="1163.6879997253418" y2="0" fill="rgb(0, 0, 0)" stroke="rgb(204, 204, 204)" stroke-width="1px"></line></g></g></g></g></svg>