<svg viewBox="0 0 1171.1666259765625 400" xmlns="http://www.w3.org/2000/svg"><g><g><g><g><g><line x1="51.8120002746582" y1="367.885191910227" x2="46.8120002746582" y2="367.885191910227" style="visibility: inherit;" fill="rgb(0, 0, 0)" stroke="rgb(204, 204, 204)" stroke-width="1px"></line><line x1="51.8120002746582" y1="330.2990586868644" x2="46.8120002746582" y2="330.2990586868644" style="visibility: inherit;" fill="rgb(0, 0, 0)" stroke="rgb(204, 204, 204)" stroke-width="1px"></line><line x1="51.8120002746582" y1="292.7129254635018" x2="46.8120002746582" y2="292.7129254635018" style="visibility: inherit;" fill="rgb(0, 0, 0)" stroke="rgb(204, 204, 204)" stroke-width="1px"></line><line x1="51.8120002746582" y1="255.12679224013928" x2="46.8120002746582" y2="255.12679224013928" style="visibility: inherit;" fill="rgb(0, 0, 0)" stroke="rgb(204, 204, 204)" stroke-width="1px"></line><line x1="51.8120002746582" y1="217.54065901677666" x2="46.8120002746582" y2="217.54065901677666" style="visibility: inherit;" fill="rgb(0, 0, 0)" stroke="rgb(204, 204, 204)" stroke-width="1px"></line><line x1="51.8120002746582" y1="179.95452579341418" x2="46.8120002746582" y2="179.95452579341418" style="visibility: inherit;" fill="rgb(0, 0, 0)" stroke="rgb(204, 204, 204)" stroke-width="1px"></line><line x1="51.8120002746582" y1="142.36839257005158" x2="46.8120002746582" y2="142.36839257005158" style="visibility: inherit;" fill="rgb(0, 0, 0)" stroke="rgb(204, 204, 204)" stroke-width="1px"></line><line x1="51.8120002746582" y1="104.78225934668897" x2="46.8120002746582" y2="104.78225934668897" style="visibility: inherit;" fill="rgb(0, 0, 0)" stroke="rgb(204, 204, 204)" stroke-width="1px"></line><line x1="51.8120002746582" y1="67.19612612332648" x2="46.8120002746582" y2="67.19612612332648" style="visibility: inherit;" fill="rgb(0, 0, 0)" stroke="rgb(204, 204, 204)" stroke-width="1px"></line><line x1="51.8120002746582" y1="29.609992899963864" x2="46.8120002746582" y2="29.609992899963864" style="visibility: inherit;" fill="rgb(0, 0, 0)" stroke="rgb(204, 204, 204)" stroke-width="1px"></line></g><g transform="translate(41.8120002746582, 0)"><text style="text-anchor: end; visibility: inherit; font-family: Roboto, sans-serif; font-size: 12px; font-weight: 200;" x="0" y="367.885191910227" dx="0em" dy="0.3em" fill="rgb(33, 33, 33)" stroke="none" stroke-width="1px">0.45</text><text style="text-anchor: end; visibility: inherit; font-family: Roboto, sans-serif; font-size: 12px; font-weight: 200;" x="0" y="330.2990586868644" dx="0em" dy="0.3em" fill="rgb(33, 33, 33)" stroke="none" stroke-width="1px">0.5</text><text style="text-anchor: end; visibility: inherit; font-family: Roboto, sans-serif; font-size: 12px; font-weight: 200;" x="0" y="292.7129254635018" dx="0em" dy="0.3em" fill="rgb(33, 33, 33)" stroke="none" stroke-width="1px">0.55</text><text style="text-anchor: end; visibility: inherit; font-family: Roboto, sans-serif; font-size: 12px; font-weight: 200;" x="0" y="255.12679224013928" dx="0em" dy="0.3em" fill="rgb(33, 33, 33)" stroke="none" stroke-width="1px">0.6</text><text style="text-anchor: end; visibility: inherit; font-family: Roboto, sans-serif; font-size: 12px; font-weight: 200;" x="0" y="217.54065901677666" dx="0em" dy="0.3em" fill="rgb(33, 33, 33)" stroke="none" stroke-width="1px">0.65</text><text style="text-anchor: end; visibility: inherit; font-family: Roboto, sans-serif; font-size: 12px; font-weight: 200;" x="0" y="179.95452579341418" dx="0em" dy="0.3em" fill="rgb(33, 33, 33)" stroke="none" stroke-width="1px">0.7</text><text style="text-anchor: end; visibility: inherit; font-family: Roboto, sans-serif; font-size: 12px; font-weight: 200;" x="0" y="142.36839257005158" dx="0em" dy="0.3em" fill="rgb(33, 33, 33)" stroke="none" stroke-width="1px">0.75</text><text style="text-anchor: end; visibility: inherit; font-family: Roboto, sans-serif; font-size: 12px; font-weight: 200;" x="0" y="104.78225934668897" dx="0em" dy="0.3em" fill="rgb(33, 33, 33)" stroke="none" stroke-width="1px">0.8</text><text style="text-anchor: end; visibility: inherit; font-family: Roboto, sans-serif; font-size: 12px; font-weight: 200;" x="0" y="67.19612612332648" dx="0em" dy="0.3em" fill="rgb(33, 33, 33)" stroke="none" stroke-width="1px">0.85</text><text style="text-anchor: end; visibility: inherit; font-family: Roboto, sans-serif; font-size: 12px; font-weight: 200;" x="0" y="29.609992899963864" dx="0em" dy="0.3em" fill="rgb(33, 33, 33)" stroke="none" stroke-width="1px">0.9</text></g><line x1="51.8120002746582" y1="0" x2="51.8120002746582" y2="376.89499950408936" fill="rgb(0, 0, 0)" stroke="rgb(204, 204, 204)" stroke-width="1px"></line></g></g><g transform="translate(51, 0)" clip-path="url(#clip_0)"><clipPath id="clip_0"><rect width="1119" height="376"></rect></clipPath><g><g><g><line x1="34.55315513411557" y1="0" x2="34.55315513411557" y2="376.89499950408936" fill="rgb(0, 0, 0)" stroke="rgb(66, 66, 66)" stroke-width="1px" opacity="0.25"></line><line x1="141.6633601950773" y1="0" x2="141.6633601950773" y2="376.89499950408936" fill="rgb(0, 0, 0)" stroke="rgb(66, 66, 66)" stroke-width="1px" opacity="0.25"></line><line x1="248.773565256039" y1="0" x2="248.773565256039" y2="376.89499950408936" fill="rgb(0, 0, 0)" stroke="rgb(66, 66, 66)" stroke-width="1px" opacity="0.25"></line><line x1="355.8837703170007" y1="0" x2="355.8837703170007" y2="376.89499950408936" fill="rgb(0, 0, 0)" stroke="rgb(66, 66, 66)" stroke-width="1px" opacity="0.25"></line><line x1="462.9939753779625" y1="0" x2="462.9939753779625" y2="376.89499950408936" fill="rgb(0, 0, 0)" stroke="rgb(66, 66, 66)" stroke-width="1px" opacity="0.25"></line><line x1="570.1041804389242" y1="0" x2="570.1041804389242" y2="376.89499950408936" fill="rgb(0, 0, 0)" stroke="rgb(66, 66, 66)" stroke-width="1px" opacity="0.25"></line><line x1="677.2143854998859" y1="0" x2="677.2143854998859" y2="376.89499950408936" fill="rgb(0, 0, 0)" stroke="rgb(66, 66, 66)" stroke-width="1px" opacity="0.25"></line><line x1="784.3245905608477" y1="0" x2="784.3245905608477" y2="376.89499950408936" fill="rgb(0, 0, 0)" stroke="rgb(66, 66, 66)" stroke-width="1px" opacity="0.25"></line><line x1="891.4347956218094" y1="0" x2="891.4347956218094" y2="376.89499950408936" fill="rgb(0, 0, 0)" stroke="rgb(66, 66, 66)" stroke-width="1px" opacity="0.25"></line><line x1="998.545000682771" y1="0" x2="998.545000682771" y2="376.89499950408936" fill="rgb(0, 0, 0)" stroke="rgb(66, 66, 66)" stroke-width="1px" opacity="0.25"></line><line x1="1105.655205743733" y1="0" x2="1105.655205743733" y2="376.89499950408936" fill="rgb(0, 0, 0)" stroke="rgb(66, 66, 66)" stroke-width="1px" opacity="0.25"></line></g><g><line x1="0" y1="367.885191910227" x2="1119.3579997253419" y2="367.885191910227" fill="rgb(0, 0, 0)" stroke="rgb(66, 66, 66)" stroke-width="1px" opacity="0.25"></line><line x1="0" y1="330.2990586868644" x2="1119.3579997253419" y2="330.2990586868644" fill="rgb(0, 0, 0)" stroke="rgb(66, 66, 66)" stroke-width="1px" opacity="0.25"></line><line x1="0" y1="292.7129254635018" x2="1119.3579997253419" y2="292.7129254635018" fill="rgb(0, 0, 0)" stroke="rgb(66, 66, 66)" stroke-width="1px" opacity="0.25"></line><line x1="0" y1="255.12679224013928" x2="1119.3579997253419" y2="255.12679224013928" fill="rgb(0, 0, 0)" stroke="rgb(66, 66, 66)" stroke-width="1px" opacity="0.25"></line><line x1="0" y1="217.54065901677666" x2="1119.3579997253419" y2="217.54065901677666" fill="rgb(0, 0, 0)" stroke="rgb(66, 66, 66)" stroke-width="1px" opacity="0.25"></line><line x1="0" y1="179.95452579341418" x2="1119.3579997253419" y2="179.95452579341418" fill="rgb(0, 0, 0)" stroke="rgb(66, 66, 66)" stroke-width="1px" opacity="0.25"></line><line x1="0" y1="142.36839257005158" x2="1119.3579997253419" y2="142.36839257005158" fill="rgb(0, 0, 0)" stroke="rgb(66, 66, 66)" stroke-width="1px" opacity="0.25"></line><line x1="0" y1="104.78225934668897" x2="1119.3579997253419" y2="104.78225934668897" fill="rgb(0, 0, 0)" stroke="rgb(66, 66, 66)" stroke-width="1px" opacity="0.25"></line><line x1="0" y1="67.19612612332648" x2="1119.3579997253419" y2="67.19612612332648" fill="rgb(0, 0, 0)" stroke="rgb(66, 66, 66)" stroke-width="1px" opacity="0.25"></line><line x1="0" y1="29.609992899963864" x2="1119.3579997253419" y2="29.609992899963864" fill="rgb(0, 0, 0)" stroke="rgb(66, 66, 66)" stroke-width="1px" opacity="0.25"></line></g></g></g><g><g><line x1="0" y1="706.16039092049" x2="1119.3579997253419" y2="706.16039092049" fill="rgb(0, 0, 0)" stroke="rgb(153, 153, 153)" stroke-width="1.5px"></line></g></g><g><g><line x1="34.55315513411557" y1="0" x2="34.55315513411557" y2="376.89499950408936" fill="rgb(0, 0, 0)" stroke="rgb(153, 153, 153)" stroke-width="1.5px"></line></g></g><g><g><g><g><g><path style="fill: none;" stroke="rgb(255, 112, 67)" stroke-width="2px" d="M35.19581636448134,5.21659509052639L35.83847759484711,5.040198829986125L36.802469440395775,7.363372631834969L37.76646128594442,8.581405279180101L39.373114361858846,11.176337374493558L41.83664907826097,17.43861471440484L46.12105728069944,58.89592725751878L46.763718511065214,90.19814862962811L47.19215933130906,111.83503560065152L47.406379741430975,124.81784526520104L48.4774817920406,139.94205677182387L50.08413486795503,156.74475502337364L51.58367773880848,171.81020084684906L53.94010225014965,189.5623909373086L54.26143286533254,200.7871033768401L54.58276348051542,208.20202103298888L55.225424710881185,213.7971872330699L57.153408401978496,222.4691634309774L58.76006147789292,231.56155582231406L58.97428188801485,238.49972108119894L59.9382737335635,244.16677713513442L61.11648598923408,249.89390714587464L62.187588039843696,255.27271445790188L63.15157988539236,260.13388091864954L65.18667378155062,266.60920704446215L65.40089419167255,270.0026693505579L67.2217676777089,274.9518096972261L67.43598808783082,277.9821912366833L68.18575952325756,280.7679456739279L68.9355309586843,283.6428376996799L69.04264116374524,285.472887779269L69.25686157386717,286.5336568640601L74.71948203197623,291.36890393851957L75.46925346740295,295.0769751981706L76.00480449270776,297.41788377100505L77.39723715850027,299.604206818311L78.6825596192318,301.9076864692381L80.07499228502431,303.9113611825161L80.82476372045103,305.4513507034633L82.11008618118258,306.76180652615705L82.96696782167028,307.9418724189389L83.28829843685317,308.6507005424606L84.46651069252374,309.1264312327506L84.78784130770663,310.02872504573287L86.93004540892586,311.0213531560826L90.67890258605952,312.71849848576744L93.78509853282742,313.7718957923568L93.89220873788837,314.33769274581357L96.56996386441241,315.7166918076946L98.49794755550973,316.7415788861418L99.78327001624127,317.4532028316326L101.81836391239955,318.1103016489358L103.21079657819205,318.68980753708206L103.8534578085578,318.58561403861665L104.60322924398454,319.41954379161103L105.13878026928936,320.05025173101814L106.53121293508185,320.6133495735491L107.70942519075243,320.87482273343335L107.8165353958134,320.84239163205405L109.53029867678879,321.21776487416463L111.67250277800802,321.4259087103298L115.52847016020264,321.9846978885669L116.06402118550744,322.4476510358421L116.81379262093418,322.25198308998034L117.45645385129994,322.1845143098254L117.56356405636092,322.19509414438636L118.31333549178764,322.3376348563092L119.2773273373363,322.27209082636494L120.56264979806784,322.79863039439334L122.49063348916515,322.19269422783265L122.70485389928707,321.9409687092097L123.02618451446996,321.8783807625842L123.34751512965283,321.70916956705634L123.66884574483572,321.493978577001L124.63283759038438,321.6509244460996L125.70393964099401,322.11323732018036L127.84614374221323,321.6998215554391L128.8101355877619,322.2060390341865L129.3456866130667,322.30774749647253L130.2025682535544,322.18237893832185L131.273670304164,321.7986404917121L131.38078050922496,321.5836852863521L134.9154172762367,321.16017437408084L135.34385809648057,321.33586645878177L135.98651932684635,321.1832340591935L136.41496014709017,321.49188118432994L136.95051117239498,321.15957620632787L137.05762137745594,321.93420749992066L138.77138465843132,321.38683299026013L139.1998254786752,321.1115483930526L139.9495969141019,320.7194433834796L140.16381732422386,321.2627143328757L140.69936834952867,321.6510470805536L142.62735204062594,321.7869069691092L143.37712347605267,321.4656871922597L147.98286229367403,321.58503920839524L148.30419290885692,321.2816407613775L148.6255235240398,321.13123484381083L150.44639701007614,321.005379355407L151.51749906068576,320.6754566723417L151.83882967586865,320.39964787474213L152.37438070117346,320.96493318221957L152.58860111129542,321.199562628629L153.55259295684405,321.6466531450047L153.76681336696598,321.4622756024151L156.55167869855097,321.78895722174065L157.08722972385578,321.47453439144397L158.05122156940445,321.6281460064939L159.22943382507503,321.91962870827814L159.55076444025792,322.23230623991554L159.76498485037985,322.41346067151454L160.19342567062367,321.77346027948255L161.47874813135522,322.0472503530077L161.58585833641618,321.87658937206106L164.47783387306217,322.38194357008564L165.12049510342794,322.15816392939087L165.9773767439156,322.83976259461326L166.8342583844033,323.17742622815945L169.83334412611023,323.3313290710069L170.7973359716589,322.6947999719632L172.08265843239042,323.4029985209035L174.33197273867063,324.0724876070309L176.5812870449508,323.7086050457292L177.65238909556044,324.1915815626011L178.18794012086525,324.0796533432436L179.7945931967797,324.0457784290488L181.1870258625722,324.34735887357203L181.50835647775506,324.4297694279685L182.47234832330372,324.1472379422621L183.8647809890962,324.2595498122411L187.6136381662299,324.54784923725236L189.32740144720526,324.5078741636748L189.5416218573272,324.79982633173864L190.077172882632,324.9252627923294L190.50561370287585,325.4985899697575L190.93405452311967,325.64612021538784L191.14827493324162,324.980711952008L192.96914841927796,325.0063548706463L193.1833688293999,326.1237750693902L193.3975892395218,325.5949454462348L194.5758014951924,325.25286090331014L195.646903545802,324.88577031902L195.9682341609849,324.9390127836451L197.25355662171646,325.01314774492204L198.11043826220413,325.45016654911234L199.71709133811856,325.536970667121L203.2517281051303,325.5562729495252L204.001499540557,325.2647675141294L204.64416077092278,325.48145218967346L204.8583811810447,326.21062892087946L206.67925466708107,326.4693046042913L207.96457712781262,326.27853475086505L208.28590774299548,326.1860995482378L210.32100163915376,325.57351860356414L210.53522204927572,325.69663335980755L211.0707730745805,325.42006425630666L212.9987567656778,325.5193573530615L213.42719758592168,325.3103829962425L214.28407922640935,325.5866228993069L214.92674045677512,325.5250203732031L215.89073230232378,325.32736603676267L216.9618343529334,325.3721187804898L217.49738537823822,325.6309050456968L217.81871599342108,326.0707138584319L218.88981804403073,325.7214357750641L222.74578542622532,325.44844132157107L223.06711604140824,325.58185288580853L224.13821809201784,326.09653752195226L224.7808793223836,326.14129662747007L224.88798952744455,326.01226249061034L225.31643034768842,325.745777925694L226.7088630134809,325.31959520245647L228.10129567927342,324.8959520718943L229.06528752482205,324.8506525225968L230.45772019061457,324.98210453032675L231.5288222412242,325.1704103059743L231.74304265134612,324.7265248627749L232.27859367665093,325.2331536653944L232.9212549070167,324.6566898560974L235.06345900823592,325.43037418880516L237.41988351957707,324.8925756177776L239.1336468005525,324.8100754280106L240.52607946634498,324.8558511378462L240.84741008152787,324.8942851122994L241.59718151695458,324.43564340640074L242.23984274732035,324.4308008442288L242.45406315744228,324.2660196034604L242.77539377262516,324.2331234524953L243.20383459286901,324.4334915540173L244.06071623335671,324.61233679779525L244.81048766878345,324.50023712809417L244.91759787384441,324.2496305097934L245.02470807890538,324.2671104231078L245.5602591042102,324.48845617128114L245.988699924454,324.3285001551604L246.52425094975882,324.81572355509337L247.27402238518556,324.8668929066313L247.4882427953075,324.3901199223794L248.8806754611,324.5655058370008L250.91576935725826,324.1737653550622L251.66554079268496,324.08962822081224L251.98687140786788,324.40044491127156L253.3793040736604,324.19301706832147L254.23618571414806,324.25196094642644L254.45040612427,323.9706014726211L256.59261022548924,323.94425146225785L259.27036535201324,323.72175959018944L259.913026582379,323.5510215847739L260.87701842792774,323.7744271168546L261.0912388380496,323.32620539467507L262.16234088865923,323.15717218102134L264.3045449898785,323.49418951300055L264.5187654000004,323.6513786802235L265.3756470404881,324.297166427194L267.19652052652447,324.62178499078243L269.33872462774366,323.71233514065017L269.4458348328046,323.88143105540416L270.9453777036581,323.6407666707482L271.266708318841,323.515760147035L272.23070016438965,323.51819920387356L272.8733613947554,322.9153171197254L273.40891242006023,323.16191217470765L275.4440063162185,323.59162827924L275.8724471364623,324.21290760876303L275.9795573415233,323.84429452118667L276.19377775164526,323.943078513001L276.3008879567062,323.975232218614L279.621304313596,323.82838319185765L280.04974513383985,323.96443004498434L281.9777288249371,323.6609939973222L282.406169645181,323.0399215896748L282.72750026036385,322.7182854803456L284.0128227210954,323.48562533191733L284.65548395146124,323.28884829792446L284.76259415652214,323.6379669714865L286.3692472324366,322.96674617024553L287.6545696931681,322.8356286458799L287.76167989822915,323.0883445082614L289.4754431792045,323.27137418428975L290.76076563993604,322.98720244282146L290.97498605005796,323.0939778532449L291.40342687030176,322.79817792568616L291.93897789560657,323.1441235581346L292.1531983057285,322.92940181835576L292.5816391259724,322.8593723820028L293.75985138164293,322.22605675642626L297.8300391739595,322.4444447185019L299.11536163469106,323.1128646849303L301.9002269662761,323.5586869822425L302.3286677865199,323.115518780271L302.8642188118247,322.93998292738655L302.9713290168857,323.40751716298286L303.0784392219466,322.78159111682356L307.1486270142632,322.7547349672743L312.2899168571893,322.430623717309L313.7894597280428,322.3568647687956L318.1809781355422,322.18700876528936L318.28808834060317,323.26778070303993L320.2160720317005,322.8333326882353L321.82272510761493,322.7511716302951L323.42937818352937,323.2067687557522L325.03603125944375,323.14422419285717L330.49865171755283,323.5279829163306L331.24842315297957,322.74129956645567L332.42663540865016,322.7118489836415L332.74796602383304,322.3195095040882L334.1403986896255,322.9808742727982L334.5688395098694,323.07105768112496L335.2115007402351,323.1977895541149L335.31861094529614,323.2852811330145L335.42572115035705,322.96056196046595L336.9252640212105,322.8908651072461L337.5679252515763,322.54400664179593L337.88925586675924,322.06329087057435L338.6390273021859,321.7619213881446L339.6030191477346,322.48311943736024L341.53100283883185,322.54066730800605L341.6381130438929,322.6605786534347L341.7452232489538,322.9466809944281L342.2807742742586,322.58090144244636L344.20875796535597,322.4438232826512L345.0656396058436,322.26029653731865L345.27986001596554,322.2190565229376L348.0647253475505,322.0639086593032L349.564268218404,321.7416274592898L349.88559883358687,321.9581992801763L354.3842274461473,323.27564905563514L355.5624397018179,322.83459466405634L356.3122111372446,322.3448558692859L357.16909277773226,322.54298425541293L358.133084623281,322.7743426771408L359.9539581093173,323.0306574104165L361.45350098017076,323.1677425130447L362.2032724155975,323.0401573549394L362.31038262065846,322.76303595477515L364.55969692693867,322.5961537508681L365.7379091826092,322.099525736345L366.487680618036,322.6196915303196L368.5227745141942,322.4277037574061L368.6298847192552,322.3137298212748L369.8080969749258,322.6698928094282L370.6649786154135,322.9548324005126L377.3058113291931,323.21655551769067L378.4840235848637,323.4227148644367L378.59113378992464,323.9041966403624L379.98356645571715,323.4722083205351L381.16177871138774,323.49228317755313L381.5902195316316,323.10562493639566L382.6613215822412,323.00622038743137L383.41109301766795,322.3720551214851L384.4821950682775,322.0677981278319L386.8386195796187,322.362106956673L387.0528399897406,322.7423093783209L388.76660327071596,322.5064899035085L388.98082368083794,322.4363117066733L389.0879338858989,322.5279959894543L392.6225706529106,322.2580722695056L394.76477475412986,322.3125855692518L395.8358768047395,322.45454889545937L397.7638604958368,322.6798267997299L401.51271767297044,322.315225607048L402.4767095185191,322.2443969171697L403.22648095394584,322.3257618585404L403.8691421843116,321.8037144696456L404.1904727994945,322.25462825209064L404.29758300455546,321.83969600445914L405.0473544399822,321.94189151172554L405.475795260226,321.55991456791133L407.83221977156717,321.98240714981785L409.01043202723775,321.85056970244915L410.40286469303027,322.1491294155401L410.8313055132741,322.41065481478853L410.9384157183351,321.9841221302228L411.4739667436399,322.5003023097048L412.0095177689447,322.61096352161405L412.11662797400567,322.67874027856107L415.7583749460784,322.1151862717326L416.1868157663222,321.8007473663048L416.5081463815051,322.3657953642267L418.1147994574195,322.17914034341186L418.8645708928463,322.71504443901284L420.25700355863876,322.5204915955558L423.4703097104676,322.4022006350307L423.6845301205895,322.1765910310919L425.29118319650394,323.2336427070529L428.8258199635157,323.1746686131359L429.3613709888205,323.43448507704426L430.3253628343691,323.4391272736419L431.2893546799178,323.6007593984884L431.3964648849788,322.6065652395974L433.431558781137,322.7179144200889L434.9311016519905,321.8587776989967L436.1093139076611,322.0479173760106L436.21642411272205,322.44083033331793L437.2875261633317,322.7133370833231L438.5728486240632,322.2558277226676L440.1795016999776,321.6315831251606L441.0363833404653,321.7436492126244L444.03546908217226,321.78692652945904L444.4639099024161,321.6243844331729L445.42790174796477,321.4231239482471L445.6421221580867,321.9190259089663L446.71322420869626,322.44421823524453L448.8554283099155,322.7001178068031L450.354971180769,321.9038027521024L451.2118528212567,321.7086151466778L451.64029364150053,321.2619622203125L452.0687344617444,321.5127541350539L452.6042854870492,322.33750826040085L453.4611671275369,322.5294352329553L453.9967181528417,322.6340530070949L455.38915081863416,322.6356722211554L456.46025286924385,322.37805842523437L457.10291409960956,322.2919360413414L457.74557532997534,322.2725051254579L458.709567175524,322.1953758114507L460.4233304564994,322.7944503411125L461.387322302048,322.3083131623765L461.8157631222919,321.7455356502396L462.67264476277956,321.8432954290166L463.5295264032673,321.72675920135674L464.4935182488159,322.01405011376045L465.77884070954747,322.02225488222336L468.67081624619345,322.0179835187798L469.0992570664373,321.7976089841267L469.6348080917421,321.75637661790677L469.956138706925,322.3732435210655L470.1703591170469,322.4207951387174L471.3485713727175,322.29625033613587L475.31164895997307,321.89558550693215L477.5609632662533,322.2435811338521L479.2747265472287,322.04016181606045L479.70316736747253,321.92588857517546L479.8102775725335,322.1875460474232L480.4529388028992,321.7851624770904L480.56004900796023,322.19766931366996L480.66715921302114,322.27417517749086L481.20271023832595,321.9974384816802L481.6311510585698,321.5859662291127L483.0235837243623,321.7885245312255L483.45202454460616,321.8649486682038L485.0586776205206,322.2130834443061L485.5942286458254,322.230946678487L485.7013388508863,321.84719116535643L486.02266946606926,321.86693832112246L486.87955110655696,321.73870462850107L489.34308582295904,322.0386021610525L490.7355184887516,321.6219018222623L491.27106951405636,321.52217941009303L492.2350613596051,321.4755368969977L493.5203838203366,321.52727051325627L494.16304505070235,321.9892025854371L495.4483675114339,321.34597156349423L497.5905716126531,321.37242886892176L498.6616736632627,321.47823818131775L498.76878386832374,321.8096466973538L498.9830042784456,322.3109513255403L499.73277571387234,322.2382837002042L500.26832673917716,322.00744713362735L500.696767559421,321.75237748162L500.80387776448197,321.41313920200764L501.44653899484774,321.6309354628456L502.1963104302745,321.3437509489442L504.1242941213718,320.9014562285352L507.65893088838357,321.0915609206325L508.62292273393217,321.1354752080607L508.8371431440541,321.24317384894425L510.65801663009046,321.872583671572L510.97934724527335,321.5163763151392L512.9073309363706,322.23044414455694L513.0144411414316,322.0546827036759L514.621094217346,322.08350094658323L518.9055024197845,321.6984683990386L521.9045881614915,321.6257042360562L522.1188085716133,321.39968465735916L522.2259187766743,322.11671625786596L522.7614698019792,321.3916531272305L524.1539024677716,321.4766893368865L526.081886158869,321.4716316698388L526.2961065689908,322.1062246052812L526.6174371841738,321.617023917676L528.545420875271,321.3451717652424L529.7236331309416,321.07250044551796L530.4734045663683,321.00282929250756L530.7947351815512,321.06805956140704L531.1160657967341,321.06461394601587L532.0800576422828,320.7287765119414L532.1871678473437,321.39101140502845L533.9009311283191,321.70216320691657L534.1151515384411,321.1294973704103L537.3284576902699,321.04362291454606L538.7208903560625,320.9493173171821L539.3635515864281,320.5253951170651L540.4346536370379,320.9657523835447L541.8270863028304,321.8676659689633L542.1484169180131,321.6026258016504L542.3626373281351,321.2783207294562L544.0764006091106,320.83015272950445L544.9332822495982,321.4461019467809L546.7541557356345,321.5913359833167L548.146588401427,321.9244622367327L548.7892496317928,321.5356746273659L550.3959027077073,320.9685782295113L551.4670047583169,321.24191390096615L553.930539474719,321.54639158414915L554.03764967978,321.0429345457572L555.6443027556944,320.70671802698445L557.0367354214869,321.2015805610907L557.1438456265479,321.28448592753796L560.5713721884986,321.0056386749383L561.4282538289864,320.98533038093194L562.3922456745349,321.3659520689264L563.0349069049007,321.8642015590015L563.5704579302055,321.29391170277415L564.962890595998,321.3831135980172L566.5695436719125,320.9014520091695L567.961976337705,321.2763569251546L571.0681722844729,321.0877569183954L571.1752824895339,320.8567387848019L571.9250539249606,320.9612461417478L573.5317070008749,321.04009869683887L573.6388172059359,321.0235345647972L575.1383600767894,321.0594238284598L575.2454702818504,321.08554553768556L575.8881315122162,320.91400049431087L582.4218540209348,320.6146432523894L584.8853887373369,320.38498938508474L586.1707111980685,320.9299892120573L586.5991520183122,321.10251538280164L586.8133724284343,321.81084258758835L587.0275928385561,321.1461530412528L587.4560336588,321.3310739970056L588.7413561195316,320.6498536194873L589.1697969397753,320.49286033572116L589.9195683752021,321.1569100902735L590.562229605568,321.12102484977277L595.810629653555,321.3161404618372L597.3101725244085,321.4018275929413L597.6315031395914,321.36355585697356L597.8457235497134,321.0948041310128L599.3452664205668,320.4617262830553L601.2732501116641,320.5668793984031L602.3443521622737,320.7636549337041L603.3083440078223,320.7804762503593L603.9510052381881,320.97337818288383L604.8078868786757,321.08456703630026L605.8789889292854,320.65278490811744L605.9860991343464,320.70612211782225L607.5927522102609,320.86365338818354L608.9851848760534,320.68379713441834L611.3416093873944,320.68164384785325L612.626931848126,320.8376573508161L615.1975767695891,320.66549321978977L615.411797179711,321.2620669976306L617.1255604606864,321.140818318858L617.2326706657474,320.9215529605949L618.410882921418,320.39817281681115L618.6251033315399,320.2050138341911L618.7322135366009,320.9298075082198L618.8393237416618,320.18470446499083L619.0535441517837,320.6405764234396L621.7312992783078,320.4256765835804L622.6952911238565,321.3827663660219L625.9085972756852,320.8966196740142L626.7654789161729,320.4805855969582L627.7294707617216,320.30543299260876L628.1579115819654,320.054040348579L630.6214462983676,320.83588983837114L630.9427769135505,320.6294301382676L631.1569973236724,320.06100549748464L631.9067687590991,320.22670840959125L632.120989169221,320.3116667276373L632.3352095793429,320.2260904579798L634.2631932704403,320.43189622334637L635.3342953210499,320.7232235668612L635.9769565514156,321.08461075560683L636.5125075767205,320.46276132132846L637.9049402425129,319.95440874021807L638.119160652635,320.2221274816241L639.8329239336103,320.53026061303973L641.8680178297685,320.2295133814936L642.9391198803781,320.09139790478747L643.474670905683,320.838069909163L644.8671035714755,320.5915417498881L646.259536237268,320.6327964719135L647.1164178777557,319.7849940988396L647.2235280828168,319.9129723975588L648.2946301334263,320.3853261007917L649.7941730042796,320.70847242753456L651.0794954650113,320.2467206106304L653.6501403864744,319.85279712652243L653.7572505915354,320.3651898544439L657.3989975636081,319.67868142977386L657.61321797373,319.7842875505207L659.0056506395224,319.74990209910925L661.6834057660465,319.79484912752935L662.4331772014733,319.8342913801894L663.1829486369,319.40294119153145L664.8967119178753,319.54695640064443L666.1820343786069,319.21856799721525L666.5033649937897,319.6993984246506L667.7886874545213,319.3955950593097L667.8957976595823,319.5283899739976L668.4313486848871,319.8637846527751L669.1811201203138,319.6781829764729L670.0380017608015,319.84180635048193L670.2522221709235,319.3381260792646L671.7517650417769,318.9915060483781L672.3944262721426,319.0013099015031L673.0370875025084,319.5002033793347L674.0010793480571,319.14424037991796L674.6437405784228,318.97720722175364L676.1432834492763,319.21950355459234L677.6428263201298,319.3037478263372L679.0352589859223,320.26022122541764L679.677920216288,319.7603883119323L680.1063610365319,319.48595638654086L680.5348018567757,319.3539878073822L681.0703528820806,319.09576123499585L681.2845732922025,319.579635709922L681.3916834972634,319.715325367254L681.6059039073854,319.51854666063605L682.2485651377511,319.19826026458855L684.7120998541532,319.0943386443938L684.9263202642752,319.6570316375503L685.8903121098239,318.8611769823538L686.9614141604335,318.7700725336457L690.1747203122623,318.9599618987191L691.8884835932378,319.31561580259876L692.7453652337254,319.3595512387858L692.8524754387863,319.350013803195L693.4951366691521,318.6967526830499L693.816467284335,318.8480976135806L696.3871122057981,318.6099556501319L696.60133261592,318.8082783598584L697.2439938462858,319.1068550845341L698.2079856918344,318.89634880877304L699.171977537383,319.17373064394195L699.493308152566,318.61170115698496L702.385283689212,318.50245721902667L703.0279449195777,318.36595581749845L706.5625816865894,317.95985550802726L707.0981327118943,318.1519800577028L713.524745015552,319.102835948597L714.0602960408567,319.05674499885356L714.2745164509787,318.91386690181776L714.3816266560397,318.95130322276066L715.3456185015883,318.89488824706353L718.1304838331732,318.83704108107173L718.2375940382343,318.72885067516495L718.8802552686,318.87698077253L719.5229164989657,318.7963481574133L720.1655777293316,318.40161695310593L721.3437899850021,318.4581689818196L722.4148920356117,318.35397176164685L723.8073247014044,319.1286655349428L726.0566390076845,318.50143016433884L727.234851263355,318.2168519625413L728.9486145443306,318.1167374758467L730.7694880303667,318.25150390034577L730.9837084404887,318.7342212642453L731.7334798759155,318.6118142132909L733.018802336647,319.03967924994873L734.7325656176224,318.9345078595907L735.803667668232,318.8039269448239L737.0889901289635,319.16256393647393L737.1961003340245,318.82700670589026L737.7316513593292,319.1541700141058L740.3022962807923,319.4109025508602L741.0520677162191,319.1091737891308L744.051153457926,318.25260298304426L744.4795942781699,317.71503869058284L746.0862473540843,318.22087644528324L747.050239199633,318.2355944202985L748.0142310451816,318.462451991474L748.4426718654255,318.3890708413311L752.834190272925,318.38025979488015L753.2626310931688,318.37223102987156L753.3697412982297,317.8095949716358L753.9052923235346,317.4519401759459L755.404835194388,318.473961535433L755.9403862196928,317.77729307749183L756.3688270399366,317.9686199662358L756.9043780652415,318.0503133067119L760.1176842170703,317.98243899456725L760.5461250373143,317.9754444863239L761.7243372929847,317.8915286572622L762.4741087284115,317.449465765789L763.0096597537163,317.14913584452506L764.1878720093868,317.5384062932173L764.5092026245698,317.14238821352603L765.1518638549355,318.09380745815935L766.1158557004842,317.40874227328266L766.3300761106061,317.8211866596015L767.6153985713377,317.6086194609516L768.2580598017033,317.9361305269456L769.436272057374,317.62634545405433L769.6504924674958,317.99055070469L769.8647128776179,317.96353608520064L770.9358149282275,317.9279352064267L772.7566884142639,317.66628819152305L773.0780190294466,317.645044732143L773.3993496446295,317.4062784509792L774.5775619003001,317.8363224912317L775.0060027205441,318.46943026194214L775.1131129256049,317.8200077620559L775.2202231306659,318.1011025130304L775.4344435407879,317.8221458013871L776.2913251812755,317.2131980828627L777.4695374369461,317.8752347552403L779.7188517432263,317.71298909266056L779.8259619482873,317.98531045725537L780.0401823584092,317.643056772263L780.7899537938359,317.50116800967L783.574819125421,318.5070648061933L785.7170232266401,318.91888627649354L787.6450069177375,318.13430830852246L789.8943212240177,318.40530066232907L790.2156518392006,318.2814233947871L792.143635530298,318.02398320982627L792.7862967606636,317.87736913849955L794.2858396315171,318.38942689990097L795.1427212720048,317.6208476754086L796.7493743479192,317.5913627091321L797.284925373224,317.99578162396443L798.1418070137117,317.82256009606954L798.4631376288946,317.68167105659734L798.8915784491385,317.51177293233775L799.3200192693823,317.230699020566L799.855570294687,317.1578681711474L800.284011114931,317.28638662724L801.1408927554187,317.9057060331511L801.5693335756625,318.16478044171606L802.3191050110892,318.6216092575228L803.1759866515769,318.96870474676473L803.7115376768818,318.3452879765811L805.853741778101,318.89017646006107L806.1750723932838,318.8041221902124L806.6035132135278,317.97243226364213L807.0319540337716,318.3141073713007L812.1732438766977,317.9362380306594L815.3865500285265,318.6352475860824L816.2434316690143,318.0228570119302L817.100313309502,317.90223293232157L817.2074235145628,317.8151979082239L817.4216439246849,317.89925931727595L818.7069663854163,317.85226964321697L820.0993990512089,317.82954219059246L821.3847215119404,318.06777011901744L821.9202725372453,318.2774142906315L822.9913745878549,317.9588132750636L824.8122480738913,317.83326680991973L824.9193582789521,317.7681009684624L825.1335786890742,317.8882067197751L825.347799099196,318.2205222841607L827.5971134054762,318.1100322037363L829.3108766864516,319.0652469680038L830.917529762366,320.2806452806585L832.0957420180365,320.0529680194235L832.2028522230976,319.1715398641212L833.0597338635853,318.71792147881695L833.809505299012,318.3968579632397L834.2379461192559,318.42606412509485L835.4161583749263,318.39686395607265L837.8796930913286,318.7471307579819L837.9868032963894,318.7765965474605L838.4152441166333,319.27762697849397L840.4503380127917,319.4343636884628L842.6996523190718,319.1578049841238L843.1280931393156,318.8388836006725L843.9849747798033,319.48157059970436L845.2702972405349,320.2723738868051L848.4836033923636,319.3161413267119L848.6978238024857,318.8719812122739L849.3404850328515,318.7882046738179L849.6618156480343,318.75528769681983L850.8400279037049,318.2619722191395L852.0182401593755,317.96399353892144L852.2324605694973,318.572522293758L853.196452415046,318.4471912931918L853.7320034403509,318.8915291069408L855.2315463112044,318.95119901483037L856.088427951692,318.60519868864753L856.6239789769968,318.3795326482642L858.2306320529113,318.74291522370595L859.9443953338866,318.005659464454L860.6941667693134,318.3339182345331L861.3368279996791,318.24886351052817L861.8723790249838,317.7623327002063L863.0505912806545,318.4582287924218L865.7283464071786,318.0482862408216L866.6923382527272,317.8570021504363L868.1918811235806,318.06340226818213L868.5132117387635,318.2566202006669L869.4772035843123,318.77758074565475L869.6914239944341,318.71281749550445L871.8336280956534,318.4782820730457L871.9407383007144,319.06528458656555L872.3691791209583,319.48327946352384L873.4402811715679,319.33895772732143L874.7256036322993,319.4686350702008L876.3322567082138,319.3963229094731L878.9029016296769,318.8748538603866L879.7597832701646,318.35736957101903L880.4024445005302,318.58057415880074L881.47354655114,318.64499359237794L883.4015302422372,319.3270258994455L883.5086404472983,319.0138086438524L883.7228608574201,318.2128224542775L884.044191472603,318.7549941256017L884.7939629080297,318.37162494164716L885.7579547535785,317.9168198758205L886.5077261890052,317.8332697560993L887.0432772143099,318.2574935642061L887.257497624432,318.36095939197224L887.7930486497366,318.4307813934921L888.5428200851634,318.1340833864917L889.828142545895,318.5119656777719L890.6850241863826,318.12872188029314L890.8992445965047,317.9350865158028L891.0063548015655,318.57731232410515L891.2205752116874,318.88235516609234L895.8263140293088,318.99236474906166L896.6831956697965,319.1890073458935L897.2187466951013,318.7311441050184L898.3969589507719,319.21727064272346L898.7182895659548,319.5222629568075L898.9325099760766,319.6383179386544L900.753383462113,318.53899399606314L900.967603872235,318.20519419844345L901.9315957177836,318.2833218904682L902.7884773582714,318.17457774248686L903.0026977683932,319.0205631393579L903.8595794088809,318.70882889210515L904.2880202291249,318.66929023032554L904.7164610493687,318.469460892619L905.0377916645516,318.5550085057637L905.2520120746734,318.47064609148316L906.323114125283,318.98548241221584L906.6444447404659,318.7531436855074L908.8937590467461,318.8493850186985L909.0008692518071,318.8003656948817L911.7857345833921,318.23132660328946L912.6426162238798,318.3930046620599L912.7497264289407,318.38720823834564L913.9279386846114,318.9272470563143L914.9990407352209,318.7360174021308L915.2132611453429,318.6370872237102L916.1772529908916,318.67752140152214L919.0692285275375,319.1034422702951L919.1763387325985,318.6197110346683L919.7118897579032,318.645624575082L920.1403305781471,317.9527514270906L921.1043224236957,317.54285233940584L921.8540938591225,318.4534674727463L921.9612040641834,318.17931026222317L923.9962979603417,318.08412210788674L924.5318489856465,318.25856746249144L925.8171714463781,318.1559255231306L926.8882734969876,318.7451946743211L927.4238245222925,318.242367022135L927.5309347273535,318.13102493110057L929.1375878032679,317.99494934943243L929.7802490336337,318.4287182475808L929.9944694437556,318.0306516037768L930.2086898538774,317.78871103105735L931.2797919044871,318.79968905668295L931.6011225196701,318.84342086017574L934.3859878512551,318.75606735939243L934.814428671499,318.9275247686638L935.2428694917428,318.20024856001885L935.4570899018647,318.00424101233097L935.5642001069257,318.20341605178146L935.9926409271694,317.87444723490614L936.0997511322304,318.3385662037707L936.3139715423524,318.7775691036831L936.4210817474133,318.3077269574295L942.6334736409491,318.5163953804002L943.9187961016806,318.1265227138676L946.0610002028999,318.07522903182996L947.3463226636314,317.87401018089423L949.5956369699117,318.2740160895733L949.9169675850944,318.08373709616336L950.3454084053384,318.00910665780606L950.8809594306431,319.3650407208123L951.6307308660698,318.96999973443815L951.7378410711308,318.7480479356401L952.5947227116186,318.71285897226505L953.1302737369233,319.3187630306583L953.7729349672891,318.7805724864601L954.3084859925939,318.1875307681534L954.415596197655,318.16565502665856L955.3795880432035,318.51017236992016L955.5938084533254,318.9098360335727L955.9151390685084,318.9258543343476L956.3435798887522,318.6025913732206L956.4506900938131,318.63105138662445L960.9493187063736,319.07839201081913L961.5919799367393,318.8208795737237L962.3417513721661,318.8572642856922L964.1626248582024,318.91079995337714L964.5910656784463,318.0884319923727L965.340837113873,317.35689334639034L968.1257024454579,317.6498519376654L968.7683636758237,317.8433703327349L969.3039147011286,318.8305310890095L970.1607963416162,318.8030866271274L970.4821269567991,318.5201845859909L971.3390085972868,318.1344418136825L971.6603392124697,318.66733551319385L971.7674494175307,318.3670082128845L973.2669922883841,318.361627555861L975.0878657744205,318.46193724168654L977.3371800807007,318.1414319750925L977.6585106958836,317.8234206459481L977.7656209009444,318.1072365653752L978.1940617211884,317.56023322463966L979.47938418192,317.9680530884672L979.6936045920419,318.1690500372057L980.9789270527734,318.3507817344071L981.9429188983221,318.47686501689924L982.264249513505,318.8262447936381L982.5855801286878,318.4599700933122L982.7998005388098,317.66104081812585L983.7637923843585,317.7536607995583L985.0491148450899,318.05840881867425L987.4055393564311,318.2970861084757L989.2264128424674,318.14329931560263L989.5477434576503,317.97758097849703L991.1543965335647,317.9485673410382L991.6899475588696,317.95677036098226L992.0112781740524,318.37390886689246L992.1183883791134,317.7257567247558L992.3326087892353,317.405472635318L993.0823802246621,318.0278961362829L993.5108210449059,318.583514170655L994.3677026853936,318.57530073171864L995.3316945309423,318.220257315479L996.5099067866129,318.46421827713414L998.3307802726492,317.6862795690509L998.4378904777101,317.679962391336L998.6521108878321,318.2960026126787L998.7592210928931,317.88954816804306L1000.0445435536245,317.6092212075451L1001.0085353991732,318.4290188343045L1008.0778089331967,318.59038923414204L1008.1849191382577,318.25203610249486L1008.9346905736844,318.860893963461L1009.3631313939283,318.3460543486112L1010.112902829355,318.7259646752811L1010.6484538546598,318.5899235305308L1010.7555640597208,318.69673564020775L1010.9697844698427,317.748114023784L1012.3622171356352,317.9984457639548L1013.8617600064887,318.2750161084484L1015.682633492525,318.00103349038193L1016.7537355431346,318.55443864095264L1017.7177273886832,317.7781206536054L1018.253278413988,317.52010499740953L1019.1101600544758,318.00808480926986L1019.5386008747196,318.67426933123915L1019.6457110797805,318.412443940501L1019.9670416949634,318.2800817076947L1021.3594743607559,318.7339114677894L1023.1803478467923,318.2439131219547L1024.6798907176458,318.4611165823389L1025.0012213328287,318.4119272495893L1025.3225519480116,318.3094871400416L1026.3936539986212,318.1409542686773L1026.714984613804,318.39466350701935L1027.036315228987,318.8239703582146L1027.4647560492308,319.7696695883784L1028.3216376897185,318.92184168137834L1028.4287478947795,318.22528165952974L1031.9633846617912,318.4307068999882L1032.606045892157,318.1588792268157L1033.9984785579495,318.2961631355425L1034.5340295832543,318.07015954877875L1034.6411397883153,317.5198315576833L1038.068666350266,317.1772324172779L1038.389996965449,317.98545716316164L1038.49710717051,317.95626818101937L1039.5682092211196,318.08107708593434L1042.6744051678872,318.3436823268122L1042.9957357830701,318.1577076630993L1044.1739480387407,318.0792794250366L1044.281058243802,318.1088410198776L1045.5663807045332,317.649822486539L1047.3872541905696,317.6828211434655L1047.7085848057525,317.99314349452686L1053.0640950588006,317.6862182044173L1053.3854256739835,318.1915402571348L1054.1351971094102,317.56174373065113L1054.2423073144712,318.3951914536118L1054.670748134715,318.63072450466615L1055.9560705954466,318.71306150313484L1056.0631808005076,319.02423922533524L1056.3845114156904,318.19986792073644L1058.8480461320926,318.01093070023387L1061.0973604383728,318.3222770199489L1062.0613522839215,318.77397884379917L1062.8111237193482,318.9621443826267L1063.02534412947,318.3620701275852L1065.917319666116,318.84097615906035L1066.238650281299,319.0721686952444L1066.8813115116648,318.3461969727807L1067.4168625369696,318.3422406627914L1067.9524135622744,318.22025234569435L1072.1297115596517,318.336356430281L1072.3439319697738,318.2720126105714L1072.8794829950787,318.16306064380086L1073.0937034052004,318.078781263212L1074.271915660871,317.8099000892532L1075.0216870962977,318.30352994415944L1078.8776544784926,317.85750273842524L1078.9847646835533,318.1596057309447L1079.520315708858,319.09212348993617L1079.627425913919,319.2577879779654L1080.055866734163,318.69443183924636L1080.2700871442848,318.23407941023834L1080.3771973493458,318.74817696744833L1085.625597397333,318.8384474134234L1086.2682586276987,318.6100620210076L1086.8038096530036,317.8686852673067L1087.0180300631255,318.0450518503944L1088.196242318796,317.5821023749295L1088.303352523857,317.8695893118371L1088.7317933441009,318.9002628633774L1088.8389035491618,318.53228621308926L1090.2313362149544,318.53524427540304L1095.5868464680025,318.5208530494027L1097.7290505692217,319.61538187665565L1099.657034260319,318.6252576357725L1100.6210261058677,319.3259736493846L1101.1565771311725,318.7021866819328L1101.3707975412945,318.24941410496285L1101.799238361538,318.47931074052065L1102.1205689767212,318.64312876124893L1103.0845608222699,318.63540819348265L1105.4409853336108,318.2747102415803" fill="none"></path></g></g></g></g><g opacity="0.2"><g><g><g><path style="fill: none;" stroke="rgb(255, 112, 67)" stroke-width="2px" d="M35.19581636448134,5.21659509052639L35.83847759484711,4.934361073662118L36.802469440395775,9.593619481609919L37.76646128594442,10.013811672458138L39.373114361858846,14.56428071813472L41.83664907826097,26.101598695344414L46.12105728069944,118.18054751117234L46.763718511065214,135.83708789148855L47.19215933130906,143.7452411339858L47.406379741430975,144.09580454848745L48.4774817920406,162.49119854653532L50.08413486795503,181.85736285882047L51.58367773880848,194.35917828753358L53.94010225014965,216.15589768456528L54.26143286533254,217.61097780802402L54.58276348051542,219.31916794279664L55.225424710881185,222.18756884637114L57.153408401978496,235.47492591402124L58.76006147789292,245.19875927485313L58.97428188801485,248.9063347937397L59.9382737335635,252.66705042121504L61.11648598923408,258.48441370833257L62.187588039843696,263.3408192307752L63.15157988539236,267.4255730246202L65.18667378155062,276.3221502093345L65.40089419167255,275.0928483381347L67.2217676777089,282.3755075537348L67.43598808783082,282.52775889351966L68.18575952325756,284.94657476372123L68.9355309586843,287.95517414939894L69.04264116374524,288.21796229178807L69.25686157386717,288.1248102801892L74.71948203197623,298.62177397297745L75.46925346740295,300.6390818220454L76.00480449270776,300.9292465296519L77.39723715850027,302.8836913328935L78.6825596192318,305.3629059099902L80.07499228502431,306.9168732338331L80.82476372045103,307.7613349763066L82.11008618118258,308.7274902558182L82.96696782167028,309.7119712557455L83.28829843685317,309.71394272689037L84.46651069252374,309.8400272678423L84.78784130770663,311.3821657648154L86.93004540892586,312.51029532134953L90.67890258605952,315.26421648002986L93.78509853282742,315.3519917521424L93.89220873788837,315.1863881759668L96.56996386441241,317.7851904004697L98.49794755550973,318.27890950379197L99.78327001624127,318.52063874986004L101.81836391239955,319.0959498748857L103.21079657819205,319.559066369299L103.8534578085578,318.429323790919L104.60322924398454,320.670438421101L105.13878026928936,320.99631364012845L106.53121293508185,321.4579963373453L107.70942519075243,321.2670324732597L107.8165353958134,320.793744979985L109.53029867678879,321.78082473733053L111.67250277800802,321.7381244645775L115.52847016020264,322.8228816559227L116.06402118550744,323.1420807567547L116.81379262093418,321.95848117118777L117.45645385129994,322.0833111395929L117.56356405636092,322.21096389622824L118.31333549178764,322.5514459241933L119.2773273373363,322.17377478144857L120.56264979806784,323.5884397464359L122.49063348916515,321.2837899779917L122.70485389928707,321.5633804312752L123.02618451446996,321.78449884264614L123.34751512965283,321.4553527737646L123.66884574483572,321.17119209191776L124.63283759038438,321.8863432497476L125.70393964099401,322.80670663130167L127.84614374221323,321.0796979083272L128.8101355877619,322.96536525230755L129.3456866130667,322.4603101899018L130.2025682535544,321.9943261010959L131.273670304164,321.22303282179746L131.38078050922496,321.261252478312L134.9154172762367,320.5249080056739L135.34385809648057,321.59940458583293L135.98651932684635,320.9542854598111L136.41496014709017,321.95485187203457L136.95051117239498,320.6611187393249L137.05762137745594,323.0961544403099L138.77138465843132,320.5657712257692L139.1998254786752,320.6986214972413L139.9495969141019,320.1312858691201L140.16381732422386,322.07762075696996L140.69936834952867,322.2335462020704L142.62735204062594,321.9906968019427L143.37712347605267,320.98385752698533L147.98286229367403,321.7640672325985L148.30419290885692,320.826543090851L148.6255235240398,320.9056259674608L150.44639701007614,320.81659612280146L151.51749906068576,320.1805726477438L151.83882967586865,319.9859346783426L152.37438070117346,321.81286114343595L152.58860111129542,321.55150679824317L153.55259295684405,322.3172889195683L153.76681336696598,321.1857092885306L156.55167869855097,322.27897965072896L157.08722972385578,321.00290014599904L158.05122156940445,321.8585634290688L159.22943382507503,322.35685276095444L159.55076444025792,322.70132253737165L159.76498485037985,322.68519231891304L160.19342567062367,320.8134596914345L161.47874813135522,322.45793546329537L161.58585833641618,321.62059790064114L164.47783387306217,323.1399748671226L165.12049510342794,321.82249446834874L165.9773767439156,323.86216059244697L166.8342583844033,323.68392167847867L169.83334412611023,323.5621833352782L170.7973359716589,321.74000632339767L172.08265843239042,324.46529634431386L174.33197273867063,325.07672123622206L176.5812870449508,323.16278120377666L177.65238909556044,324.91604633790877L178.18794012086525,323.9117610142074L179.7945931967797,323.99496605775664L181.1870258625722,324.79972954035685L181.50835647775506,324.55338525956313L182.47234832330372,323.7234407137024L183.8647809890962,324.4280176172094L187.6136381662299,324.9802983747691L189.32740144720526,324.4479115533084L189.5416218573272,325.2377545838344L190.077172882632,325.1134174832155L190.50561370287585,326.3585807358997L190.93405452311967,325.86741558383335L191.14827493324162,323.98259955693834L192.96914841927796,325.0448192486038L193.1833688293999,327.7999053675062L193.3975892395218,324.8017010115018L194.5758014951924,324.7397340889231L195.646903545802,324.33513444258494L195.9682341609849,325.0188764805828L197.25355662171646,325.1243501868375L198.11043826220413,326.10569475539774L199.71709133811856,325.66717684413396L203.2517281051303,325.58522637313143L204.001499540557,324.82750936103565L204.64416077092278,325.80647920298946L204.8583811810447,327.3043940176885L206.67925466708107,326.8573181294091L207.96457712781262,325.9923799707256L208.28590774299548,326.047446744297L210.32100163915376,324.65464718655363L210.53522204927572,325.88130549417275L211.0707730745805,325.0052106010553L212.9987567656778,325.6682969981936L213.42719758592168,324.99692146101404L214.28407922640935,326.00098275390354L214.92674045677512,325.43261658404754L215.89073230232378,325.03088453210205L216.9618343529334,325.43924789608053L217.49738537823822,326.01908444350715L217.81871599342108,326.7304270775343L218.88981804403073,325.1975186500125L222.74578542622532,325.0389496413313L223.06711604140824,325.7819702321648L224.13821809201784,326.8685644761678L224.7808793223836,326.20843528574693L224.88798952744455,325.81871128532066L225.31643034768842,325.34605107831936L226.7088630134809,324.6803211176004L228.10129567927342,324.26048737605123L229.06528752482205,324.7827031986505L230.45772019061457,325.17928254192174L231.5288222412242,325.4528689694456L231.74304265134612,324.0606966979757L232.27859367665093,325.9930968693238L232.9212549070167,323.7919941421518L235.06345900823592,326.59090068786685L237.41988351957707,324.0858777612362L239.1336468005525,324.68632514335997L240.52607946634498,324.9245147025996L240.84741008152787,324.9519360739793L241.59718151695458,323.74768084755283L242.23984274732035,324.4235370009709L242.45406315744228,324.0188477423079L242.77539377262516,324.18377922604776L243.20383459286901,324.73404370630016L244.06071623335671,324.8806046634621L244.81048766878345,324.33208762354275L244.91759787384441,323.87372058234234L245.02470807890538,324.2933302930795L245.5602591042102,324.8204747935412L245.988699924454,324.08856613097925L246.52425094975882,325.5465586549931L247.27402238518556,324.94364693393806L247.4882427953075,323.67496044600165L248.8806754611,324.8285847089329L250.91576935725826,323.58615463215426L251.66554079268496,323.9634225194375L251.98687140786788,324.8666699469603L253.3793040736604,323.88187530389644L254.23618571414806,324.340376763584L254.45040612427,323.5485622619131L256.59261022548924,323.90472644671286L259.27036535201324,323.388021782087L259.913026582379,323.29491457665057L260.87701842792774,324.10953541497554L261.0912388380496,322.6538728114058L262.16234088865923,322.9036223605408L264.3045449898785,323.99971551096945L264.5187654000004,323.88716243105785L265.3756470404881,325.26584804764985L267.19652052652447,325.10871283616507L269.33872462774366,322.3481603654517L269.4458348328046,324.13507492753513L270.9453777036581,323.27977009376434L271.266708318841,323.32825036146517L272.23070016438965,323.5218577891315L272.8733613947554,322.0109939935032L273.40891242006023,323.531804757181L275.4440063162185,324.23620243603847L275.8724471364623,325.1448266030475L275.9795573415233,323.2913748898221L276.19377775164526,324.0912545007224L276.3008879567062,324.0234627770336L279.621304313596,323.608109651723L280.04974513383985,324.1685003246744L281.9777288249371,323.2058399258288L282.406169645181,322.10831297820386L282.72750026036385,322.23583131635206L284.0128227210954,324.6366351092748L284.65548395146124,322.993682746935L284.76259415652214,324.1616449818295L286.3692472324366,321.9599149683841L287.6545696931681,322.6389523593315L287.76167989822915,323.4674183018335L289.4754431792045,323.54591869833234L290.76076563993604,322.5609448306189L290.97498605005796,323.25414096888005L291.40342687030176,322.354478034348L291.93897789560657,323.6630420068072L292.1531983057285,322.60731920868756L292.5816391259724,322.75432822747337L293.75985138164293,321.27608331806147L297.8300391739595,322.77202666161554L299.11536163469106,324.11549463457277L301.9002269662761,324.2274204282109L302.3286677865199,322.4507664773138L302.8642188118247,322.67667914805986L302.9713290168857,324.10881851637737L303.0784392219466,321.8427020475845L307.1486270142632,322.71445074295053L312.2899168571893,321.94445684236126L313.7894597280428,322.2462263460254L318.1809781355422,321.93222476003007L318.28808834060317,324.8889386096658L320.2160720317005,322.1816606660284L321.82272510761493,322.62793004338477L323.42937818352937,323.8901644439377L325.03603125944375,323.0504073485146L330.49865171755283,324.1036210015407L331.24842315297957,321.5612745416432L332.42663540865016,322.66767310942043L332.74796602383304,321.73100028475824L334.1403986896255,323.9729214258631L334.5688395098694,323.20633279361505L335.2115007402351,323.3878873635998L335.31861094529614,323.41651850136395L335.42572115035705,322.47348320164303L336.9252640212105,322.7863198274164L337.5679252515763,322.0237189436206L337.88925586675924,321.342217213742L338.6390273021859,321.3098671644999L339.6030191477346,323.56491651118364L341.53100283883185,322.6269891139747L341.6381130438929,322.8404456715777L341.7452232489538,323.3758345059182L342.2807742742586,322.0322321144738L344.20875796535597,322.23820604295844L345.0656396058436,321.9850064193198L345.27986001596554,322.15719650136606L348.0647253475505,321.8311868638515L349.564268218404,321.2582056592698L349.88559883358687,322.283057011506L354.3842274461473,325.25182371882335L355.5624397018179,322.173013076688L356.3122111372446,321.61024767713013L357.16909277773226,322.84017683460337L358.133084623281,323.12138030973273L359.9539581093173,323.41512951033L361.45350098017076,323.373370166987L362.2032724155975,322.8487796177813L362.31038262065846,322.34735385452876L364.55969692693867,322.34583044500766L365.7379091826092,321.3545837145603L366.487680618036,323.39994022128144L368.5227745141942,322.13972209803586L368.6298847192552,322.14276891707806L369.8080969749258,323.2041372916582L370.6649786154135,323.38224178713926L377.3058113291931,323.60914019345785L378.4840235848637,323.73195388455565L378.59113378992464,324.626419304251L379.98356645571715,322.82422584079427L381.16177871138774,323.5223954630801L381.5902195316316,322.52563757465936L382.6613215822412,322.85711356398497L383.41109301766795,321.42080722256566L384.4821950682775,321.6114126373522L386.8386195796187,322.80357019993465L387.0528399897406,323.3126130107927L388.76660327071596,322.1527606912899L388.98082368083794,322.3310444114206L389.0879338858989,322.6655224136259L392.6225706529106,321.85318668958257L394.76477475412986,322.3943555188708L395.8358768047395,322.66749388477086L397.7638604958368,323.01774365613585L401.51271767297044,321.76832381802507L402.4767095185191,322.13815388235236L403.22648095394584,322.44780927059634L403.8691421843116,321.02064338630356L404.1904727994945,322.9309989257581L404.29758300455546,321.21729763301215L405.0473544399822,322.095184772625L405.475795260226,320.9869491521899L407.83221977156717,322.61614602267747L409.01043202723775,321.6528135313961L410.40286469303027,322.5969689851766L410.8313055132741,322.8029429136613L410.9384157183351,321.3443231033741L411.4739667436399,323.2745725789277L412.0095177689447,322.77695533947787L412.11662797400567,322.7804054139815L415.7583749460784,321.26985526148997L416.1868157663222,321.3290890081631L416.5081463815051,323.21336736110953L418.1147994574195,321.8991578121898L418.8645708928463,323.5189005824141L420.25700355863876,322.2286623303704L423.4703097104676,322.2247641942429L423.6845301205895,321.83817662518356L425.29118319650394,324.8192202209944L428.8258199635157,323.0862074722604L429.3613709888205,323.8242097729067L430.3253628343691,323.4460905685382L431.2893546799178,323.843207585758L431.3964648849788,321.11527400126107L433.431558781137,322.8849381908262L434.9311016519905,320.5700726173582L436.1093139076611,322.3316268915316L436.21642411272205,323.0301997692789L437.2875261633317,323.12209720833096L438.5728486240632,321.56956368168443L440.1795016999776,320.6952162289L441.0363833404653,321.91174834382L444.03546908217226,321.85184250471104L444.4639099024161,321.38057128874374L445.42790174796477,321.1212332208583L445.6421221580867,322.6628788500452L446.71322420869626,323.2320067246618L448.8554283099155,323.08396716414114L450.354971180769,320.7093301700513L451.2118528212567,321.41583373854087L451.64029364150053,320.59198283076455L452.0687344617444,321.88894200716595L452.6042854870492,323.57463944842124L453.4611671275369,322.81732569178695L453.9967181528417,322.79097966830443L455.38915081863416,322.6381010422462L456.46025286924385,321.99163773135285L457.10291409960956,322.1627524655018L457.74557532997534,322.24335875163274L458.709567175524,322.0796818404397L460.4233304564994,323.69306213560526L461.387322302048,321.57910739427246L461.8157631222919,320.9013693820342L462.67264476277956,321.9899350971822L463.5295264032673,321.55195485986707L464.4935182488159,322.44498648236606L465.77884070954747,322.0345620349178L468.67081624619345,322.01157647361424L469.0992570664373,321.4670471821471L469.6348080917421,321.6945280685767L469.956138706925,323.2985438758038L470.1703591170469,322.4921225651953L471.3485713727175,322.10943313226346L475.31164895997307,321.29458826312657L477.5609632662533,322.76557457423206L479.2747265472287,321.7350328393729L479.70316736747253,321.754478713848L479.8102775725335,322.580032255795L480.4529388028992,321.1815871215911L480.56004900796023,322.8164295685392L480.66715921302114,322.3889339732222L481.20271023832595,321.5823334379642L481.6311510585698,320.9687578502615L483.0235837243623,322.0923619843947L483.45202454460616,321.9795848736712L485.0586776205206,322.73528560845966L485.5942286458254,322.2577415297584L485.7013388508863,321.2715578956606L486.02266946606926,321.8965590547715L486.87955110655696,321.54635408956887L489.34308582295904,322.4884484598797L490.7355184887516,320.99685131407705L491.27106951405636,321.37259579183916L492.2350613596051,321.40557312735467L493.5203838203366,321.6048709376439L494.16304505070235,322.68210069370843L495.4483675114339,320.3811250305799L497.5905716126531,321.4121148270629L498.6616736632627,321.63695214991174L498.76878386832374,322.30675947140776L498.9830042784456,323.0629082678201L499.73277571387234,322.1292822622001L500.26832673917716,321.6611922837621L500.696767559421,321.3697730036089L500.80387776448197,320.90428178258924L501.44653899484774,321.9576298541025L502.1963104302745,320.912974178092L504.1242941213718,320.2380141479216L507.65893088838357,321.3767179587786L508.62292273393217,321.201346639203L508.8371431440541,321.40472181026934L510.65801663009046,322.81669840551353L510.97934724527335,320.9820652804899L512.9073309363706,323.30154588868356L513.0144411414316,321.7910405423543L514.621094217346,322.12672831094415L518.9055024197845,321.12091957772157L521.9045881614915,321.5165579915828L522.1188085716133,321.0606552893135L522.2259187766743,323.19226365862613L522.7614698019792,320.3040584312774L524.1539024677716,321.60424365137055L526.081886158869,321.4640451692673L526.2961065689908,323.0581140084449L526.6174371841738,320.8832228862682L528.545420875271,320.9373935365919L529.7236331309416,320.66349346593125L530.4734045663683,320.898322562992L530.7947351815512,321.16590496475635L531.1160657967341,321.05944552292914L532.0800576422828,320.2250203608299L532.1871678473437,322.3843637446589L533.9009311283191,322.1688909097486L534.1151515384411,320.27049861565087L537.3284576902699,320.91481123074976L538.7208903560625,320.80785892113636L539.3635515864281,319.8895118168897L540.4346536370379,321.62628828326405L541.8270863028304,323.2205363470911L542.1484169180131,321.20506555068096L542.3626373281351,320.79186312116485L544.0764006091106,320.1579007295769L544.9332822495982,322.37002577269567L546.7541557356345,321.80918703812034L548.146588401427,322.42415161685693L548.7892496317928,320.9524932133157L550.3959027077073,320.1179336327293L551.4670047583169,321.6519174081484L553.930539474719,322.0031081089234L554.03764967978,320.28774898816914L555.6443027556944,320.2023932488254L557.0367354214869,321.9438743622502L557.1438456265479,321.40884397720873L560.5713721884986,320.5873677960389L561.4282538289864,320.9548679399221L562.3922456745349,321.9368846009181L563.0349069049007,322.6115757941142L563.5704579302055,320.4384769184329L564.962890595998,321.51691644088186L566.5695436719125,320.17895962589796L567.961976337705,321.83871429913216L571.0681722844729,320.8048569082565L571.1752824895339,320.5102115844116L571.9250539249606,321.11800717716653L573.5317070008749,321.1583775294756L573.6388172059359,320.9986883667348L575.1383600767894,321.1132577239537L575.2454702818504,321.12472810152434L575.8881315122162,320.65668292924875L582.4218540209348,320.16560738950716L584.8853887373369,320.04050858412774L586.1707111980685,321.747488952516L586.5991520183122,321.3613046389181L586.8133724284343,322.8733333947684L587.0275928385561,320.1491187217494L587.4560336588,321.60845543063476L588.7413561195316,319.62802305320974L589.1697969397753,320.257370410072L589.9195683752021,322.15298472210185L590.562229605568,321.0671969890218L595.810629653555,321.60881387993385L597.3101725244085,321.53035828959736L597.6315031395914,321.30614825302195L597.8457235497134,320.6916765420716L599.3452664205668,319.51210951111926L601.2732501116641,320.72460907142465L602.3443521622737,321.0588182366557L603.3083440078223,320.80570822534185L603.9510052381881,321.2627310816707L604.8078868786757,321.25135031642486L605.8789889292854,320.00511171584344L605.9860991343464,320.78612793237954L607.5927522102609,321.0999502937253L608.9851848760534,320.41401275377063L611.3416093873944,320.67841391800556L612.626931848126,321.0716776052603L615.1975767695891,320.4072470232504L615.411797179711,322.1569276643918L617.1255604606864,320.95894530069916L617.2326706657474,320.5926549232003L618.410882921418,319.6131026011355L618.6251033315399,319.91527536026115L618.7322135366009,322.0169980192628L618.8393237416618,319.0670499001473L619.0535441517837,321.32438436111266L621.7312992783078,320.10332682379175L622.6952911238565,322.8184010396842L625.9085972756852,320.1673996360026L626.7654789161729,319.8565344813742L627.7294707617216,320.0427040860846L628.1579115819654,319.67695138253436L630.6214462983676,322.0086640730592L630.9427769135505,320.3197405881122L631.1569973236724,319.20836853631016L631.9067687590991,320.47526277775114L632.120989169221,320.43910420470627L632.3352095793429,320.09772605349366L634.2631932704403,320.7406048713962L635.3342953210499,321.1602145821334L635.9769565514156,321.62669153872554L636.5125075767205,319.529987169911L637.9049402425129,319.19187986855246L638.119160652635,320.6237055937333L639.8329239336103,320.9924603101633L641.8680178297685,319.77839253417443L642.9391198803781,319.8842246897282L643.474670905683,321.95807791572634L644.8671035714755,320.22174951097577L646.259536237268,320.69467855495134L647.1164178777557,318.5132905392288L647.2235280828168,320.10493984563766L648.2946301334263,321.09385665564093L649.7941730042796,321.1931919176489L651.0794954650113,319.5540928852742L653.6501403864744,319.2619119003605L653.7572505915354,321.1337789463261L657.3989975636081,318.6489187927688L657.61321797373,319.9426967316409L659.0056506395224,319.6983239219921L661.6834057660465,319.8622696701595L662.4331772014733,319.8934547591796L663.1829486369,318.7559159085446L664.8967119178753,319.76297921431393L666.1820343786069,318.7259853920713L666.5033649937897,320.42064406580363L667.7886874545213,318.93989001129813L667.8957976595823,319.72758234602964L668.4313486848871,320.3668766709414L669.1811201203138,319.39978046201963L670.0380017608015,320.0872414114955L670.2522221709235,318.5826056724387L671.7517650417769,318.47157600204827L672.3944262721426,319.0160156811906L673.0370875025084,320.24854359608213L674.0010793480571,318.61029588079276L674.6437405784228,318.7266574845071L676.1432834492763,319.58294805385026L677.6428263201298,319.43011423395444L679.0352589859223,321.6949313240382L679.677920216288,319.01063894170437L680.1063610365319,319.0743084984537L680.5348018567757,319.15603493864427L681.0703528820806,318.7084213764163L681.2845732922025,320.3054474223113L681.3916834972634,319.91885985325194L681.6059039073854,319.22337860070917L682.2485651377511,318.7178306705172L684.7120998541532,318.93845621410185L684.9263202642752,320.501071127285L685.8903121098239,317.66739499955906L686.9614141604335,318.6334158605835L690.1747203122623,319.2447959463293L691.8884835932378,319.84909665841826L692.7453652337254,319.4254543930664L692.8524754387863,319.3357076498088L693.4951366691521,317.7168610028323L693.816467284335,319.07511500937665L696.3871122057981,318.252742704959L696.60133261592,319.1057624244481L697.2439938462858,319.5547201715476L698.2079856918344,318.5805893951314L699.171977537383,319.58980339669523L699.493308152566,317.7686569265495L702.385283689212,318.3385913120891L703.0279449195777,318.1612037152061L706.5625816865894,317.3507050438206L707.0981327118943,318.4401668822162L713.524745015552,320.52911978493813L714.0602960408567,318.9876085742384L714.2745164509787,318.69954975626405L714.3816266560397,319.007457704175L715.3456185015883,318.8102657835178L718.1304838331732,318.7502703320841L718.2375940382343,318.56656506630486L718.8802552686,319.0991759185775L719.5229164989657,318.67539923473845L720.1655777293316,317.80952014664484L721.3437899850021,318.5429970248902L722.4148920356117,318.19767593138766L723.8073247014044,320.2907061948866L726.0566390076845,317.56057710843277L727.234851263355,317.7899846598449L728.9486145443306,317.96656574580487L730.7694880303667,318.45365353709417L730.9837084404887,319.4582973100947L731.7334798759155,318.4282036368594L733.018802336647,319.6814768049353L734.7325656176224,318.7767507740537L735.803667668232,318.6080555726735L737.0889901289635,319.700519423949L737.1961003340245,318.3236708600148L737.7316513593292,319.644914976429L740.3022962807923,319.7960013559918L741.0520677162191,318.65658064653667L744.051153457926,316.9677467739144L744.4795942781699,316.9086922518908L746.0862473540843,318.9796330773338L747.050239199633,318.2576713828214L748.0142310451816,318.80273834823714L748.4426718654255,318.2789991161167L752.834190272925,318.3670432252036L753.2626310931688,318.3601878823587L753.3697412982297,316.9656408842823L753.9052923235346,316.91545798241094L755.404835194388,320.0069935746636L755.9403862196928,316.7322903905803L756.3688270399366,318.2556102993517L756.9043780652415,318.17285331742625L760.1176842170703,317.8806275263501L760.5461250373143,317.964952723959L761.7243372929847,317.7656549136697L762.4741087284115,316.78637142857923L763.0096597537163,316.69864096262904L764.1878720093868,318.1223119662558L764.5092026245698,316.5483610939891L765.1518638549355,319.5209363251092L766.1158557004842,316.38114449596765L766.3300761106061,318.4398532390795L767.6153985713377,317.2897686629767L768.2580598017033,318.42739712593647L769.436272057374,317.1616678447175L769.6504924674958,318.53685858064347L769.8647128776179,317.9230141559665L770.9358149282275,317.8745338882657L772.7566884142639,317.2738176691676L773.0780190294466,317.613179543073L773.3993496446295,317.04812902923345L774.5775619003001,318.4813885516106L775.0060027205441,319.41909191800767L775.1131129256049,316.8458740122267L775.2202231306659,318.52274463949215L775.4344435407879,317.40371073392225L776.2913251812755,316.2997765050761L777.4695374369461,318.8682897638067L779.7188517432263,317.4696205987908L779.8259619482873,318.39379250414754L780.0401823584092,317.1296762447745L780.7899537938359,317.28833486578037L783.574819125421,320.01591000097824L785.7170232266401,319.53661848194395L787.6450069177375,316.9574413565658L789.8943212240177,318.8117891930389L790.2156518392006,318.0956074934742L792.143635530298,317.6378229323848L792.7862967606636,317.6574480315095L794.2858396315171,319.15751354200296L795.1427212720048,316.4679788386701L796.7493743479192,317.5471352597172L797.284925373224,318.60240999621294L798.1418070137117,317.5627278042273L798.4631376288946,317.47033749738904L798.8915784491385,317.25692574594837L799.3200192693823,316.80908815290854L799.855570294687,317.0486218970197L800.284011114931,317.47916431137884L801.1408927554187,318.83468514201775L801.5693335756625,318.55339205456363L802.3191050110892,319.3068524812328L803.1759866515769,319.48934798062766L803.7115376768818,317.4101628213057L805.853741778101,319.7075091852811L806.1750723932838,318.67504078543936L806.6035132135278,316.72489737378675L807.0319540337716,318.8266200327884L812.1732438766977,317.36943401969756L815.3865500285265,319.6837619192169L816.2434316690143,317.10427115070206L817.100313309502,317.7212968129084L817.2074235145628,317.68464537207734L817.4216439246849,318.02535143085424L818.7069663854163,317.7817851321284L820.0993990512089,317.79545101165587L821.3847215119404,318.42511201165485L821.9202725372453,318.5918805480524L822.9913745878549,317.4809117517119L824.8122480738913,317.6449471122041L824.9193582789521,317.67035220627645L825.1335786890742,318.06836534674403L825.347799099196,318.71899563073924L827.5971134054762,317.94429708309946L829.3108766864516,320.4980691144052L830.917529762366,322.1037427496405L832.0957420180365,319.71145212757096L832.2028522230976,317.8493976311676L833.0597338635853,318.0374939008606L833.809505299012,317.9152626898738L834.2379461192559,318.46987336787765L835.4161583749263,318.35306370253943L837.8796930913286,319.27253096084576L837.9868032963894,318.82079523167835L838.4152441166333,320.0291726250443L840.4503380127917,319.669468753416L842.6996523190718,318.7429669276153L843.1280931393156,318.3605015254954L843.9849747798033,320.44560109825215L845.2702972405349,321.4585788174563L848.4836033923636,317.8817924865721L848.6978238024857,318.20574104061694L849.3404850328515,318.6625398661339L849.6618156480343,318.70591223132277L850.8400279037049,317.5219990026191L852.0182401593755,317.5170255185943L852.2324605694973,319.48531542601296L853.196452415046,318.2591947923425L853.7320034403509,319.5580358275641L855.2315463112044,319.04070387666485L856.088427951692,318.0861981993733L856.6239789769968,318.04103358768907L858.2306320529113,319.28798908686866L859.9443953338866,316.8997758255761L860.6941667693134,318.82630638965173L861.3368279996791,318.1212814245209L861.8723790249838,317.0325364847234L863.0505912806545,319.502072930745L865.7283464071786,317.43337241342124L866.6923382527272,317.5700760148584L868.1918811235806,318.3730024448008L868.5132117387635,318.5464470993939L869.4772035843123,319.5590215631366L869.6914239944341,318.615672620279L871.8336280956534,318.1264789393576L871.9407383007144,319.94578835684547L872.3691791209583,320.1102717789615L873.4402811715679,319.12247512301775L874.7256036322993,319.6631510845197L876.3322567082138,319.28785466838144L878.9029016296769,318.0926502867568L879.7597832701646,317.58114313696757L880.4024445005302,318.91538104047345L881.47354655114,318.74162274274374L883.4015302422372,320.35007436004696L883.5086404472983,318.5439827604627L883.7228608574201,317.0113431699152L884.044191472603,319.56825163258793L884.7939629080297,317.79657116571553L885.7579547535785,317.23461227708054L886.5077261890052,317.7079445765176L887.0432772143099,318.8938292763662L887.257497624432,318.5161581336215L887.7930486497366,318.5355143957719L888.5428200851634,317.68903637599107L889.828142545895,319.0787891146922L890.6850241863826,317.55385618407496L890.8992445965047,317.64463346906734L891.0063548015655,319.5406510365587L891.2205752116874,319.33991942907306L895.8263140293088,319.15737912351585L896.6831956697965,319.48397124114143L897.2187466951013,318.04434924370554L898.3969589507719,319.94646044928123L898.7182895659548,319.9797514279335L898.9325099760766,319.8124004114248L900.753383462113,316.89000808217617L900.967603872235,317.704494502014L901.9315957177836,318.40051342850535L902.7884773582714,318.01146152051484L903.0026977683932,320.28954123466457L903.8595794088809,318.24122752122605L904.2880202291249,318.6099822376561L904.7164610493687,318.1697168860593L905.0377916645516,318.6833299254806L905.2520120746734,318.3441024700624L906.323114125283,319.75773689331487L906.6444447404659,318.40463559544474L908.8937590467461,318.9937470184851L909.0008692518071,318.7268367091566L911.7857345833921,317.3777679659012L912.6426162238798,318.6355217502156L912.7497264289407,318.37851360277426L913.9279386846114,319.73730528326723L914.9990407352209,318.44917292085563L915.2132611453429,318.4886919560794L916.1772529908916,318.73817266824005L919.0692285275375,319.74232357345437L919.1763387325985,317.894114181228L919.7118897579032,318.68449488570263L920.1403305781471,316.9134417051036L921.1043224236957,316.92800370787876L921.8540938591225,319.81939017275687L921.9612040641834,317.76807444643856L923.9962979603417,317.941339876382L924.5318489856465,318.52023549439855L925.8171714463781,318.00196261408917L926.8882734969876,319.629098401107L927.4238245222925,317.4881255438559L927.5309347273535,317.9640117945489L929.1375878032679,317.79083597693017L929.7802490336337,319.0793715948032L929.9944694437556,317.43355163807075L930.2086898538774,317.42580017197815L931.2797919044871,320.3161560951214L931.6011225196701,318.9090185654148L934.3859878512551,318.6250371082175L934.814428671499,319.1847108825708L935.2428694917428,317.1093342470516L935.4570899018647,317.7102296907993L935.5642001069257,318.50217861095734L935.9926409271694,317.38099400959294L936.0997511322304,319.0347446570676L936.3139715423524,319.43607345355167L936.4210817474133,317.60296373804914L942.6334736409491,318.8293980148563L943.9187961016806,317.5417137140686L946.0610002028999,317.9982885087736L947.3463226636314,317.5721819044905L949.5956369699117,318.8740249525919L949.9169675850944,317.7983186060485L950.3454084053384,317.8971610002702L950.8809594306431,321.3989418153217L951.6307308660698,318.377438254877L951.7378410711308,318.4151202374429L952.5947227116186,318.6600755272027L953.1302737369233,320.22761911824824L953.7729349672891,317.9732866701627L954.3084859925939,317.2979681906932L954.415596197655,318.1328414144163L955.3795880432035,319.02694838481256L955.5938084533254,319.5093315290514L955.9151390685084,318.94988178551006L956.3435798887522,318.1176969315301L956.4506900938131,318.6737414067302L960.9493187063736,319.7494029471112L961.5919799367393,318.43461091808047L962.3417513721661,318.91184135364506L964.1626248582024,318.9911034549044L964.5910656784463,316.85488005086614L965.340837113873,316.2595853774166L968.1257024454579,318.0892898245779L968.7683636758237,318.1336479253392L969.3039147011286,320.3112722234214L970.1607963416162,318.7619199343042L970.4821269567991,318.0958315242861L971.3390085972868,317.55582765521996L971.6603392124697,319.46667606246075L971.7674494175307,317.9165172624206L973.2669922883841,318.3535565703257L975.0878657744205,318.61240177042487L977.3371800807007,317.66067407520126L977.6585106958836,317.34640365223163L977.7656209009444,318.53296044451594L978.1940617211884,316.73972821353624L979.47938418192,318.57978288420844L979.6936045920419,318.47054546031336L980.9789270527734,318.62337928020924L981.9429188983221,318.66598994063753L982.264249513505,319.3503144587464L982.5855801286878,317.9105580428234L982.7998005388098,316.4626469053463L983.7637923843585,317.8925907717069L985.0491148450899,318.51553084734815L987.4055393564311,318.655102043178L989.2264128424674,317.9126191262931L989.5477434576503,317.72900347283866L991.1543965335647,317.90504688485004L991.6899475588696,317.9690748908984L992.0112781740524,318.9996166257576L992.1183883791134,316.7535285115509L992.3326087892353,316.9250465011614L993.0823802246621,318.9615313877302L993.5108210449059,319.41694122221315L994.3677026853936,318.562980573314L995.3316945309423,317.68769219111954L996.5099067866129,318.83015971961686L998.3307802726492,316.51937150692595L998.4378904777101,317.6704866247636L998.6521108878321,319.2200629446927L998.7592210928931,317.2798665010896L1000.0445435536245,317.18873076679813L1001.0085353991732,319.6587152744436L1008.0778089331967,318.8324448338985L1008.1849191382577,317.7445064050239L1008.9346905736844,319.7741807549102L1009.3631313939283,317.5737949263364L1010.112902829355,319.295830165286L1010.6484538546598,318.38586181340537L1010.7555640597208,318.85695380472316L1010.9697844698427,316.32518159914855L1012.3622171356352,318.3739433742109L1013.8617600064887,318.68987162518886L1015.682633492525,317.59005956328224L1016.7537355431346,319.3845463668087L1017.7177273886832,316.6136436725844L1018.253278413988,317.13308151311577L1019.1101600544758,318.74005452706024L1019.5386008747196,319.67354611419313L1019.6457110797805,318.01970585439375L1019.9670416949634,318.08153835848526L1021.3594743607559,319.41465610793153L1023.1803478467923,317.50891560320264L1024.6798907176458,318.78692177291515L1025.0012213328287,318.3381432504652L1025.3225519480116,318.1558269757199L1026.3936539986212,317.8881549616308L1026.714984613804,318.7752273645326L1027.036315228987,319.4679306350075L1027.4647560492308,321.1882184336242L1028.3216376897185,317.6500998208784L1028.4287478947795,317.1804416267569L1031.9633846617912,318.7388447606759L1032.606045892157,317.7511377170569L1033.9984785579495,318.5020889986326L1034.5340295832543,317.73115416863317L1034.6411397883153,316.6943395710401L1038.068666350266,316.6633337066695L1038.389996965449,319.1977942819873L1038.49710717051,317.91248470780596L1039.5682092211196,318.2682904433067L1042.6744051678872,318.73759018812905L1042.9957357830701,317.8787456675299L1044.1739480387407,317.9616370679425L1044.281058243802,318.15318341213913L1045.5663807045332,316.96129468653095L1047.3872541905696,317.7323191288552L1047.7085848057525,318.45862702111896L1053.0640950588006,317.2258302692531L1053.3854256739835,318.949523336211L1054.1351971094102,316.61704894092566L1054.2423073144712,319.64536303805284L1054.670748134715,318.9840240812476L1055.9560705954466,318.83656700083793L1056.0631808005076,319.49100580863586L1056.3845114156904,316.9633109638383L1058.8480461320926,317.7275248694799L1061.0973604383728,318.7892964995216L1062.0613522839215,319.4515315795746L1062.8111237193482,319.24439269086787L1063.02534412947,317.46195874502297L1065.917319666116,319.55933520627326L1066.238650281299,319.4189574995205L1066.8813115116648,317.2572393890851L1067.4168625369696,318.3363061978074L1067.9524135622744,318.0372698700487L1072.1297115596517,318.51051255716095L1072.3439319697738,318.175496881007L1072.8794829950787,317.99963269364514L1073.0937034052004,317.95236219232874L1074.271915660871,317.4065783283149L1075.0216870962977,319.04397472651897L1078.8776544784926,317.1884619298238L1078.9847646835533,318.61276021972395L1079.520315708858,320.49090012842356L1079.627425913919,319.5062847100092L1080.055866734163,317.8493976311676L1080.2700871442848,317.54355076672636L1080.3771973493458,319.5193233032633L1085.625597397333,318.97385308238614L1086.2682586276987,318.26748393238375L1086.8038096530036,316.7566201367555L1087.0180300631255,318.3096017250258L1088.196242318796,316.88767816173214L1088.303352523857,318.3008197171983L1088.7317933441009,320.4462731906879L1088.8389035491618,317.98032123765717L1090.2313362149544,318.53968136887374L1095.5868464680025,318.4992662104023L1097.7290505692217,321.2571751175349L1099.657034260319,317.14007127444785L1100.6210261058677,320.37704766980283L1101.1565771311725,317.76650623075506L1101.3707975412945,317.57025523950796L1101.799238361538,318.8241556938572L1102.1205689767212,318.8888557923414L1103.0845608222699,318.6238273418331L1105.4409853336108,317.7336633137267" fill="none"></path></g></g></g></g></g></g><g transform="translate(51, 376)" clip-path="url(#clip_1)"><clipPath id="clip_1"><rect width="1119" height="23"></rect></clipPath><g><g><line x1="34.55315513411557" y1="0" x2="34.55315513411557" y2="5" style="visibility: inherit;" fill="rgb(0, 0, 0)" stroke="rgb(204, 204, 204)" stroke-width="1px"></line><line x1="141.6633601950773" y1="0" x2="141.6633601950773" y2="5" style="visibility: inherit;" fill="rgb(0, 0, 0)" stroke="rgb(204, 204, 204)" stroke-width="1px"></line><line x1="248.773565256039" y1="0" x2="248.773565256039" y2="5" style="visibility: inherit;" fill="rgb(0, 0, 0)" stroke="rgb(204, 204, 204)" stroke-width="1px"></line><line x1="355.8837703170007" y1="0" x2="355.8837703170007" y2="5" style="visibility: inherit;" fill="rgb(0, 0, 0)" stroke="rgb(204, 204, 204)" stroke-width="1px"></line><line x1="462.9939753779625" y1="0" x2="462.9939753779625" y2="5" style="visibility: inherit;" fill="rgb(0, 0, 0)" stroke="rgb(204, 204, 204)" stroke-width="1px"></line><line x1="570.1041804389242" y1="0" x2="570.1041804389242" y2="5" style="visibility: inherit;" fill="rgb(0, 0, 0)" stroke="rgb(204, 204, 204)" stroke-width="1px"></line><line x1="677.2143854998859" y1="0" x2="677.2143854998859" y2="5" style="visibility: inherit;" fill="rgb(0, 0, 0)" stroke="rgb(204, 204, 204)" stroke-width="1px"></line><line x1="784.3245905608477" y1="0" x2="784.3245905608477" y2="5" style="visibility: inherit;" fill="rgb(0, 0, 0)" stroke="rgb(204, 204, 204)" stroke-width="1px"></line><line x1="891.4347956218094" y1="0" x2="891.4347956218094" y2="5" style="visibility: inherit;" fill="rgb(0, 0, 0)" stroke="rgb(204, 204, 204)" stroke-width="1px"></line><line x1="998.545000682771" y1="0" x2="998.545000682771" y2="5" style="visibility: inherit;" fill="rgb(0, 0, 0)" stroke="rgb(204, 204, 204)" stroke-width="1px"></line><line x1="1105.655205743733" y1="0" x2="1105.655205743733" y2="5" style="visibility: inherit;" fill="rgb(0, 0, 0)" stroke="rgb(204, 204, 204)" stroke-width="1px"></line></g><g transform="translate(0, 8)"><text style="text-anchor: middle; visibility: inherit; font-family: Roboto, sans-serif; font-size: 12px; font-weight: 200;" x="34.55315513411557" y="0" dx="0em" dy="0.95em" fill="rgb(33, 33, 33)" stroke="none" stroke-width="1px">0</text><text style="text-anchor: middle; visibility: inherit; font-family: Roboto, sans-serif; font-size: 12px; font-weight: 200;" x="141.6633601950773" y="0" dx="0em" dy="0.95em" fill="rgb(33, 33, 33)" stroke="none" stroke-width="1px">1k</text><text style="text-anchor: middle; visibility: inherit; font-family: Roboto, sans-serif; font-size: 12px; font-weight: 200;" x="248.773565256039" y="0" dx="0em" dy="0.95em" fill="rgb(33, 33, 33)" stroke="none" stroke-width="1px">2k</text><text style="text-anchor: middle; visibility: inherit; font-family: Roboto, sans-serif; font-size: 12px; font-weight: 200;" x="355.8837703170007" y="0" dx="0em" dy="0.95em" fill="rgb(33, 33, 33)" stroke="none" stroke-width="1px">3k</text><text style="text-anchor: middle; visibility: inherit; font-family: Roboto, sans-serif; font-size: 12px; font-weight: 200;" x="462.9939753779625" y="0" dx="0em" dy="0.95em" fill="rgb(33, 33, 33)" stroke="none" stroke-width="1px">4k</text><text style="text-anchor: middle; visibility: inherit; font-family: Roboto, sans-serif; font-size: 12px; font-weight: 200;" x="570.1041804389242" y="0" dx="0em" dy="0.95em" fill="rgb(33, 33, 33)" stroke="none" stroke-width="1px">5k</text><text style="text-anchor: middle; visibility: inherit; font-family: Roboto, sans-serif; font-size: 12px; font-weight: 200;" x="677.2143854998859" y="0" dx="0em" dy="0.95em" fill="rgb(33, 33, 33)" stroke="none" stroke-width="1px">6k</text><text style="text-anchor: middle; visibility: inherit; font-family: Roboto, sans-serif; font-size: 12px; font-weight: 200;" x="784.3245905608477" y="0" dx="0em" dy="0.95em" fill="rgb(33, 33, 33)" stroke="none" stroke-width="1px">7k</text><text style="text-anchor: middle; visibility: inherit; font-family: Roboto, sans-serif; font-size: 12px; font-weight: 200;" x="891.4347956218094" y="0" dx="0em" dy="0.95em" fill="rgb(33, 33, 33)" stroke="none" stroke-width="1px">8k</text><text style="text-anchor: middle; visibility: inherit; font-family: Roboto, sans-serif; font-size: 12px; font-weight: 200;" x="998.545000682771" y="0" dx="0em" dy="0.95em" fill="rgb(33, 33, 33)" stroke="none" stroke-width="1px">9k</text><text style="text-anchor: middle; visibility: inherit; font-family: Roboto, sans-serif; font-size: 12px; font-weight: 200;" x="1105.655205743733" y="0" dx="0em" dy="0.95em" fill="rgb(33, 33, 33)" stroke="none" stroke-width="1px">10k</text></g><line x1="0" y1="0" x2="1119.3579997253419" y2="0" fill="rgb(0, 0, 0)" stroke="rgb(204, 204, 204)" stroke-width="1px"></line></g></g></g></g></svg>