<svg viewBox="0 0 1171.1666259765625 400" xmlns="http://www.w3.org/2000/svg"><g><g><g><g><g><line x1="51.8120002746582" y1="367.885191910227" x2="46.8120002746582" y2="367.885191910227" style="visibility: inherit;" fill="rgb(0, 0, 0)" stroke="rgb(204, 204, 204)" stroke-width="1px"></line><line x1="51.8120002746582" y1="330.2990586868644" x2="46.8120002746582" y2="330.2990586868644" style="visibility: inherit;" fill="rgb(0, 0, 0)" stroke="rgb(204, 204, 204)" stroke-width="1px"></line><line x1="51.8120002746582" y1="292.7129254635018" x2="46.8120002746582" y2="292.7129254635018" style="visibility: inherit;" fill="rgb(0, 0, 0)" stroke="rgb(204, 204, 204)" stroke-width="1px"></line><line x1="51.8120002746582" y1="255.12679224013928" x2="46.8120002746582" y2="255.12679224013928" style="visibility: inherit;" fill="rgb(0, 0, 0)" stroke="rgb(204, 204, 204)" stroke-width="1px"></line><line x1="51.8120002746582" y1="217.54065901677666" x2="46.8120002746582" y2="217.54065901677666" style="visibility: inherit;" fill="rgb(0, 0, 0)" stroke="rgb(204, 204, 204)" stroke-width="1px"></line><line x1="51.8120002746582" y1="179.95452579341418" x2="46.8120002746582" y2="179.95452579341418" style="visibility: inherit;" fill="rgb(0, 0, 0)" stroke="rgb(204, 204, 204)" stroke-width="1px"></line><line x1="51.8120002746582" y1="142.36839257005158" x2="46.8120002746582" y2="142.36839257005158" style="visibility: inherit;" fill="rgb(0, 0, 0)" stroke="rgb(204, 204, 204)" stroke-width="1px"></line><line x1="51.8120002746582" y1="104.78225934668897" x2="46.8120002746582" y2="104.78225934668897" style="visibility: inherit;" fill="rgb(0, 0, 0)" stroke="rgb(204, 204, 204)" stroke-width="1px"></line><line x1="51.8120002746582" y1="67.19612612332648" x2="46.8120002746582" y2="67.19612612332648" style="visibility: inherit;" fill="rgb(0, 0, 0)" stroke="rgb(204, 204, 204)" stroke-width="1px"></line><line x1="51.8120002746582" y1="29.609992899963864" x2="46.8120002746582" y2="29.609992899963864" style="visibility: inherit;" fill="rgb(0, 0, 0)" stroke="rgb(204, 204, 204)" stroke-width="1px"></line></g><g transform="translate(41.8120002746582, 0)"><text style="text-anchor: end; visibility: inherit; font-family: Roboto, sans-serif; font-size: 12px; font-weight: 200;" x="0" y="367.885191910227" dx="0em" dy="0.3em" fill="rgb(33, 33, 33)" stroke="none" stroke-width="1px">0.45</text><text style="text-anchor: end; visibility: inherit; font-family: Roboto, sans-serif; font-size: 12px; font-weight: 200;" x="0" y="330.2990586868644" dx="0em" dy="0.3em" fill="rgb(33, 33, 33)" stroke="none" stroke-width="1px">0.5</text><text style="text-anchor: end; visibility: inherit; font-family: Roboto, sans-serif; font-size: 12px; font-weight: 200;" x="0" y="292.7129254635018" dx="0em" dy="0.3em" fill="rgb(33, 33, 33)" stroke="none" stroke-width="1px">0.55</text><text style="text-anchor: end; visibility: inherit; font-family: Roboto, sans-serif; font-size: 12px; font-weight: 200;" x="0" y="255.12679224013928" dx="0em" dy="0.3em" fill="rgb(33, 33, 33)" stroke="none" stroke-width="1px">0.6</text><text style="text-anchor: end; visibility: inherit; font-family: Roboto, sans-serif; font-size: 12px; font-weight: 200;" x="0" y="217.54065901677666" dx="0em" dy="0.3em" fill="rgb(33, 33, 33)" stroke="none" stroke-width="1px">0.65</text><text style="text-anchor: end; visibility: inherit; font-family: Roboto, sans-serif; font-size: 12px; font-weight: 200;" x="0" y="179.95452579341418" dx="0em" dy="0.3em" fill="rgb(33, 33, 33)" stroke="none" stroke-width="1px">0.7</text><text style="text-anchor: end; visibility: inherit; font-family: Roboto, sans-serif; font-size: 12px; font-weight: 200;" x="0" y="142.36839257005158" dx="0em" dy="0.3em" fill="rgb(33, 33, 33)" stroke="none" stroke-width="1px">0.75</text><text style="text-anchor: end; visibility: inherit; font-family: Roboto, sans-serif; font-size: 12px; font-weight: 200;" x="0" y="104.78225934668897" dx="0em" dy="0.3em" fill="rgb(33, 33, 33)" stroke="none" stroke-width="1px">0.8</text><text style="text-anchor: end; visibility: inherit; font-family: Roboto, sans-serif; font-size: 12px; font-weight: 200;" x="0" y="67.19612612332648" dx="0em" dy="0.3em" fill="rgb(33, 33, 33)" stroke="none" stroke-width="1px">0.85</text><text style="text-anchor: end; visibility: inherit; font-family: Roboto, sans-serif; font-size: 12px; font-weight: 200;" x="0" y="29.609992899963864" dx="0em" dy="0.3em" fill="rgb(33, 33, 33)" stroke="none" stroke-width="1px">0.9</text></g><line x1="51.8120002746582" y1="0" x2="51.8120002746582" y2="376.89499950408936" fill="rgb(0, 0, 0)" stroke="rgb(204, 204, 204)" stroke-width="1px"></line></g></g><g transform="translate(51, 0)" clip-path="url(#clip_0)"><clipPath id="clip_0"><rect width="1119" height="376"></rect></clipPath><g><g><g><line x1="34.55315513411557" y1="0" x2="34.55315513411557" y2="376.89499950408936" fill="rgb(0, 0, 0)" stroke="rgb(66, 66, 66)" stroke-width="1px" opacity="0.25"></line><line x1="141.6633601950773" y1="0" x2="141.6633601950773" y2="376.89499950408936" fill="rgb(0, 0, 0)" stroke="rgb(66, 66, 66)" stroke-width="1px" opacity="0.25"></line><line x1="248.773565256039" y1="0" x2="248.773565256039" y2="376.89499950408936" fill="rgb(0, 0, 0)" stroke="rgb(66, 66, 66)" stroke-width="1px" opacity="0.25"></line><line x1="355.8837703170007" y1="0" x2="355.8837703170007" y2="376.89499950408936" fill="rgb(0, 0, 0)" stroke="rgb(66, 66, 66)" stroke-width="1px" opacity="0.25"></line><line x1="462.9939753779625" y1="0" x2="462.9939753779625" y2="376.89499950408936" fill="rgb(0, 0, 0)" stroke="rgb(66, 66, 66)" stroke-width="1px" opacity="0.25"></line><line x1="570.1041804389242" y1="0" x2="570.1041804389242" y2="376.89499950408936" fill="rgb(0, 0, 0)" stroke="rgb(66, 66, 66)" stroke-width="1px" opacity="0.25"></line><line x1="677.2143854998859" y1="0" x2="677.2143854998859" y2="376.89499950408936" fill="rgb(0, 0, 0)" stroke="rgb(66, 66, 66)" stroke-width="1px" opacity="0.25"></line><line x1="784.3245905608477" y1="0" x2="784.3245905608477" y2="376.89499950408936" fill="rgb(0, 0, 0)" stroke="rgb(66, 66, 66)" stroke-width="1px" opacity="0.25"></line><line x1="891.4347956218094" y1="0" x2="891.4347956218094" y2="376.89499950408936" fill="rgb(0, 0, 0)" stroke="rgb(66, 66, 66)" stroke-width="1px" opacity="0.25"></line><line x1="998.545000682771" y1="0" x2="998.545000682771" y2="376.89499950408936" fill="rgb(0, 0, 0)" stroke="rgb(66, 66, 66)" stroke-width="1px" opacity="0.25"></line><line x1="1105.655205743733" y1="0" x2="1105.655205743733" y2="376.89499950408936" fill="rgb(0, 0, 0)" stroke="rgb(66, 66, 66)" stroke-width="1px" opacity="0.25"></line></g><g><line x1="0" y1="367.885191910227" x2="1119.3579997253419" y2="367.885191910227" fill="rgb(0, 0, 0)" stroke="rgb(66, 66, 66)" stroke-width="1px" opacity="0.25"></line><line x1="0" y1="330.2990586868644" x2="1119.3579997253419" y2="330.2990586868644" fill="rgb(0, 0, 0)" stroke="rgb(66, 66, 66)" stroke-width="1px" opacity="0.25"></line><line x1="0" y1="292.7129254635018" x2="1119.3579997253419" y2="292.7129254635018" fill="rgb(0, 0, 0)" stroke="rgb(66, 66, 66)" stroke-width="1px" opacity="0.25"></line><line x1="0" y1="255.12679224013928" x2="1119.3579997253419" y2="255.12679224013928" fill="rgb(0, 0, 0)" stroke="rgb(66, 66, 66)" stroke-width="1px" opacity="0.25"></line><line x1="0" y1="217.54065901677666" x2="1119.3579997253419" y2="217.54065901677666" fill="rgb(0, 0, 0)" stroke="rgb(66, 66, 66)" stroke-width="1px" opacity="0.25"></line><line x1="0" y1="179.95452579341418" x2="1119.3579997253419" y2="179.95452579341418" fill="rgb(0, 0, 0)" stroke="rgb(66, 66, 66)" stroke-width="1px" opacity="0.25"></line><line x1="0" y1="142.36839257005158" x2="1119.3579997253419" y2="142.36839257005158" fill="rgb(0, 0, 0)" stroke="rgb(66, 66, 66)" stroke-width="1px" opacity="0.25"></line><line x1="0" y1="104.78225934668897" x2="1119.3579997253419" y2="104.78225934668897" fill="rgb(0, 0, 0)" stroke="rgb(66, 66, 66)" stroke-width="1px" opacity="0.25"></line><line x1="0" y1="67.19612612332648" x2="1119.3579997253419" y2="67.19612612332648" fill="rgb(0, 0, 0)" stroke="rgb(66, 66, 66)" stroke-width="1px" opacity="0.25"></line><line x1="0" y1="29.609992899963864" x2="1119.3579997253419" y2="29.609992899963864" fill="rgb(0, 0, 0)" stroke="rgb(66, 66, 66)" stroke-width="1px" opacity="0.25"></line></g></g></g><g><g><line x1="0" y1="706.16039092049" x2="1119.3579997253419" y2="706.16039092049" fill="rgb(0, 0, 0)" stroke="rgb(153, 153, 153)" stroke-width="1.5px"></line></g></g><g><g><line x1="34.55315513411557" y1="0" x2="34.55315513411557" y2="376.89499950408936" fill="rgb(0, 0, 0)" stroke="rgb(153, 153, 153)" stroke-width="1.5px"></line></g></g><g><g><g><g><g><path style="fill: none;" stroke="rgb(255, 112, 67)" stroke-width="2px" d="M34.55315513411557,3.756272646068491L34.767375544237495,6.476062710552027L35.30292656954231,8.948237005082694L35.517146979664226,11.61100953021858L37.12380005557865,31.354641426615657L37.445130670761536,47.46993506072043L38.4091225163102,68.9288811423981L38.623342926432116,84.76990039636294L39.05178374667597,98.00367062654642L39.373114361858846,108.00932481989847L39.58733477198078,115.21439748068329L40.76554702765135,124.68638481623825L43.01486133393155,135.68008822096502L44.30018379466309,143.80414786491372L44.514404204785016,148.46710059808763L47.0850491262481,154.85831341406802L49.65569404771117,163.54855000382565L51.2623471236256,169.3939579116968L51.47656753374753,173.17395977857623L51.90500835399137,175.3107775447722L52.33344917423522,177.56248067349227L52.97611040460099,179.76677072492856L54.26143286533254,182.49189560359477L54.68987368557638,184.49965618191493L55.33253491594215,186.85054094514243L55.86808594124696,188.4530532976272L58.86717168295389,194.03723338662329L59.72405332344158,197.02280032669108L62.294698244904666,202.1893350060365L63.044469680331396,206.40517919991404L63.365800295514276,209.39634995574107L67.2217676777089,215.0826110478982L67.75731870301371,219.4579508653641L69.1497513688062,224.12540163969223L70.97062485484255,228.51819344492077L73.21993916112277,232.8658940396595L74.29104121173238,236.60798482590758L75.46925346740295,239.75016904479205L75.8976942876468,242.09631991104627L77.61145756862219,244.87061630449327L78.36122900404891,247.32842451522654L79.43233105465853,248.19471344478114L80.61054331032912,251.994907253598L82.6456372064874,254.4089043514159L82.8598576166093,256.96112930401006L84.25229028240182,259.06960349188387L85.32339233301143,261.10716416653844L85.85894335831624,262.35719363252247L91.00023320124241,267.02511591850276L91.42867402148626,270.11879405726245L92.17844545691298,273.0058115123407L93.67798832776644,275.4510851760435L94.53486996825414,277.38312227024016L94.74909037837605,278.4636469831426L95.28464140368088,279.45381490741755L95.39175160874183,279.72597442401195L95.60597201886377,280.41776778053435L96.67707406947338,282.175971240571L100.85437206685089,283.55204596610486L100.96148227191185,284.8726196711318L101.0685924769728,285.1223254227335L102.88946596300916,285.8141242139057L104.7103394490455,288.42968789074007L106.74543334520378,290.01850781624574L108.78052724136205,292.0103707707077L109.31607826666686,292.9106998398203L109.63740888184974,293.9860979297464L109.95873949703262,294.2055886287181L111.99383339319091,296.0039109866452L113.60048646910532,297.0559490141105L113.92181708428821,297.7580014120883L116.17113139056842,298.0017466804347L118.4204456968486,298.50570831946084L118.63466610697053,299.65461709005234L119.06310692721438,300.1436071166856L121.74086205373843,300.62405789939123L121.84797225879939,301.02362687637935L124.20439677014055,301.6698676901956L127.4177029219694,302.7782386493586L128.91724579282285,304.0142888807582L129.98834784343248,305.1255519368107L132.23766214971266,305.80636098296617L132.88032338007844,306.1060212034584L132.9874335851394,305.87050005537293L133.73720502056614,306.1464044281875L134.05853563574902,306.9269564367753L136.20073973696825,307.9199140360636L137.91450301794364,308.25466581604536L138.23583363312653,309.3456361059785L138.98560506855327,309.8761231325964L140.8064785545896,310.75069281581165L142.41313163050404,309.9892289283117L142.520241835565,310.59076176367455L144.34111532160136,310.93755856250846L145.09088675702807,311.0606841579264L146.26909901269863,311.81193907811644L146.37620921775962,312.3613551998026L147.0188704481254,312.52425425888157L147.12598065318636,312.0906642983005L147.98286229367403,312.7036390471195L148.51841331897887,312.20270409762196L148.73263372910077,312.07357150520926L149.16107454934462,312.3617640022195L153.1241521366002,313.3482697970157L154.19525418720983,314.60581362228777L156.65878890361193,315.45697784848335L158.58677259470926,316.02714312291835L160.51475628580656,316.71322815744276L162.01429915666003,317.65730184454804L165.12049510342794,318.95785022133L165.65604612873273,319.5836159096353L166.8342583844033,320.7352614348494L167.15558899958617,320.9958945215007L168.54802166537868,321.2541277418255L168.65513187043967,321.74704951812424L169.51201351092735,321.80292831295816L173.90353191842678,322.1300076433413L174.22486253360967,322.3091751324699L176.47417683988988,322.7850898155431L176.9026176601337,323.3393680649083L177.65238909556044,324.0433781007005L177.86660950568236,324.4741718357744L179.36615237653584,325.09373197824834L181.72257688787698,324.10837901741047L182.2581279131818,324.62332385540805L183.11500955366947,324.3230882519528L183.6505605789743,324.54043131763103L184.07900139921816,325.4179171861835L186.22120550043738,326.0288952071085L189.86295247251007,326.4166126058443L190.71983411299777,326.6815214044681L192.00515657372932,326.96637199994484L192.43359739397317,327.74634148376504L192.862038214217,327.50220987403696L193.1833688293999,327.7704029798425L196.07534436604587,327.86323139896535L197.25355662171646,327.9617452192143L199.39576072293568,328.74556630424655L199.50287092799664,329.47082394170246L200.46686277354527,329.1999947071703L202.3948464646426,328.8111185116161L203.68016892537415,329.00389939856655L203.89438933549607,330.6413375462897L204.64416077092278,330.03414052212474L204.8583811810447,329.32203687519194L206.0365934367153,330.0069890946871L207.4290261025078,330.59756144768903L207.96457712781262,332.05239797506505L209.46411999866606,331.57616841960794L209.89256081890994,332.0529688415021L210.42811184421473,332.97553855378504L211.0707730745805,332.52063704558407L211.28499348470243,332.6555397531583L211.9276547150682,331.5320917327891L215.67651189220186,332.2081132443255L215.78362209726282,331.55926688690687L216.31917312256763,332.04433340893763L218.24715681366496,332.9699092326225L219.2111486592136,332.8142615808729L220.92491194018896,332.84443942444904L221.24624255537188,332.83055453065174L222.10312419585955,332.53344787780077L223.06711604140824,333.56597185099247L224.9950997325055,333.2652393493757L226.49464260335898,333.46596587181637L227.45863444890765,334.1443191580686L227.77996506409053,334.3715329614006L228.42262629445628,335.2803642890828L229.17239772988302,335.36118448394234L230.88616101085842,335.3530505728356L231.2074916260413,335.477588345605L234.20657736774822,335.9376798507091L235.7061202386017,336.57164637890435L236.88433249427226,337.035930315504L238.81231618536958,336.609287526451L240.7402998764669,336.22667963811864L241.49007131189364,336.818062373573L242.88250397768613,336.50441095575616L242.9896141827471,337.1730304258929L244.5962672586615,337.9215932461797L245.1318182839663,338.1231141625463L245.66736930927115,337.89468202548153L245.988699924454,338.174042255218L246.095810129515,338.1075461945974L246.31003053963693,337.50376300460755L246.73847135988075,337.68793112459826L247.1669121801246,338.1523021058784L248.34512443579519,337.66338617175586L248.45223464085615,337.764294995342L248.5593448459171,337.8910996424289L249.41622648640478,338.4926153357396L250.48732853701443,338.68725804434706L253.05797345847748,338.8690842948299L253.3793040736604,339.1096323643252L253.80774489390424,338.8103264310143L254.45040612427,338.8783327631357L255.20017755969675,339.5519787999369L255.3072877647577,339.36607822463725L257.8779326862208,338.8356271448535L259.0561449418914,339.0536414545714L259.1632551469523,339.05216432657613L260.5556878127448,338.5323509994988L260.66279801780576,339.06700375166054L262.4836715038421,339.6992788826269L262.69789191396404,339.27312773507845L262.805002119025,339.5215870244749L263.55477355445174,339.81825409700957L266.44674909109773,340.3555997628595L266.5538592961587,340.0400032549344L268.481842987256,340.28783699903653L269.1245042176218,340.5134694263132L270.6240470884752,340.50585449604307L272.9804715998164,340.50522848017096L273.5160226251212,341.10873240481016L273.62313283018216,342.35221677987255L273.7302430352431,342.0137563219118L274.5871246757308,341.7481664893755L277.2648798022548,341.9251993345767L277.3719900073158,341.59858255182405L277.80043082755964,341.96616647018834L279.621304313596,342.33818853376624L282.72750026036385,342.14562746867597L282.94172067048584,341.8739592761744L283.47727169579065,342.0513059701513L283.9057125160345,342.6994832184016L284.0128227210954,342.90639589697565L284.9768145666441,342.5815767957881L285.61947579700984,343.05041694095223L287.1190186678633,343.1272884315521L288.9398921538997,342.5702218066502L290.76076563993604,342.17552935741895L290.86787584499695,342.6218107171398L290.97498605005796,342.52746508980766L291.93897789560657,342.2014741039162L292.7958595360943,342.66328448812925L292.90296974115523,342.94103384986033L294.1882922018868,343.3336050988775L296.86604732841084,343.28163566549466L297.08026773853277,343.1129976604996L298.04425958408143,343.24975350223286L298.3655901992643,342.63233800627773L299.11536163469106,342.9176358564443L300.72201471060544,343.72085925438205L301.25756573591025,343.31104312688996L302.8642188118247,343.70003884892776L303.72110045231244,344.4885846341028L304.0424310674953,344.38428612931745L308.54105968005564,343.8213118049286L309.39794132054334,344.13628130638756L314.11079034322563,344.29931127800944L317.32409649505456,344.64520305964436L317.64542711023745,344.1947954789288L320.7516230570053,344.4595723543084L321.50139449243204,344.80813880984266L322.67960674810263,344.2723493498121L324.393370029078,343.70333954908057L326.10713331005337,343.3455435744412L326.2142435151144,343.64775884016547L327.178235360663,343.76137692700354L327.71378638596786,343.7748215323692L327.82089659102877,344.1930528672949L330.0702108973089,344.31985171474594L330.17732110236994,344.00376956755656L330.71287212767476,344.39731728884846L331.03420274285764,344.94578071837816L331.1413129479186,344.91722494917L332.21241499852823,344.95187845012987L335.31861094529614,344.66726278665595L335.42572115035705,344.477020630399L337.2465946363934,344.58327684941753L337.88925586675924,344.51777376357984L338.42480689206394,344.726769741551L339.1745783274907,344.7424011917224L341.8523334540148,345.1854857912489L342.1736640691977,344.4987664998883L342.70921509450244,344.562020773189L342.9234355046244,344.83706962604685L343.45898652992923,344.853835346429L343.67320694005116,345.24137773552087L344.5300885805388,344.8771836595627L346.0296314513923,345.29418886002674L349.1358273981602,345.12103647439255L349.88559883358687,344.2727444223772L352.24202334492804,344.823201939533L353.63445601072056,345.6941613725609L354.59844785626916,345.12352043757414L354.81266826639114,344.76124194048305L358.7757458536467,344.99874700276274L360.06106831437825,344.9887925919988L360.3823989295612,344.9557749459247L361.3463907751098,344.8483414271198L364.77391733706054,345.2155528454881L364.88102754212156,345.2661539533941L364.98813774718246,344.8658377852913L365.30946836236535,344.0533568947487L365.41657856742637,344.700494810503L365.6307989775483,344.99442474320495L366.7019010281579,345.6221330989969L366.8090112332188,345.4835051675075L367.45167246358466,345.1730267468338L367.55878266864556,345.1508557060141L367.6658928737065,345.3421469802054L370.12942759010866,344.96347147837224L370.45075820529155,344.978909469053L370.8791990255354,344.3874201994335L376.5560398937664,344.2731626133677L376.87737050894924,343.8577456362395L377.520031739315,344.290445241465L379.2337950202904,344.12022156637437L380.6262276860829,344.1798017626006L381.6973297366925,344.20615850870036L383.83953383791174,344.3648235632766L384.8035256834604,344.20205559670603L385.55329711888714,344.4134408411992L385.76751752900907,344.3521846794345L387.9097216302283,344.73575759171115L388.44527265553313,344.3332652098958L389.9448155263866,344.15728535144615L391.23013798711816,343.95132267140116L392.9439012680935,344.13014185331167L393.0510114731545,344.1659137660588L394.6576645490689,344.106053728978L394.9789951642518,344.0673328409642L395.3003257794347,344.174002334143L396.26431762498333,344.4128914430721L396.90697885534905,344.4007564861855L397.0140890604101,344.466446828114L399.6918441869341,344.4122788825135L402.798040133702,344.1658466122288L403.22648095394584,344.0220646108351L403.4407013640677,344.293205206113L403.6549217741897,344.5447849894519L405.3686850551651,344.70600243187397L405.475795260226,345.0172827252924L406.86822792601856,345.0683778416411L409.01043202723775,344.35197280476973L409.54598305254257,344.45358463593L409.9744238727865,344.4685895732515L410.8313055132741,344.4971997123041L412.6521789993105,344.4159356182079L413.1877300246153,343.7427764052153L414.2588320752249,343.8732750149553L414.58016269040775,343.8301136358055L415.8654851511393,343.57189685634853L415.97259535620026,343.63318340588023L417.04369740680994,343.813845845483L418.22190966248047,344.43260342127684L418.4361300726024,344.5397794068874L418.7574606877853,344.46661969205593L420.3641137636997,344.4064950711412L423.6845301205895,344.0950147408756L425.39829340156496,344.0451079423602L426.5765056572355,343.9988006527479L428.8258199635157,344.0598131315955L429.04004037363757,343.69976062454054L429.7898118090643,343.86873055121845L430.43247303943014,343.5789457483701L431.1822444748569,343.3070658670597L432.4675669355884,343.4569985948587L435.35954247223435,343.21233684961317L435.5737628823562,343.6216022001309L435.89509349753916,343.44890484580833L436.21642411272205,343.53498676352115L437.2875261633317,343.70456573354664L438.35862821394124,343.80328421898474L440.39372211009953,343.22341813245026L441.46482416070916,342.7492347149282L442.85725682650167,342.93226800767184L444.03546908217226,343.4765823011995L444.785240517599,343.4350972145544L446.07056297833054,343.4486856948237L446.1776731833915,343.3250817818755L450.0336405655861,343.13625150333036L452.49717528198823,342.91457619062606L454.5322691781465,342.8833168365477L454.74648958826845,343.1257184221789L455.0678202034513,342.8804496375589L455.4962610236952,343.07409299912104L455.924701843939,343.17898786313725L457.31713450973155,342.90228510943484L458.709567175524,342.92003145162L460.2091100463775,342.2959551605826L461.70865291723095,342.49845145529673L462.7797549678406,342.69791195467536L462.9939753779625,342.2819395442202L463.6366366083283,342.128590773518L464.70773865893784,342.66845593551744L466.5286121449742,342.85010650591175L466.95705296521805,342.89039107874686L467.70682440064485,342.7577760990297L468.2423754259496,342.30654895544683L469.6348080917421,342.13134836873473L469.741918296803,341.69230561091575L471.5627917828394,341.9209322703059L472.52678362838805,342.04276663593936L472.95522444863195,341.9624151103826L476.0614203953998,341.94334612306386L476.7040816257656,341.6310492727211L477.3467428561313,341.97158632897015L477.7751836763752,342.16745812049373L479.4889469573506,342.3679980530751L481.8453714686918,342.7430719294812L482.8093633142404,342.7362443649814L483.6662449547281,342.5317029782352L486.02266946606926,342.4234774203354L486.34400008125215,342.3597876969098L487.0937715166789,342.33956801766834L487.9506531571666,342.11336132747954L488.05776336222755,342.16807246473576L489.664416438142,341.74842859685896L490.5212980786296,341.41019326642686L491.1639593089954,341.02869951106277L491.48528992417835,340.83654431100007L491.91373074442214,340.79219726848316L492.5563919747879,340.8223763731801L493.0919430000927,341.4424994338055L496.41235935698256,341.3819160049569L496.84080017722636,341.14335573680347L500.26832673917716,341.51491692446245L501.87497981509154,341.08767141468644L502.51764104545737,341.329210185245L502.9460818657012,341.4400897253999L503.1603022758231,341.4091461238401L504.98117576185945,341.86275626335174L505.7309471972862,342.0588056383987L505.8380574023472,342.22686907980767L508.08737170862736,342.18982066052894L508.62292273393217,341.6268887637623L509.58691457948083,341.50451284828785L510.8722370402124,341.4084153808363L511.30067786045623,341.2691111112671L511.7291186807001,341.4370613839235L514.8353146274679,341.5099710757462L518.0486207792968,341.20780435599374L518.2628411894187,341.2161150421239L518.7983922147235,341.42555197276556L519.0126126248455,341.62754590939L519.7623840602722,341.49756788626576L521.9045881614915,341.2372737588784L524.5823432880155,341.33577550944335L524.7965636981374,341.67658186393044L525.0107841082594,341.326831370383L526.5103269791127,340.93044405901253L526.8316575942957,340.9969261658779L526.9387677993566,341.04571393384674L527.2600984145395,341.0538291247499L527.9027596449054,341.1920144948526L530.3662943613074,341.0868742533836L532.0800576422828,341.1402323633088L532.7227188726486,341.1675246597486L534.222261743502,340.83698384472893L534.8649229738678,340.7851307005543L535.5075842042336,340.9977464149599L536.5786862548432,340.86302056900047L538.2924495358186,340.9162182155838L538.3995597408796,341.0839263592584L538.8280005611233,340.8519819857753L540.5417638420988,341.09246693680757L540.6488740471597,340.7241485260431L541.0773148674036,340.37603343566514L542.2555271230742,340.22164867489874L542.469747533196,340.0399790125471L542.683967943318,340.33022700568546L544.7190618394762,340.8247398626225L546.9683761457565,340.5583954177876L547.3968169660003,340.4964633320009L547.5039271710613,340.6167977413127L549.3248006570976,340.72955692509095L550.1816822975853,340.87228964105043L551.8954455785607,340.93099180580026L554.8945313202677,340.5216732451617L556.2869639860601,340.29961430526333L557.3580660366697,340.6388240787461L559.393159932828,340.9703611487703L561.6424742391082,340.5500353429241L562.285135469474,340.6629473542283L563.7846783403274,340.7498357535818L566.9979844921563,340.5730003421731L569.2472987984365,340.756606780078L569.9970702338633,340.8026530244477L570.2112906439852,340.83609661094715L571.6037233097777,340.63412134453085L571.9250539249606,340.605828320538L572.9961559755702,340.42304282161973L573.1032661806312,340.44382018343697L573.210376385692,340.501478095909L575.7810213071551,340.40937893863185L575.8881315122162,340.4702301334705L575.9952417172772,340.73394393859655L576.4236825375209,340.4411354686379L576.8521233577648,340.2332078722104L578.5658866387403,340.01382966062886L580.6009805348984,340.311221738518L582.3147438158738,340.18557548360826L582.8502948411787,340.3792576970179L583.0645152513006,340.45526693617165L584.2427275069712,340.36261858500825L585.2067193525198,340.5886721498309L585.3138295575808,340.79144184244257L585.6351601727637,340.5557207455928L585.8493805828855,340.6740383720623L588.7413561195316,340.3848680534595L590.455119400507,340.48984512275416L593.347094937153,340.38398382199864L595.1679684231892,340.19370144692516L596.3461806788599,340.4032655063465L597.3101725244085,340.1398893053815L597.4172827294694,340.40552377261923L597.6315031395914,340.3954923529836L597.9528337547742,340.61682893037704L598.2741643699571,340.5891710480793L599.5594868306887,340.56780894302295L600.5234786762373,340.65305444698527L601.380360316725,340.55231782010947L603.3083440078223,340.5657253608272L605.7718787242245,340.42877714377937L606.0932093394074,340.36423495783305L606.2003195444682,340.30862668427847L606.4145399545903,340.44600008253065L607.164311390017,340.3636629011592L608.3425236456876,340.20893922703374L608.4496338507485,340.30327828530636L609.4136256962972,340.21253217464994L609.842066516541,339.7428120340378L612.0913808228212,339.62907474847475L614.1264747189795,340.1619339292315L614.5549155392234,339.77206320522396L614.9833563594672,339.9204359095223L615.6260175898328,340.14257864054764L615.8402379999549,340.1052603352651L616.5900094353816,340.3839757245564L618.5179931264789,340.09145788712937L619.3748747669666,340.32452561823106L619.5890951770886,340.3120880334099L622.6952911238565,340.3418235585293L624.4090544048317,339.946184645878L625.2659360453194,340.1203817447251L625.4801564554414,340.336046170446L625.5872666605023,340.1720451133479L626.1228176858073,339.83298161968577L626.551258506051,340.3608338610095L626.872589121234,340.4542760986384L628.9076830173922,340.4856084395791L630.8356667084895,340.1499731772118L631.6925483489772,340.2785177158985L632.3352095793429,340.02086175500085L632.7636503995868,339.9334146934127L633.5134218350136,339.8594843046773L633.6205320400745,339.82864857124395L634.1560830653792,339.6083849819634L636.2982871665986,339.654196905389L636.9409483969644,339.592483951368L637.9049402425129,339.7826144610158L638.7618218830007,340.0735695734362L640.5826953690371,339.7536976777355L642.1893484449514,339.75466506938324L644.6528831613537,339.89107986625885L644.9742137765364,340.0351913876347L649.2586219789749,340.00836143825296L649.9012832093407,340.12391293494414L650.4368342346455,339.54725546738666L651.0794954650113,339.63931291402713L651.5079362852551,339.3536172924226L651.829266900438,339.69064232774195L653.2216995662305,339.77544728101947L654.2928016168402,339.72088343042867L654.721242437084,339.79415650027755L655.7923444876936,339.80831528296824L655.8994546927546,339.9973793869949L656.0065648978155,339.90933349839725L656.9705567433642,340.1128151365469L657.0776669484251,340.05389618463295L657.5061077686689,339.58387127095347L659.2198710496444,339.88786715934907L660.7194139204978,339.6731387139342L661.1478547407416,339.53440844603057L661.3620751508637,339.45995229311586L661.7905159711074,339.5238887389888L662.968728226778,339.7738521889927L663.2900588419609,339.8428117561702L663.6113894571438,339.697354760563L666.1820343786069,339.5443051168172L667.0389160190946,339.46855178163355L667.4673568393384,339.5408324528066L668.859789505131,339.4613333970179L669.6095609405577,339.7164160864787L670.5735527861062,339.4866418487362L671.430434426594,339.4848805049519L673.2513079126304,339.6180091937925L673.5726385278132,339.5049779555637L674.429520168301,339.4904337397024L674.7508507834839,339.4531029561189L675.6077324239715,339.3359304912917L675.8219528340935,339.2583415303915L680.4276916517148,339.3835212130413L680.7490222668977,339.38908089737697L681.4987937023244,339.29186271835346L681.6059039073854,339.6801506763624L682.677005957995,339.34024978137586L687.4969651857383,339.4823382752521L687.925406005982,339.73849999737996L690.0676101072014,339.8518266783476L690.3889407223843,339.6248637199465L691.6742631831157,339.7099118910665L692.6382550286644,339.6544096620515L693.602246874213,339.79680224858726L694.3520183096398,339.90901396315L695.4231203602494,339.61256872071493L695.6373407703713,339.51237753836483L696.8155530260419,339.3456600074079L696.9226632311029,339.3424107995858L698.3150958968954,339.2781896704096L699.600418357627,339.68242252836177L701.7426224588461,339.2631841859364L706.1341408663455,339.195301640098L706.8839123017723,339.45458521469374L707.2052429169552,339.55513339204214L714.3816266560397,339.2026452019316L715.2385082965274,339.0598670184992L716.095389937015,339.2541310885573L717.2736021926856,339.03264495786095L717.4878226028076,339.2477985876188L717.5949328078685,338.91720642309895L717.7020430129294,339.0591270440051L717.9162634230514,339.0378020522566L718.5589246534172,338.91680913627977L719.6300267040267,338.7642791929986L720.7011287546363,338.7577047496796L721.6651206001851,338.48223473963407L721.879341010307,338.4798052114119L722.8433328558556,338.42600493558024L723.8073247014044,338.3263094181565L724.7713165469529,338.341909840229L725.3068675722578,338.6606476835097L727.5561818785379,338.91934158633273L728.7343941342085,338.90008273169866L729.8054961848181,338.78542843926994L732.3761411062812,338.5852552344669L732.4832513113422,338.67989828666475L732.6974717214641,338.86698939943204L732.911692131586,338.8099843080662L734.8396758226833,339.0222599525275L737.0889901289635,338.7289223581049L737.1961003340245,338.4468725763181L743.7298228427431,338.4534979333754L744.3724840731089,338.4251230983677L745.4435861237185,338.3641523132956L745.6578065338406,338.3513350307815L746.3004677642062,338.27018943865875L747.9071208401207,338.43259287561415L748.1213412502426,338.4766259922243L749.2995535059131,338.17502890860095L750.4777657615838,338.33281420729134L750.7990963767666,338.33093706779806L752.4057494526811,338.3584150381687L752.834190272925,338.37852215831185L755.9403862196928,338.2185486893036L758.082590320912,338.1367233552124L758.7252515512779,338.00492494022706L760.6532352423751,338.1388812709125L760.974565857558,338.1191132963928L761.4030066778018,338.21315635709465L763.4381005739601,337.9968918892396L763.652320984082,337.9454633416083L764.6163128296307,337.8350573523308L764.7234230346917,338.01197680202876L765.0447536498746,337.94114413042604L766.7585169308499,337.97987809986876L766.9727373409719,337.9414920857898L767.0798475460327,337.7917307276522L767.6153985713377,338.1411624900264L769.8647128776179,337.92720616579646L770.0789332877397,338.0812366515398L770.4002639029226,337.69922937318665L771.2571455434103,337.91807766879396L772.006916978837,337.8426689353782L772.2211373889589,337.6165949851746L772.5424680041418,337.6159784660164L774.4704516952391,337.7662737561579L774.5775619003001,337.7588810310328L774.6846721053612,337.7647149683764L775.5415537458488,337.70563904439547L777.3624272318851,337.9174876614432L778.2193088723728,337.9727008635086L780.468623178653,337.93436295574344L781.9681660495064,337.6009162343824L782.2894966646894,337.6343958423822L782.5037170748113,337.8767311338451L783.0392681001161,337.80466111897016L784.0032599456648,337.7597254371071L784.8601415861525,337.4625559851091L785.9312436367621,337.7930103653291L788.2876681481032,337.5987810109669L788.6089987632861,337.58508250225606L788.8232191734081,337.76384847389534L788.930329378469,337.59528132123586L789.7872110189567,337.85448114877414L790.4298722493224,337.7608698212031L791.5009742999321,337.71136122039087L792.4649661454808,337.5312417727765L794.500060041639,337.52737131545086L795.2498314770658,337.33147745831906L795.8924927074315,337.11867428157655L798.5702478339556,337.0592500833086L800.284011114931,337.1858924457395L801.4622233706016,337.1589043408044L802.4262152161501,337.1119475667497L803.6044274718208,337.2315352646307L804.1399784971255,337.2059240924963L804.9968601376132,337.4160309595704L805.9608519831619,337.421647154091L806.0679621882229,337.3624853905785L806.2821825983449,337.111990442882L809.3883785451127,337.1696478351263L809.4954887501736,337.07361438465506L809.6025989552346,337.0772084934229L811.31636223621,337.00716430861615L813.7798969526121,337.0049077474652L814.208337772856,337.3109509684344L814.8509990032218,337.31992248003854L815.6007704386485,337.22431229698475L816.2434316690143,337.19424210127755L818.0643051550505,337.0776981164657L819.5638480259041,337.17143071430667L819.8851786410869,337.01109520650624L824.2766970485864,336.97683394070725L824.7051378688302,337.0242033234038L827.7042236105372,337.1016160109737L828.7753256611468,336.85174254919747L828.8824358662077,336.77282727827975L829.2037664813905,337.07430305113024L829.3108766864516,336.6137524553668L829.7393175066954,336.44446401984686L830.2748685320001,336.6041646526354L830.7033093522441,336.79624659157685L830.8104195573051,336.6830022492423L831.0246399674269,336.8269529469935L831.9886318129757,336.7996590929055L832.4170726332195,336.84379798337017L832.5241828382804,336.61146300124716L832.9526236585243,336.47242942250494L835.0948277597435,336.367188674178L835.5232685799873,336.087433313747L836.1659298103531,336.358133853682L837.3441420660237,336.17715974912295L837.5583624761456,336.403017443663L838.8436849368771,336.49122571414074L839.16501555206,336.6881487211009L839.2721257571211,336.7154625116573L840.6645584229135,336.70647257561615L841.8427706785842,336.5115216634047L842.3783217038889,336.7257224234992L842.6996523190718,336.80647951045324L843.3423135494377,336.4752104976438L843.5565339595595,336.51630543843845L843.7707543696814,336.4211148797674L844.6276360101691,336.29604751869135L845.2702972405349,336.49590186951133L845.9129584709005,336.71508701338394L847.5196115468151,336.66752579111886L848.3764931873028,336.33799918132115L849.9831462632171,336.0893386088105L850.0902564682782,336.1607050802615L853.517783030229,336.1411099789294L854.5888850808386,335.947206906802L855.2315463112044,335.96051617500336L855.6599871314482,336.09814388616945L856.195538156753,336.00558218533786L858.766183078216,336.2087111402886L860.0515055389477,336.2165030625939L860.8012769743744,336.0429841081712L861.4439382047401,335.99346456376765L861.5510484098011,335.99619249869244L865.5141259970566,335.8104678110174L867.4421096881539,335.69414016547995L867.9776607134588,335.7014639448549L871.0838566602266,335.5902224685961L871.4051872754095,335.8364038209389L871.8336280956534,336.0290173682871L873.118950556385,335.89339318913215L873.9758321968726,336.14322583399047L877.9389097841282,335.83881781801716L878.3673506043721,336.07021779380216L878.474460809433,335.7883637594062L879.7597832701646,335.8814480398142L881.9019873713837,335.6451176231452L883.7228608574201,335.75081069169465L884.044191472603,335.6893338357919L884.5797424979079,335.6708988999204L884.7939629080297,335.7153796572902L885.6508445485174,335.717326148843L886.1863955738223,335.5629091255084L886.8290568041881,335.55858978003374L887.3646078294928,335.65722425480953L887.7930486497366,335.90280753642986L888.9712609054072,335.7325445427185L889.721032340834,335.6108243759943L890.4708037762607,335.37795077226684L893.0414486977238,335.5175123814097L893.3627793129067,335.45921381213435L893.4698895179678,335.8597684914181L895.0765425938821,335.9277140698276L895.504983414126,335.34837309069485L896.6831956697965,335.6613009490976L898.9325099760766,335.65130118583596L900.2178324368083,335.5438780987039L901.074714077296,335.3857076771798L902.7884773582714,335.2763868012098L903.6453589987591,335.02434687271057L905.5733426898563,335.1537707943269L908.0368774062584,335.0619592799235L909.32219986699,335.27999281471654L909.5364202771119,335.23359560212646L910.9288529429044,335.0936701787496L911.5715141732702,335.0389643875286L911.9999549935139,335.0785566324429L912.107065198575,335.1249838975584L916.0701427858305,335.04578041222453L916.4985836060745,335.11576696249557L917.0341346313793,334.81940963802276L917.2483550415012,335.0735356099647L917.783906066806,335.04694784577373L918.2123468870498,334.9282098507476L920.46166119333,334.81363053347286L920.675881603452,334.85221162448556L922.6038652945492,334.8335023621929L922.7109754996102,334.7711798572333L923.139416319854,334.5977369227911L923.7820775502198,335.09547169035363L925.6029510362562,335.44468974699157L926.3527224716829,335.1867578888098L927.8522653425364,334.9799160907441L928.2807061627802,335.2309461258584L930.9584612893042,334.642235583874L931.6011225196701,334.68263139523725L931.922453134853,334.15064518220555L935.6713103119865,334.4659535199231L936.5281919524742,334.4337602354409L938.6703960536935,334.12160910986705L940.169938924547,334.28864556666474L942.5263634358881,334.3048200413412L943.2761348713149,334.5631630824549L944.0259063067416,334.6034203252547L947.8818736889363,334.5433838918128L950.8809594306431,334.49500449216185L952.4876125065575,334.3307787379902L953.2373839419843,334.46186590647886L953.88004517235,334.18941711912174L958.4857839899715,334.3352537468848L959.2355554253982,334.53576582631064L959.8782166557639,334.58282395969877L960.1995472709468,334.3123630388071L960.8422085013126,334.20139850343566L961.3777595266174,334.3612701269074L962.8773023974708,334.15001997414265L964.3768452683242,334.0209668457372L964.5910656784463,334.17121300223795L965.4479473189339,334.2681801940535L965.9834983442388,334.39260193961303L966.3048289594217,334.1140659313313L967.3759310100312,333.96804802884577L969.0896942910066,334.09263927241057L969.8394657264333,334.35354570079494L970.3750167517383,334.17290526341213L971.8745596225917,334.28717178310694L972.1958902377745,334.0499654815749L972.3030004428355,334.0404202822678L974.3380943389938,334.2407477422606L974.9807555693595,334.3822181841567L975.6234167997253,334.24694985103105L976.1589678250301,333.87898460572814L976.6945188503349,333.9353226116662L977.3371800807007,333.86343663939493L977.4442902857617,333.8519292454436L977.7656209009444,333.5716713735933L978.3011719262494,333.77185915021926L978.8367229515541,333.6779238172483L980.8718168477125,333.7376643454382L981.0860372578343,334.0696863569507L981.1931474628954,334.1001057889207L982.7998005388098,333.7841303604067L983.6566821792974,334.0444617022729L983.9780127944803,334.0160053509708L985.5846658703947,333.9812510285123L985.6917760754558,334.3710469132974L987.4055393564311,334.1790866768597L989.0121924323455,334.0431742430452L990.297514893077,333.8091603733922L992.2254985841744,333.8464174466901L992.8681598145401,333.98458665920214L994.3677026853936,333.73957876790956L996.081465966369,333.7038635792664L997.7952292473443,333.8306263675533L998.2236700675883,334.1576523172772L999.080551708076,333.8772020091931L999.2947721181978,334.16431477512816L1000.3658741688074,334.0403061665334L1001.2227558092952,334.04964371887445L1001.7583068345999,333.90442870769056L1002.8294088852095,333.94074067835146L1003.3649599105144,333.8136280219095L1005.2929436016118,333.75526497053346L1007.32803749777,333.7656447434365L1007.6493681129529,333.72446768737484L1009.4702415989892,333.4815912878519L1010.5413436495988,333.73884311139795L1015.2541926722811,333.47737509612625L1016.2181845178299,333.61179707109414L1016.5395151330127,333.63801973000943L1016.8608457481956,333.6269861239496L1017.2892865684395,333.60257791384686L1018.3603886190491,333.56664109941977L1023.2874580518533,333.41848367956044L1023.6087886670362,333.3594480542583L1024.7870009227067,333.14551892813444L1025.7509927682554,333.11768855838756L1026.3936539986212,333.12742597234666L1027.5718662542918,333.12600982241577L1028.6429683049014,333.056741122495L1033.4629275326447,333.1213525849305L1033.9984785579495,332.96243467394834L1034.1055887630105,333.035868741064L1034.962470403498,333.20153310604684L1035.283801018681,332.96136374278416L1036.0335724541076,333.0174202134337L1036.2477928642297,333.3650736042837L1036.4620132743514,333.3916182010227L1037.854445940144,333.4519478659898L1038.8184377856928,333.2657816422849L1039.0326581958145,332.9420233027253L1040.532201066668,332.78813865129865L1041.9246337324605,332.9869314199242L1046.2090419348992,332.5728614077637L1046.7445929602038,332.6186704300834L1047.6014746006915,332.6947436459657L1047.7085848057525,332.89158148984757L1050.4934501373375,332.65639656700205L1050.9218909575814,332.6324447666995L1051.2432215727642,332.6974433225671L1051.3503317778252,332.5641986066465L1052.7427644436177,332.67397002986553L1052.8498746486787,332.8819311471853L1053.3854256739835,332.6404712074732L1053.7067562891664,332.51609854355337L1054.670748134715,332.52226941721443L1055.7418501853247,332.52242329335013L1056.0631808005076,332.43329758849023L1056.7058420308733,332.65779063577946L1057.1342828511172,332.8788727452316L1059.7049277725803,332.6472927168738L1059.8120379776412,332.5306312850294L1059.9191481827022,332.5638409403609L1060.347589002946,332.5327952432304L1060.668919618129,332.6361929275919L1061.3115808484947,332.72941662722883L1063.239564539592,332.7439499529671L1067.7381931521525,332.50856597573556L1069.023515612884,332.51034789849774L1069.344846228067,332.58066049550513L1069.6661768432498,332.3654187283417L1070.0946176634936,332.40272856130457L1071.379940124225,332.5295665868347L1072.2368217647129,332.6074706098806L1074.5932462760538,332.7021018500654L1074.7003564811148,332.7612463595502L1074.9145768912367,332.8621769460209L1075.8785687367856,333.02392553503404L1076.842560582334,332.79783264532L1081.2340789898335,332.57363097338595L1081.6625198100774,332.43431571085034L1081.9838504252602,332.15103444881066L1082.519401450565,331.8987119651229L1083.1620626809308,331.8280054121335L1083.2691728859918,331.89118960508176L1083.6976137062356,331.98747358920605L1084.0189443214185,332.05623941193L1085.1971565770891,332.0486960334944L1085.30426678215,332.40885632331856L1085.411376987211,332.13942396037476L1086.2682586276987,332.0761230302764L1087.1251402681864,332.212330909106L1089.4815647795276,332.6453986781309L1089.5886749845886,332.63409036725574L1092.0522097009907,332.4086692307559L1094.9441852376367,332.22736477515645L1095.0512954426977,332.0183327940762L1095.6939566730634,332.3310641061603L1096.1223974933073,332.25618358799596L1096.4437281084902,332.1619505760087L1096.765058723673,331.9275213429147L1098.2646015945265,331.946006330618L1098.4788220046485,331.7985551982562L1099.0143730299533,332.05888257054283L1100.5139159008068,332.12276933816884L1100.8352465159896,332.1189119162426L1102.441899591904,332.22561085617L1102.5490097969648,331.97639033889163L1103.5130016425137,332.15424769584064L1105.119654718428,332.1934033783657L1105.4409853336108,331.9649248530914" fill="none"></path></g></g></g></g><g opacity="0.2"><g><g><g><path style="fill: none;" stroke="rgb(255, 112, 67)" stroke-width="2px" d="M34.55315513411557,3.756272646068575L34.767375544237495,8.107936749242107L35.30292656954231,11.321524327832027L35.517146979664226,14.742430019778176L37.12380005557865,57.131927230551746L37.445130670761536,69.76318766239562L38.4091225163102,99.6155173823342L38.623342926432116,107.86625854242854L39.05178374667597,117.52091118853771L39.373114361858846,122.86655519806406L39.58733477198078,125.95665699312043L40.76554702765135,138.84281968277364L43.01486133393155,152.13474697898704L44.30018379466309,155.9743214522603L44.514404204785016,155.45604857195093L47.0850491262481,164.44062505958973L49.65569404771117,176.58022747158105L51.2623471236256,178.16058562506873L51.47656753374753,178.84338673365653L51.90500835399137,178.51580888045845L52.33344917423522,180.93991187782152L52.97611040460099,183.07313326897997L54.26143286533254,186.57952911875705L54.68987368557638,187.5112732655569L55.33253491594215,190.3768513809011L55.86808594124696,190.85681499237117L58.86717168295389,202.4134892317313L59.72405332344158,201.50114615324424L62.294698244904666,209.9391322659462L63.044469680331396,212.7289431606971L63.365800295514276,213.88310509757696L67.2217676777089,223.61200155475842L67.75731870301371,226.0209600692353L69.1497513688062,231.12657746686418L70.97062485484255,235.10738096397557L73.21993916112277,239.3874448196576L74.29104121173238,242.22112094738353L75.46925346740295,244.46344534394993L75.8976942876468,245.6155461973601L77.61145756862219,249.03206088539253L78.36122900404891,251.01513682639822L79.43233105465853,249.4941468380709L80.61054331032912,257.69519796408L82.6456372064874,258.02989999709735L82.8598576166093,260.7894667322382L84.25229028240182,262.23231477336583L85.32339233301143,264.1635051783295L85.85894335831624,264.23223783142834L91.00023320124241,274.026999347316L91.42867402148626,274.75931126533936L92.17844545691298,277.3363376949231L93.67798832776644,279.11899567157985L94.53486996825414,280.28117791152664L94.74909037837605,280.0844340524933L95.28464140368088,280.93906679382826L95.39175160874183,280.1342136989033L95.60597201886377,281.45545781531746L96.67707406947338,284.8132764306253L100.85437206685089,285.61615805440533L100.96148227191185,286.8534802286721L101.0685924769728,285.496884050136L102.88946596300916,286.8518224006639L104.7103394490455,292.3530334059916L106.74543334520378,292.4017377045043L108.78052724136205,294.9981652024007L109.31607826666686,294.2611934434893L109.63740888184974,295.5991950646355L109.95873949703262,294.53482467717555L111.99383339319091,298.7013945235359L113.60048646910532,298.6340060553086L113.92181708428821,298.8110800090549L116.17113139056842,298.3673645829544L118.4204456968486,299.2616507780002L118.63466610697053,301.37798024593945L119.06310692721438,300.8770921566355L121.74086205373843,301.3447340734497L121.84797225879939,301.6229803418616L124.20439677014055,302.6392289109199L127.4177029219694,304.44079508810324L128.91724579282285,305.8683642278575L129.98834784343248,306.7924465208894L132.23766214971266,306.8275745521994L132.88032338007844,306.5555115341966L132.9874335851394,305.51721833324484L133.73720502056614,306.56026098740944L134.05853563574902,308.09778444965696L136.20073973696825,309.40935043499593L137.91450301794364,308.7567934860181L138.23583363312653,310.9820915408781L138.98560506855327,310.6718536725231L140.8064785545896,312.0625473406344L142.41313163050404,308.8470330970619L142.520241835565,311.49306101671874L144.34111532160136,311.45775376075926L145.09088675702807,311.24537255105344L146.26909901269863,312.9388214584014L146.37620921775962,313.1854793823318L147.0188704481254,312.76860284750006L147.12598065318636,311.440279357429L147.98286229367403,313.62310117034787L148.51841331897887,311.4513016733758L148.73263372910077,311.87987261659003L149.16107454934462,312.79405274773484L153.1241521366002,314.8280284892101L154.19525418720983,316.49212936019575L156.65878890361193,316.73372418777666L158.58677259470926,316.8823910345706L160.51475628580656,317.74235570922946L162.01429915666003,319.07341237520603L165.12049510342794,320.908672786503L165.65604612873273,320.5222644420932L166.8342583844033,322.4627297226706L167.15558899958617,321.38684415147765L168.54802166537868,321.6414775723126L168.65513187043967,322.48643218257234L169.51201351092735,321.88674650520915L173.90353191842678,322.620626638916L174.22486253360967,322.5779263661629L176.47417683988988,323.4989618401527L176.9026176601337,324.1707854389561L177.65238909556044,325.09939315438896L177.86660950568236,325.1203624383852L179.36615237653584,326.02307219195944L181.72257688787698,322.63034957615355L182.2581279131818,325.3957411124045L183.11500955366947,323.87273484676984L183.6505605789743,324.8664459161484L184.07900139921816,326.7341459890123L186.22120550043738,326.94536223849605L189.86295247251007,326.99818870394813L190.71983411299777,327.07888460240383L192.00515657372932,327.3936478931597L192.43359739397317,328.91629570949533L192.862038214217,327.13601245944494L193.1833688293999,328.17269263855087L196.07534436604587,328.00247402764955L197.25355662171646,328.1095159495878L199.39576072293568,329.9212979317949L199.50287092799664,330.55871039788656L200.46686277354527,328.79375085537185L202.3948464646426,328.22780421828463L203.68016892537415,329.29307072899235L203.89438933549607,333.0974947678744L204.64416077092278,329.1233449858773L204.8583811810447,328.2538814047928L206.0365934367153,331.03441742393L207.4290261025078,331.4834199771919L207.96457712781262,334.23465276612916L209.46411999866606,330.86182408642225L209.89256081890994,332.7681694743434L210.42811184421473,334.35939312220944L211.0707730745805,331.8382847832825L211.28499348470243,332.8578938145197L211.9276547150682,329.84691970223554L215.67651189220186,333.22214551163L215.78362209726282,330.5859973507791L216.31917312256763,332.7719331919837L218.24715681366496,334.35827296814983L219.2111486592136,332.5807901032485L220.92491194018896,332.8897061898132L221.24624255537188,332.8097271899556L222.10312419585955,332.08778789852437L223.06711604140824,335.11475781078L224.9950997325055,332.81414059695055L226.49464260335898,333.76705565547735L227.45863444890765,335.16184908744685L227.77996506409053,334.71235366639877L228.42262629445628,336.64361128060597L229.17239772988302,335.4824147762316L230.88616101085842,335.3408497061757L231.2074916260413,335.66439500475906L234.20657736774822,336.6278171083652L235.7061202386017,337.5225961711973L236.88433249427226,337.7323562204035L238.81231618536958,335.9693233428714L240.7402998764669,335.6527678056201L241.49007131189364,337.7051364767545L242.88250397768613,336.03393382903084L242.9896141827471,338.17595963109795L244.5962672586615,339.0444374766099L245.1318182839663,338.4253955370963L245.66736930927115,337.55203381988434L245.988699924454,338.59308259982276L246.095810129515,338.0078021036664L246.31003053963693,336.59808821962264L246.73847135988075,337.9641833045844L247.1669121801246,338.8488585777986L248.34512443579519,336.93001227057204L248.45223464085615,337.91565823072125L248.5593448459171,338.08130661305927L249.41622648640478,339.3948888757056L250.48732853701443,338.9792221072583L253.05797345847748,339.1418236705541L253.3793040736604,339.4704544685682L253.80774489390424,338.36136753104785L254.45040612427,338.9803422613179L255.20017755969675,340.56244785513866L255.3072877647577,339.0872273616878L257.8779326862208,338.03995052517774L259.0561449418914,339.38066291914834L259.1632551469523,339.0499486345833L260.5556878127448,337.7526310088828L260.66279801780576,339.8689828799032L262.4836715038421,340.6476915790765L262.69789191396404,338.6339010137557L262.805002119025,339.89427595856966L263.55477355445174,340.2632547058116L266.44674909109773,341.1616182616345L266.5538592961587,339.56660849304683L268.481842987256,340.6595876151897L269.1245042176218,340.8519180672281L270.6240470884752,340.49443210063794L272.9804715998164,340.5042894563627L273.5160226251212,342.01398829176895L273.62313283018216,344.2174433424662L273.7302430352431,341.5060656349705L274.5871246757308,341.349781740571L277.2648798022548,342.1907486023785L277.3719900073158,341.1086573776952L277.80043082755964,342.51754234773483L279.621304313596,342.89622162913315L282.72750026036385,341.85678587104053L282.94172067048584,341.466456987422L283.47727169579065,342.3173260111167L283.9057125160345,343.6717490907771L284.0128227210954,343.21676491483674L284.9768145666441,342.0943481440068L285.61947579700984,343.7536771586984L287.1190186678633,343.24259566745184L288.9398921538997,341.73462186929737L290.76076563993604,341.58349068357217L290.86787584499695,343.2912327567209L290.97498605005796,342.3859466488096L291.93897789560657,341.71248762507906L292.7958595360943,343.35600006444866L292.90296974115523,343.3576578924569L294.1882922018868,343.92246197240337L296.86604732841084,343.20368151542027L297.08026773853277,342.8600406530071L298.04425958408143,343.4548872648328L298.3655901992643,341.70621476234516L299.11536163469106,343.3455826316941L300.72201471060544,344.9256943512887L301.25756573591025,342.6963189356517L302.8642188118247,344.2835324319843L303.72110045231244,345.67140331186533L304.0424310674953,344.22783837213956L308.54105968005564,342.97685031834527L309.39794132054334,344.608735558576L314.11079034322563,344.5438562354422L317.32409649505456,345.1640407320967L317.64542711023745,343.51918410785555L320.7516230570053,344.85673766737796L321.50139449243204,345.3309884931439L322.67960674810263,343.46866515976626L324.393370029078,342.8498248479833L326.10713331005337,342.80884961248205L326.2142435151144,344.1010817387519L327.178235360663,343.93180405726065L327.71378638596786,343.7949884404175L327.82089659102877,344.82039986968357L330.0702108973089,344.5100499859226L330.17732110236994,343.5296463467725L330.71287212767476,344.98763887078627L331.03420274285764,345.7684758626728L331.1413129479186,344.87439129535767L332.21241499852823,345.0038587015697L335.31861094529614,344.240339291445L335.42572115035705,344.1916573960135L337.2465946363934,344.7426611779453L337.88925586675924,344.4195191348233L338.42480689206394,345.0402637085076L339.1745783274907,344.7658483669796L341.8523334540148,345.8501126905386L342.1736640691977,343.46868756284744L342.70921509450244,344.65690218314006L342.9234355046244,345.2496429053336L343.45898652992923,344.8789839270022L343.67320694005116,345.8226913191589L344.5300885805388,344.33089254562543L346.0296314513923,345.91969666072276L349.1358273981602,344.86130789594125L349.88559883358687,343.00030634435393L352.24202334492804,345.64888821526677L353.63445601072056,347.0006005221029L354.59844785626916,344.267559035094L354.81266826639114,344.21782419484646L358.7757458536467,345.35500459618237L360.06106831437825,344.9738609758528L360.3823989295612,344.9062484768136L361.3463907751098,344.6871911489124L364.77391733706054,345.7663699730407L364.88102754212156,345.342055615253L364.98813774718246,344.26536353313713L365.30946836236535,342.83463555893474L365.41657856742637,345.6712016841346L365.6307989775483,345.43531964225775L366.7019010281579,346.563695632685L366.8090112332188,345.2755632702734L367.45167246358466,344.70730911582336L367.55878266864556,345.11759914478444L367.6658928737065,345.6290838914925L370.12942759010866,344.3954582256225L370.45075820529155,345.00206645507427L370.8791990255354,343.50018629500426L376.5560398937664,344.1017762342688L376.87737050894924,343.23462017054726L377.520031739315,344.93949464930336L379.2337950202904,343.86488605373836L380.6262276860829,344.26917205693985L381.6973297366925,344.2456936278501L383.83953383791174,344.60282114514115L384.8035256834604,343.95790364685L385.55329711888714,344.7305187079389L385.76751752900907,344.2603004367876L387.9097216302283,345.31111696012607L388.44527265553313,343.7295266371728L389.9448155263866,343.89331556377175L391.23013798711816,343.64237865133356L392.9439012680935,344.39837062617755L393.0510114731545,344.2195716351795L394.6576645490689,344.0162636733567L394.9789951642518,344.00925150894346L395.3003257794347,344.33400657391127L396.26431762498333,344.7712251064658L396.90697885534905,344.38255405085556L397.0140890604101,344.56498234100684L399.6918441869341,344.3310269641126L402.798040133702,343.79619820680193L403.22648095394584,343.80639160874455L403.4407013640677,344.69991609902985L403.6549217741897,344.9221546644603L405.3686850551651,344.947828595507L405.475795260226,345.48420316542L406.86822792601856,345.1450205161642L409.01043202723775,343.2773652494627L409.54598305254257,344.60600238267045L409.9744238727865,344.4910969792337L410.8313055132741,344.54011492088307L412.6521789993105,344.2940394770636L413.1877300246153,342.7330375857264L414.2588320752249,344.0690229295653L414.58016269040775,343.76537156708093L415.8654851511393,343.184571687163L415.97259535620026,343.7251132301778L417.04369740680994,344.0848395048872L418.22190966248047,345.3607397849676L418.4361300726024,344.7005433853032L418.7574606877853,344.35688011980886L420.3641137636997,344.3163081397691L423.6845301205895,343.6277942454772L425.39829340156496,343.97024774458714L426.5765056572355,343.92933971832946L428.8258199635157,344.15133184986684L429.04004037363757,343.15968186395804L429.7898118090643,344.12218544123533L430.43247303943014,343.14426854409754L431.1822444748569,342.8992460450942L432.4675669355884,343.6818976865573L435.35954247223435,342.8453442317448L435.5737628823562,344.2355002259074L435.89509349753916,343.18985881432445L436.21642411272205,343.66410964009043L437.2875261633317,343.95893418858486L438.35862821394124,343.9513619471418L440.39372211009953,342.35361900264866L441.46482416070916,342.03795958864504L442.85725682650167,343.2068179467872L444.03546908217226,344.2930537414912L444.785240517599,343.37286958458674L446.07056297833054,343.4690684152277L446.1776731833915,343.139675912453L450.0336405655861,342.8530060855126L452.49717528198823,342.58206322156946L454.5322691781465,342.83642780543016L454.74648958826845,343.48932080062576L455.0678202034513,342.51254646062887L455.4962610236952,343.36455804146425L455.924701843939,343.3363301591616L457.31713450973155,342.48723097888126L458.709567175524,342.9466509648977L460.2091100463775,341.3598407240265L461.70865291723095,342.8021958973679L462.7797549678406,342.9971027037434L462.9939753779625,341.6579809285375L463.6366366083283,341.8985676174647L464.70773865893784,343.47825367851664L466.5286121449742,343.1225823615031L466.95705296521805,342.95081793799955L467.70682440064485,342.55885362945395L468.2423754259496,341.6297082400725L469.6348080917421,341.86854748866665L469.741918296803,341.0337414741872L471.5627917828394,342.2638722593911L472.52678362838805,342.2255181843894L472.95522444863195,341.8418878220475L476.0614203953998,341.9147426420858L476.7040816257656,341.16260399720693L477.3467428561313,342.48239191334363L477.7751836763752,342.461265807779L479.4889469573506,342.6688079519472L481.8453714686918,343.3056827440902L482.8093633142404,342.7260030182319L483.6662449547281,342.22489089811603L486.02266946606926,342.26113908348566L486.34400008125215,342.2642531117714L487.0937715166789,342.3092384988061L487.9506531571666,341.7740512921963L488.05776336222755,342.25013917062006L489.664416438142,341.1189627950438L490.5212980786296,340.9028402707788L491.1639593089954,340.4564588780165L491.48528992417835,340.5483115109061L491.91373074442214,340.72567670470784L492.5563919747879,340.86764503022533L493.0919430000927,342.37268402474353L496.41235935698256,341.29104086168405L496.84080017722636,340.78551533457323L500.26832673917716,342.0722587059509L501.87497981509154,340.4468031500225L502.51764104545737,341.69151834108277L502.9460818657012,341.60640903563217L503.1603022758231,341.3627307215004L504.98117576185945,342.5431714726191L505.7309471972862,342.35287970096925L505.8380574023472,342.4789642419212L508.08737170862736,342.13424803161075L508.62292273393217,340.78249091861227L509.58691457948083,341.3209489750762L510.8722370402124,341.2642691796589L511.30067786045623,341.06015470691324L511.7291186807001,341.68898679290805L514.8353146274679,341.6193356134803L518.0486207792968,340.7545542763651L518.2628411894187,341.2285810713191L518.7983922147235,341.7397073687281L519.0126126248455,341.93053681432656L519.7623840602722,341.3026008515794L521.9045881614915,340.8468325677974L524.5823432880155,341.48352813529084L524.7965636981374,342.18779139566107L525.0107841082594,340.80220563006174L526.5103269791127,340.3358630919568L526.8316575942957,341.09664932617596L526.9387677993566,341.1188955858002L527.2600984145395,341.0660019111045L527.9027596449054,341.3992925500067L530.3662943613074,340.92916389118017L532.0800576422828,341.2202695281967L532.7227188726486,341.20846310440817L534.222261743502,340.34117262219945L534.8649229738678,340.7073509842923L535.5075842042336,341.3166699865684L536.5786862548432,340.6609318000613L538.2924495358186,340.9960146854588L538.3995597408796,341.3354885747702L538.8280005611233,340.5040654255508L540.5417638420988,341.45319436335603L540.6488740471597,340.1716709098963L541.0773148674036,339.85386080009823L542.2555271230742,339.9900715337492L542.469747533196,339.7674745190196L542.683967943318,340.765598995393L544.7190618394762,341.56650914802816L546.9683761457565,340.15887875053534L547.3968169660003,340.4035652033208L547.5039271710613,340.7972993552806L549.3248006570976,340.89869570075825L550.1816822975853,341.08638871498977L551.8954455785607,341.01904505292487L554.8945313202677,339.907695404204L556.2869639860601,339.96652589541577L557.3580660366697,341.1476387389703L559.393159932828,341.46766675380644L561.6424742391082,339.91954663415487L562.285135469474,340.83231537118456L563.7846783403274,340.880168352612L566.9979844921563,340.3077472250601L569.2472987984365,341.03201643693535L569.9970702338633,340.8717223910024L570.2112906439852,340.88626199069637L571.6037233097777,340.33115844490635L571.9250539249606,340.5633887845487L572.9961559755702,340.14886457324224L573.1032661806312,340.4749862261628L573.210376385692,340.587964964617L575.7810213071551,340.27123020271614L575.8881315122162,340.56150692572857L575.9952417172772,341.1295146462855L576.4236825375209,340.0019227637L576.8521233577648,339.92131647756906L578.5658866387403,339.6847623432565L580.6009805348984,340.75730985535176L582.3147438158738,339.9971061012436L582.8502948411787,340.6697810171324L583.0645152513006,340.5692807949024L584.2427275069712,340.2236460582631L585.2067193525198,340.92775249706506L585.3138295575808,341.0955963813599L585.6351601727637,340.2021391003182L585.8493805828855,340.85151481176666L588.7413561195316,339.9511125755552L590.455119400507,340.64731072669616L593.347094937153,340.2251918708654L595.1679684231892,339.908277884315L596.3461806788599,340.71761159547856L597.3101725244085,339.74482500393384L597.4172827294694,340.803975473476L597.6315031395914,340.38044522353005L597.9528337547742,340.9488337964672L598.2741643699571,340.54768422463275L599.5594868306887,340.5357657854383L600.5234786762373,340.7809227029288L601.380360316725,340.4012128797956L603.3083440078223,340.5858366719037L605.7718787242245,340.2233548182076L606.0932093394074,340.2674216789134L606.2003195444682,340.2252142739466L606.4145399545903,340.65206017990903L607.164311390017,340.24015712910204L608.3425236456876,339.97685371584555L608.4496338507485,340.44478687271516L609.4136256962972,340.0764130086654L609.842066516541,339.0382318231196L612.0913808228212,339.4584688201302L614.1264747189795,340.96122270036676L614.5549155392234,339.1872571192127L614.9833563594672,340.14299496596976L615.6260175898328,340.47579273708567L615.8402379999549,340.04928287734117L616.5900094353816,340.8020488084934L618.5179931264789,339.65268113098875L619.3748747669666,340.6741272148837L619.5890951770886,340.29343165617803L622.6952911238565,340.38642684620845L624.4090544048317,339.35272627690114L625.2659360453194,340.38167739299564L625.4801564554414,340.65954280902736L625.5872666605023,339.9260435277007L626.1228176858073,339.3243863791925L626.551258506051,341.15261222299506L626.872589121234,340.59443945508167L628.9076830173922,340.5326069509901L630.8356667084895,339.6465202836608L631.6925483489772,340.47133452392836L632.3352095793429,339.6343778136544L632.7636503995868,339.80224410103045L633.5134218350136,339.7485887215742L633.6205320400745,339.7823949710938L634.1560830653792,339.27798959804267L636.2982871665986,339.7229147905275L636.9409483969644,339.49991452033646L637.9049402425129,340.06781022548745L638.7618218830007,340.5100022420668L640.5826953690371,339.2738898341844L642.1893484449514,339.75611615685494L644.6528831613537,340.0957020615722L644.9742137765364,340.25135866969833L649.2586219789749,339.9681165141804L649.9012832093407,340.2972401799808L650.4368342346455,338.68226926605047L651.0794954650113,339.7773990839879L651.5079362852551,338.9250738600158L651.829266900438,340.196179880721L653.2216995662305,339.9026547109357L654.2928016168402,339.63903765454245L654.721242437084,339.9040661050508L655.7923444876936,339.82955345700424L655.8994546927546,340.28097554303497L656.0065648978155,339.77726466550075L656.9705567433642,340.4180375937712L657.0776669484251,339.9655177567621L657.5061077686689,338.8788339004343L659.2198710496444,340.3438609919425L660.7194139204978,339.3510460458117L661.1478547407416,339.3263130441751L661.3620751508637,339.34826806374383L661.7905159711074,339.619793407798L662.968728226778,340.14879736399865L663.2900588419609,339.9462511069365L663.6113894571438,339.47916926715214L666.1820343786069,339.3147306511985L667.0389160190946,339.354921778858L667.4673568393384,339.6492534595663L668.859789505131,339.3420848133347L669.6095609405577,340.09904012066994L670.5735527861062,339.14198049212246L671.430434426594,339.4822384892755L673.2513079126304,339.81770222705336L673.5726385278132,339.3354310982205L674.429520168301,339.4686174159104L674.7508507834839,339.3971067807437L675.6077324239715,339.1601717940508L675.8219528340935,339.1419580890413L680.4276916517148,339.57129073701606L680.7490222668977,339.39742042388036L681.4987937023244,339.1460354498183L681.6059039073854,340.26258261337586L682.677005957995,338.8303984388959L687.4969651857383,339.6954710160666L687.925406005982,340.1227425805717L690.0676101072014,340.02181669979905L690.3889407223843,339.2844192823449L691.6742631831157,339.83748414774647L692.6382550286644,339.57115631852895L693.602246874213,340.01039112839084L694.3520183096398,340.0773315349943L695.4231203602494,339.16790085706225L695.6373407703713,339.36209076483965L696.8155530260419,339.0955837109726L696.9226632311029,339.3375369878526L698.3150958968954,339.1818579766453L699.600418357627,340.28877181529L701.7426224588461,338.63432667229836L706.1341408663455,339.0934778213405L706.8839123017723,339.8435105765872L707.2052429169552,339.70595565806474L714.3816266560397,338.67391291676563L715.2385082965274,338.84569974335045L716.095389937015,339.54552719364455L717.2736021926856,338.7004157618165L717.4878226028076,339.57052903225554L717.5949328078685,338.42131817631923L717.7020430129294,339.27200797536426L717.9162634230514,339.0058145646339L718.5589246534172,338.73531976231453L719.6300267040267,338.53548427807664L720.7011287546363,338.7478430847012L721.6651206001851,338.0690297245657L721.879341010307,338.47616091907867L722.8433328558556,338.34530452183276L723.8073247014044,338.1767661420209L724.7713165469529,338.36531047333773L725.3068675722578,339.13875444843075L727.5561818785379,339.3073824405674L728.7343941342085,338.8711944497476L729.8054961848181,338.6134470006269L732.3761411062812,338.2849954272623L732.4832513113422,338.82186286496153L732.6974717214641,339.147626068583L732.911692131586,338.7244766710173L734.8396758226833,339.34067341921957L737.0889901289635,338.288915966471L737.1961003340245,338.0237979036379L743.7298228427431,338.4634359689613L744.3724840731089,338.382560845856L745.4435861237185,338.27269613568757L745.6578065338406,338.3321091070103L746.3004677642062,338.14847105047465L747.9071208401207,338.6761980310473L748.1213412502426,338.54267566713946L749.2995535059131,337.7226332831659L750.4777657615838,338.569492155327L750.7990963767666,338.328121358558L752.4057494526811,338.3996319937248L752.834190272925,338.4086828385266L755.9403862196928,337.9785884857912L758.082590320912,338.01398535407554L758.7252515512779,337.8072273177491L760.6532352423751,338.33981576694055L760.974565857558,338.08946133461336L761.4030066778018,338.3542209481474L763.4381005739601,337.6724951874569L763.652320984082,337.8683205201613L764.6163128296307,337.6694483684147L764.7234230346917,338.2773559765756L765.0447536498746,337.83489512302197L766.7585169308499,338.0379790540328L766.9727373409719,337.88391306467133L767.0798475460327,337.56708869044576L767.6153985713377,338.66531013358775L769.8647128776179,337.60627167945154L770.0789332877397,338.31228238015484L770.4002639029226,337.1262184556567L771.2571455434103,338.2463501122051L772.006916978837,337.7295558352544L772.2211373889589,337.27748405986915L772.5424680041418,337.61505368727904L774.4704516952391,337.9917166913701L774.5775619003001,337.7477919433452L774.6846721053612,337.7734658743919L775.5415537458488,337.61702515842404L777.3624272318851,338.23526058701475L778.2193088723728,338.0555206666066L780.468623178653,337.87685609409573L781.9681660495064,337.1007461523408L782.2894966646894,337.6846152543821L782.5037170748113,338.2402340710395L783.0392681001161,337.69655609665773L784.0032599456648,337.69232191431234L784.8601415861525,337.01680180711213L785.9312436367621,338.2886919356591L788.2876681481032,337.3074369794236L788.6089987632861,337.5645347391898L788.8232191734081,338.0319974313544L788.930329378469,337.34243059224644L789.7872110189567,338.2432808900817L790.4298722493224,337.6204528298465L791.5009742999321,337.6370983191726L792.4649661454808,337.261062601355L794.500060041639,337.52156562946243L795.2498314770658,337.03763667262126L795.8924927074315,336.7994695164628L798.5702478339556,336.9701137859068L800.284011114931,337.3758559893858L801.4622233706016,337.1184221834017L802.4262152161501,337.04151240566756L803.6044274718208,337.4109168114522L804.1399784971255,337.16750733429467L804.9968601376132,337.73119126018145L805.9608519831619,337.4300714458719L806.0679621882229,337.27374274530996L806.2821825983449,336.73624802133736L809.3883785451127,337.25613392349254L809.4954887501736,336.9295642089482L809.6025989552346,337.08259965657476L811.31636223621,336.90209803140607L813.7798969526121,337.0015229057388L814.208337772856,337.7700157998882L814.8509990032218,337.3333797474446L815.6007704386485,337.08089702240414L816.2434316690143,337.1491368077168L818.0643051550505,336.9028821392478L819.5638480259041,337.3120296110681L819.8851786410869,336.7705919448056L824.2766970485864,336.9254420420088L824.7051378688302,337.09525739744856L827.7042236105372,337.21773504232846L828.7753256611468,336.4769323565331L828.8824358662077,336.65445437190317L829.2037664813905,337.52651671040593L829.3108766864516,335.92292656172157L829.7393175066954,336.19053136656703L830.2748685320001,336.8437156018182L830.7033093522441,337.084369499989L830.8104195573051,336.5131357357403L831.0246399674269,337.0428789936203L831.9886318129757,336.7587183117735L832.4170726332195,336.91000631906707L832.5241828382804,336.26296052806265L832.9526236585243,336.26387905439157L835.0948277597435,336.20932755168764L835.5232685799873,335.66780027310034L836.1659298103531,336.7641846635845L837.3441420660237,335.90569859228447L837.5583624761456,336.7418039854731L838.8436849368771,336.6235381198574L839.16501555206,336.9835332315412L839.2721257571211,336.75643319749184L840.6645584229135,336.6929876715544L841.8427706785842,336.2190952950876L842.3783217038889,337.04702356364095L842.6996523190718,336.9276151408845L843.3423135494377,335.9783069784296L843.5565339595595,336.57794784963045L843.7707543696814,336.2783290417608L844.6276360101691,336.1084464770774L845.2702972405349,336.79568339574126L845.9129584709005,337.0438647291928L847.5196115468151,336.5961839577213L848.3764931873028,335.8437092666245L849.9831462632171,335.71634775004463L850.0902564682782,336.2677547874379L853.517783030229,336.1117173269315L854.5888850808386,335.6563522986109L855.2315463112044,335.9804800773053L855.6599871314482,336.3045854529185L856.195538156753,335.86673963409055L858.766183078216,336.51340457271465L860.0515055389477,336.22819094605177L860.8012769743744,335.7827056765371L861.4439382047401,335.9191852471624L861.5510484098011,336.00028440107957L865.5141259970566,335.53188077950483L867.4421096881539,335.51964869717375L867.9776607134588,335.71244961391716L871.0838566602266,335.423360254208L871.4051872754095,336.2056758494532L871.8336280956534,336.3179376893093L873.118950556385,335.6899569203998L873.9758321968726,336.51797480127794L877.9389097841282,335.3822057940572L878.3673506043721,336.4173177574796L878.474460809433,335.3655827078123L879.7597832701646,336.0210744604263L881.9019873713837,335.2906219981419L883.7228608574201,335.90935029451884L884.044191472603,335.5971185519377L884.5797424979079,335.64324649611325L884.7939629080297,335.7821007933449L885.6508445485174,335.72024588617217L886.1863955738223,335.3312835905064L886.8290568041881,335.5521107618218L887.3646078294928,335.8051759669733L887.7930486497366,336.2711824588604L888.9712609054072,335.4771500521514L889.721032340834,335.42824412590795L890.4708037762607,335.02864036667575L893.0414486977238,335.726854795124L893.3627793129067,335.37176595822143L893.4698895179678,336.4606005103437L895.0765425938821,336.0296324374419L895.504983414126,334.4793616219958L896.6831956697965,336.13069273670163L898.9325099760766,335.6363015409435L900.2178324368083,335.3827434680058L901.074714077296,335.1484520448937L902.7884773582714,335.1124054872548L903.6453589987591,334.6462869799618L905.5733426898563,335.34790667675134L908.0368774062584,334.92424200831823L909.32219986699,335.607043116906L909.5364202771119,335.16399978324137L910.9288529429044,334.88378204368445L911.5715141732702,334.95690570069706L911.9999549935139,335.1379449998144L912.107065198575,335.1946247952316L916.0701427858305,334.92697518422375L916.4985836060745,335.22074678790216L917.0341346313793,334.3748736513135L917.2483550415012,335.4547245678776L917.783906066806,335.00706619948727L918.2123468870498,334.75010285820827L920.46166119333,334.64176155756087L920.675881603452,334.9100832610045L922.6038652945492,334.80543846875395L922.7109754996102,334.6776960997938L923.139416319854,334.33757252112787L923.7820775502198,335.84207384169747L925.6029510362562,335.9685168319485L926.3527224716829,334.799860101537L927.8522653425364,334.6696533936456L928.2807061627802,335.60749117852987L930.9584612893042,333.7591697708976L931.6011225196701,334.7432251122821L931.922453134853,333.35266586265806L935.6713103119865,334.9389160264994L936.5281919524742,334.38547030871763L938.6703960536935,333.6533824215062L940.169938924547,334.5392002518612L942.5263634358881,334.3290817533559L943.2761348713149,334.9506776441255L944.0259063067416,334.6638061894544L947.8818736889363,334.45332924165L950.8809594306431,334.42243539268543L952.4876125065575,334.0844401067328L953.2373839419843,334.6584966592118L953.88004517235,333.78074393808606L958.4857839899715,334.55400868852945L959.2355554253982,334.8365339454493L959.8782166557639,334.653411159781L960.1995472709468,333.9066716574696L960.8422085013126,334.0349517003784L961.3777595266174,334.6010775621151L962.8773023974708,333.83314474499554L964.3768452683242,333.827387153129L964.5910656784463,334.39658223698916L965.4479473189339,334.4136309817767L965.9834983442388,334.57923455795236L966.3048289594217,333.69626191890876L967.3759310100312,333.7490211751174L969.0896942910066,334.2795261377579L969.8394657264333,334.74490534337156L970.3750167517383,333.90194460733795L971.8745596225917,334.45857156264907L972.1958902377745,333.69415602927666L972.3030004428355,334.0261024833073L974.3380943389938,334.5412389322497L974.9807555693595,334.59442384700094L975.6234167997253,334.04404735134256L976.1589678250301,333.3270367377737L976.6945188503349,334.0198296205734L977.3371800807007,333.75560768098796L977.4442902857617,333.83466815451663L977.7656209009444,333.15128456581783L978.3011719262494,334.0721408151581L978.8367229515541,333.53702081779187L980.8718168477125,333.82727513772306L981.0860372578343,334.56771937421934L981.1931474628954,334.1457349368757L982.7998005388098,333.3101672176357L983.6566821792974,334.43495871507207L983.9780127944803,333.97332082401755L985.5846658703947,333.9291195448246L985.6917760754558,334.95574074047505L987.4055393564311,333.89114632220316L989.0121924323455,333.83930559232346L990.297514893077,333.45813956891277L992.2254985841744,333.9023030566371L992.8681598145401,334.19184047797006L994.3677026853936,333.3720669309708L996.081465966369,333.6502907963016L997.7952292473443,334.02077054998347L998.2236700675883,334.6481912418632L999.080551708076,333.45652654706686L999.2947721181978,334.59498392403077L1000.3658741688074,333.85429325364134L1001.2227558092952,334.0636500473861L1001.7583068345999,333.6866061909148L1002.8294088852095,333.9952086343427L1003.3649599105144,333.62295903724663L1005.2929436016118,333.66772039346944L1007.32803749777,333.7812144027911L1007.6493681129529,333.6627021032823L1009.4702415989892,333.1172766885675L1010.5413436495988,334.1247208467171L1015.2541926722811,333.08517307321847L1016.2181845178299,333.813430033546L1016.5395151330127,333.6773537183822L1016.8608457481956,333.61043571486L1017.2892865684395,333.5659655986927L1018.3603886190491,333.5127358777791L1023.2874580518533,333.1962475497714L1023.6087886670362,333.2708946163051L1024.7870009227067,332.82462523894867L1025.7509927682554,333.0759430037672L1026.3936539986212,333.1420320932853L1027.5718662542918,333.1238855975193L1028.6429683049014,332.9528380726139L1033.4629275326447,333.2182697785837L1033.9984785579495,332.72405780747516L1034.1055887630105,333.1460198417376L1034.962470403498,333.450029653521L1035.283801018681,332.6011096978902L1036.0335724541076,333.1015049194079L1036.2477928642297,333.8865536905586L1036.4620132743514,333.43143509613117L1037.854445940144,333.54244236344044L1038.8184377856928,332.98653230672755L1039.0326581958145,332.45638579338606L1040.532201066668,332.5573116741587L1041.9246337324605,333.28512057286235L1046.2090419348992,331.951756389523L1046.7445929602038,332.68738396356287L1047.6014746006915,332.8088534697891L1047.7085848057525,333.18683825567047L1050.4934501373375,332.3036191827338L1050.9218909575814,332.5965170662457L1051.2432215727642,332.7949411563685L1051.3503317778252,332.36433153276573L1052.7427644436177,332.83862716469406L1052.8498746486787,333.19387282316495L1053.3854256739835,332.278281297905L1053.7067562891664,332.3295395476736L1054.670748134715,332.531525727706L1055.7418501853247,332.52265410755376L1056.0631808005076,332.29960903120036L1056.7058420308733,332.99453020671325L1057.1342828511172,333.2104959094099L1059.7049277725803,332.299922674337L1059.8120379776412,332.355639137263L1059.9191481827022,332.613655423358L1060.347589002946,332.4862266975346L1060.668919618129,332.7912894541341L1061.3115808484947,332.8692521766843L1063.239564539592,332.76574994157454L1067.7381931521525,332.1554900098884L1069.023515612884,332.5130207826409L1069.344846228067,332.6861293910161L1069.6661768432498,332.04255607759654L1070.0946176634936,332.4586933107489L1071.379940124225,332.7198236251298L1072.2368217647129,332.7243266444495L1074.5932462760538,332.8440487103427L1074.7003564811148,332.8499631237775L1074.9145768912367,333.01357282572695L1075.8785687367856,333.2665484185537L1076.842560582334,332.4586933107489L1081.2340789898335,332.2373284654849L1081.6625198100774,332.2253428170469L1081.9838504252602,331.72611255575123L1082.519401450565,331.5202282395913L1083.1620626809308,331.72194558264937L1083.2691728859918,331.98596589450403L1083.6976137062356,332.1318995653926L1084.0189443214185,332.1593881460159L1085.1971565770891,332.037380965841L1085.30426678215,332.94909675805474L1085.411376987211,331.735275415959L1086.2682586276987,331.9811716351288L1087.1251402681864,332.4166427273504L1089.4815647795276,333.2950003316683L1089.5886749845886,332.6171279009429L1092.0522097009907,332.0705375260061L1094.9441852376367,331.95540809175736L1095.0512954426977,331.70478482245585L1095.6939566730634,332.8001610742864L1096.1223974933073,332.1438628107494L1096.4437281084902,332.0206010580278L1096.765058723673,331.5758774932737L1098.2646015945265,331.9737338121729L1098.4788220046485,331.57737849971363L1099.0143730299533,332.4493736289728L1100.5139159008068,332.2185994896079L1100.8352465159896,332.1131257833532L1102.441899591904,332.38565926606105L1102.5490097969648,331.6025595629741L1103.5130016425137,332.4210337312642L1105.119654718428,332.2521369021532L1105.4409853336108,331.62220706517996" fill="none"></path></g></g></g></g></g></g><g transform="translate(51, 376)" clip-path="url(#clip_1)"><clipPath id="clip_1"><rect width="1119" height="23"></rect></clipPath><g><g><line x1="34.55315513411557" y1="0" x2="34.55315513411557" y2="5" style="visibility: inherit;" fill="rgb(0, 0, 0)" stroke="rgb(204, 204, 204)" stroke-width="1px"></line><line x1="141.6633601950773" y1="0" x2="141.6633601950773" y2="5" style="visibility: inherit;" fill="rgb(0, 0, 0)" stroke="rgb(204, 204, 204)" stroke-width="1px"></line><line x1="248.773565256039" y1="0" x2="248.773565256039" y2="5" style="visibility: inherit;" fill="rgb(0, 0, 0)" stroke="rgb(204, 204, 204)" stroke-width="1px"></line><line x1="355.8837703170007" y1="0" x2="355.8837703170007" y2="5" style="visibility: inherit;" fill="rgb(0, 0, 0)" stroke="rgb(204, 204, 204)" stroke-width="1px"></line><line x1="462.9939753779625" y1="0" x2="462.9939753779625" y2="5" style="visibility: inherit;" fill="rgb(0, 0, 0)" stroke="rgb(204, 204, 204)" stroke-width="1px"></line><line x1="570.1041804389242" y1="0" x2="570.1041804389242" y2="5" style="visibility: inherit;" fill="rgb(0, 0, 0)" stroke="rgb(204, 204, 204)" stroke-width="1px"></line><line x1="677.2143854998859" y1="0" x2="677.2143854998859" y2="5" style="visibility: inherit;" fill="rgb(0, 0, 0)" stroke="rgb(204, 204, 204)" stroke-width="1px"></line><line x1="784.3245905608477" y1="0" x2="784.3245905608477" y2="5" style="visibility: inherit;" fill="rgb(0, 0, 0)" stroke="rgb(204, 204, 204)" stroke-width="1px"></line><line x1="891.4347956218094" y1="0" x2="891.4347956218094" y2="5" style="visibility: inherit;" fill="rgb(0, 0, 0)" stroke="rgb(204, 204, 204)" stroke-width="1px"></line><line x1="998.545000682771" y1="0" x2="998.545000682771" y2="5" style="visibility: inherit;" fill="rgb(0, 0, 0)" stroke="rgb(204, 204, 204)" stroke-width="1px"></line><line x1="1105.655205743733" y1="0" x2="1105.655205743733" y2="5" style="visibility: inherit;" fill="rgb(0, 0, 0)" stroke="rgb(204, 204, 204)" stroke-width="1px"></line></g><g transform="translate(0, 8)"><text style="text-anchor: middle; visibility: inherit; font-family: Roboto, sans-serif; font-size: 12px; font-weight: 200;" x="34.55315513411557" y="0" dx="0em" dy="0.95em" fill="rgb(33, 33, 33)" stroke="none" stroke-width="1px">0</text><text style="text-anchor: middle; visibility: inherit; font-family: Roboto, sans-serif; font-size: 12px; font-weight: 200;" x="141.6633601950773" y="0" dx="0em" dy="0.95em" fill="rgb(33, 33, 33)" stroke="none" stroke-width="1px">1k</text><text style="text-anchor: middle; visibility: inherit; font-family: Roboto, sans-serif; font-size: 12px; font-weight: 200;" x="248.773565256039" y="0" dx="0em" dy="0.95em" fill="rgb(33, 33, 33)" stroke="none" stroke-width="1px">2k</text><text style="text-anchor: middle; visibility: inherit; font-family: Roboto, sans-serif; font-size: 12px; font-weight: 200;" x="355.8837703170007" y="0" dx="0em" dy="0.95em" fill="rgb(33, 33, 33)" stroke="none" stroke-width="1px">3k</text><text style="text-anchor: middle; visibility: inherit; font-family: Roboto, sans-serif; font-size: 12px; font-weight: 200;" x="462.9939753779625" y="0" dx="0em" dy="0.95em" fill="rgb(33, 33, 33)" stroke="none" stroke-width="1px">4k</text><text style="text-anchor: middle; visibility: inherit; font-family: Roboto, sans-serif; font-size: 12px; font-weight: 200;" x="570.1041804389242" y="0" dx="0em" dy="0.95em" fill="rgb(33, 33, 33)" stroke="none" stroke-width="1px">5k</text><text style="text-anchor: middle; visibility: inherit; font-family: Roboto, sans-serif; font-size: 12px; font-weight: 200;" x="677.2143854998859" y="0" dx="0em" dy="0.95em" fill="rgb(33, 33, 33)" stroke="none" stroke-width="1px">6k</text><text style="text-anchor: middle; visibility: inherit; font-family: Roboto, sans-serif; font-size: 12px; font-weight: 200;" x="784.3245905608477" y="0" dx="0em" dy="0.95em" fill="rgb(33, 33, 33)" stroke="none" stroke-width="1px">7k</text><text style="text-anchor: middle; visibility: inherit; font-family: Roboto, sans-serif; font-size: 12px; font-weight: 200;" x="891.4347956218094" y="0" dx="0em" dy="0.95em" fill="rgb(33, 33, 33)" stroke="none" stroke-width="1px">8k</text><text style="text-anchor: middle; visibility: inherit; font-family: Roboto, sans-serif; font-size: 12px; font-weight: 200;" x="998.545000682771" y="0" dx="0em" dy="0.95em" fill="rgb(33, 33, 33)" stroke="none" stroke-width="1px">9k</text><text style="text-anchor: middle; visibility: inherit; font-family: Roboto, sans-serif; font-size: 12px; font-weight: 200;" x="1105.655205743733" y="0" dx="0em" dy="0.95em" fill="rgb(33, 33, 33)" stroke="none" stroke-width="1px">10k</text></g><line x1="0" y1="0" x2="1119.3579997253419" y2="0" fill="rgb(0, 0, 0)" stroke="rgb(204, 204, 204)" stroke-width="1px"></line></g></g></g></g></svg>